<svg xmlns="http://www.w3.org/2000/svg" viewBox="0 0 294.82 83.89"><defs><style>.cls-1{fill:#9b003b;}</style></defs><g id="Camada_2" data-name="Camada 2"><g id="Camada_1-2" data-name="Camada 1"><path class="cls-1" d="M61.41,51.06H59.5c-7,0-13.9,0-20.85,0a12.41,12.41,0,0,1-11.55-6.8,34.83,34.83,0,0,1-1.72-4.74H76.6a36.15,36.15,0,0,1-2.77,13.24A37.61,37.61,0,0,1,57.21,71.63,38.3,38.3,0,1,1,50.78,2.1C67.89,8,76.47,23.86,76.55,37H64.87c-.76-9-4.81-16.2-12.53-21.14A25.09,25.09,0,0,0,34.92,12,26.49,26.49,0,0,0,33.3,64.32C46.84,66.92,57.63,58.81,61.41,51.06Z"/><path class="cls-1" d="M256.07,19.88c.1-1.73.19-3.17.28-4.68h16.26v1.13c0,13.78,0,27.56,0,41.34a36.4,36.4,0,0,1-1.73,11.43c-2.57,7.74-8,12.29-15.87,14-1.35.31-2.73.49-4.18.75,0-.43-.09-.69-.09-1,0-3.94,0-7.88,0-11.82a1.39,1.39,0,0,1,.53-1.07A8.1,8.1,0,0,0,255.65,64c.47-2.59.6-5.24.88-7.86l-.35-.13a4,4,0,0,0-.61.44c-9.47,9.83-29.36,6.67-35-8.74-3.81-10.43-.86-23.57,8.89-30.15a22.12,22.12,0,0,1,19.28-3A13.83,13.83,0,0,1,256.07,19.88Zm-9.71,7.52c-6.19,0-10.55,4.27-10.56,10.38s4.32,10.42,10.54,10.39,10.47-4.2,10.54-10.32S252.54,27.42,246.36,27.4Z"/><path class="cls-1" d="M113.28,15.18h16.2v5.63a4.19,4.19,0,0,0,.53-.44c3.84-5.26,9.2-7,15.48-6.75,3.7.17,7.2,1,10.18,3.28,3.42,2.67,5,6.38,5.64,10.52a40.72,40.72,0,0,1,.42,5.94c.05,8.79,0,17.58,0,26.37V61h-16.3V59.8c0-8,0-16.11,0-24.17a17.92,17.92,0,0,0-.61-4.43,5.9,5.9,0,0,0-5.39-4.56c-5.41-.68-9.09,2.22-9.7,7.65a32.18,32.18,0,0,0-.21,3.54q0,10.94,0,21.88V61H113.28Z"/><path class="cls-1" d="M214.79,40.85H180.65c-.91,4.07,2,8.58,6.28,9.76a13.19,13.19,0,0,0,6.21.25,7.77,7.77,0,0,0,4.94-3.26,1.61,1.61,0,0,1,1-.66c4.81,0,9.63,0,14.45,0a3.29,3.29,0,0,1,.59.1,18.33,18.33,0,0,1-5.39,9.29,23.92,23.92,0,0,1-13.75,6,31.91,31.91,0,0,1-17.8-2.51c-7.29-3.4-11.47-9.19-12.71-17.12a28.49,28.49,0,0,1,.75-12.62,21.38,21.38,0,0,1,14.45-14.93,30.66,30.66,0,0,1,20.15.07c8,2.77,12.49,8.66,14.27,16.78A33.59,33.59,0,0,1,214.79,40.85Zm-15.16-9.43c-.68-4.5-5.43-7.8-10.25-7.24s-8.68,3.94-8.42,7.24Z"/><path class="cls-1" d="M57.76,53c-4.91,7.2-16.31,12.58-27.82,8.36A24.5,24.5,0,1,1,62.72,36.88c-.44,0-.88.06-1.32.06H24.74c-1.5,0-1.5,0-1.48,1.46A15,15,0,0,0,36.67,52.86c1.25.11,2.51.12,3.76.12,5.38,0,10.76,0,16.14,0Z"/><rect class="cls-1" x="278.96" y="15.06" width="15.86" height="46.01"/><rect class="cls-1" x="91.35" y="15.06" width="15.86" height="46.01"/></g></g></svg>