<svg xmlns="http://www.w3.org/2000/svg" xmlns:xlink="http://www.w3.org/1999/xlink" viewBox="0 0 314.89 105.29"><defs><style>.cls-1{fill:none;}.cls-2{fill:#fff;}.cls-3{fill:#203841;}.cls-4{fill:url(#Gradiente_sem_nome_2);}.cls-5{clip-path:url(#clip-path);}</style><linearGradient id="Gradiente_sem_nome_2" x1="-4882.35" y1="-560.11" x2="-4816.27" y2="-560.11" gradientTransform="matrix(1, 0, 0, -1, 5006.39, -530.7)" gradientUnits="userSpaceOnUse"><stop offset="0" stop-color="#eff2f9"/><stop offset="0.01" stop-color="#ebeff6"/><stop offset="0.15" stop-color="#b6bfc6"/><stop offset="0.3" stop-color="#88959d"/><stop offset="0.44" stop-color="#62747c"/><stop offset="0.59" stop-color="#455a62"/><stop offset="0.73" stop-color="#314750"/><stop offset="0.87" stop-color="#243c45"/><stop offset="1" stop-color="#203841"/></linearGradient><clipPath id="clip-path"><path class="cls-1" d="M190.06,19.23a2.21,2.21,0,0,0-.76-.79s0,0-.06,0h0L160.39,1.76h0l-1.12-.64a3.28,3.28,0,0,0-1.74-.43,3.5,3.5,0,0,0-1.73.43l-1.12.64h0L125.82,18.42h0s0,0,0,0a2.21,2.21,0,0,0-.76.79,3.32,3.32,0,0,0-.71,2.06V56a2.24,2.24,0,0,0,3.36,1.86l29.87-17.25,29.88,17.25A2.23,2.23,0,0,0,190.77,56V21.29A3.15,3.15,0,0,0,190.06,19.23Z"/></clipPath></defs><g id="Camada_2" data-name="Camada 2"><g id="Camada_1-2" data-name="Camada 1"><path class="cls-2" d="M124,55.91v0Z"/><path class="cls-2" d="M189.15,18.41s0,0,0,0,.05,0,0,0Z"/><path class="cls-3" d="M189.07,18.44s0,0,0,0h0L160.16,1.76h0L159,1.12a3.37,3.37,0,0,0-3.34,0l-1.12.64h0l-13.86,8-15,8.66a3.32,3.32,0,0,0-1.68,2.9V56a2.24,2.24,0,0,0,3.36,1.86L189,22.31A2.25,2.25,0,0,0,189.07,18.44Z"/><path class="cls-4" d="M189.07,18.44s0,0,0,0h0L160.16,1.76h0L159,1.12a3.37,3.37,0,0,0-3.34,0l-1.12.64h0l-13.86,8-15,8.66a3.32,3.32,0,0,0-1.68,2.9V56a2.24,2.24,0,0,0,3.36,1.86L189,22.31A2.25,2.25,0,0,0,189.07,18.44Z"/><path class="cls-3" d="M188.46,58.76a3,3,0,0,1-1.46-.38L157.43,41.31,127.86,58.38a2.89,2.89,0,0,1-4.33-2.4V21.29a4.15,4.15,0,0,1,.82-2.42,2.84,2.84,0,0,1,1-1,.09.09,0,0,1,.06,0l30-17.32A4.2,4.2,0,0,1,157.41,0a4.3,4.3,0,0,1,2.06.53l30,17.32s0,0,.05,0a2.79,2.79,0,0,1,1,1,4,4,0,0,1,.81,2.42V56a2.82,2.82,0,0,1-1.45,2.42A2.52,2.52,0,0,1,188.46,58.76ZM157.39,39.93l30.2,17.42a1.69,1.69,0,0,0,1.63,0A1.52,1.52,0,0,0,190,56V21.36a2.65,2.65,0,0,0-.59-1.68l0-.08a1.36,1.36,0,0,0-.53-.56l0,0-30-17.32a2.71,2.71,0,0,0-1.4-.36h-.06a2.94,2.94,0,0,0-1.4.36L126,19a1.45,1.45,0,0,0-.54.56l0,.08a2.71,2.71,0,0,0-.59,1.68V56a1.52,1.52,0,0,0,.79,1.32,1.69,1.69,0,0,0,1.63,0Z"/><g class="cls-5"><path class="cls-3" d="M126.41,76.59a2.94,2.94,0,0,1-1.43-.38,2.83,2.83,0,0,1-1.45-2.4V39.12a4.15,4.15,0,0,1,.82-2.42,2.84,2.84,0,0,1,1-1,.09.09,0,0,1,.06,0l30-17.32a4.2,4.2,0,0,1,2.07-.53,4,4,0,0,1,2.06.53l30,17.32s0,0,.05,0a2.79,2.79,0,0,1,1,1,4,4,0,0,1,.81,2.42V73.79a2.82,2.82,0,0,1-1.45,2.42,2.9,2.9,0,0,1-2.88,0L157.38,59.14,127.81,76.21A2.6,2.6,0,0,1,126.41,76.59ZM157.33,19.2a2.74,2.74,0,0,0-1.35.35L126,36.9a1.45,1.45,0,0,0-.54.56l0,.07a2.73,2.73,0,0,0-.59,1.69V73.88a1.55,1.55,0,0,0,.79,1.33,1.69,1.69,0,0,0,1.63,0l30.19-17.45,30.18,17.42a1.69,1.69,0,0,0,1.63,0,1.52,1.52,0,0,0,.79-1.32V39.19a2.65,2.65,0,0,0-.59-1.68l0-.08a1.36,1.36,0,0,0-.53-.56l0,0L158.86,19.53a2.71,2.71,0,0,0-1.4-.36h-.05A.09.09,0,0,1,157.33,19.2Z"/></g><g class="cls-5"><path class="cls-3" d="M126.41,84.23a2.94,2.94,0,0,1-1.43-.38,2.83,2.83,0,0,1-1.45-2.4V46.76a4.15,4.15,0,0,1,.82-2.42,2.93,2.93,0,0,1,1-1,.12.12,0,0,1,.06,0l30-17.32a4.1,4.1,0,0,1,2.07-.54,3.9,3.9,0,0,1,2.06.54l30,17.32s0,0,.05,0a2.87,2.87,0,0,1,1,1,4,4,0,0,1,.81,2.42V81.43a2.82,2.82,0,0,1-1.45,2.42,2.9,2.9,0,0,1-2.88,0L157.38,66.78,127.81,83.85A2.6,2.6,0,0,1,126.41,84.23Zm30.92-57.39a2.74,2.74,0,0,0-1.35.35L126,44.54a1.45,1.45,0,0,0-.54.56l0,.08a2.71,2.71,0,0,0-.59,1.68V81.52a1.54,1.54,0,0,0,.79,1.33,1.69,1.69,0,0,0,1.63,0L157.41,65.4l30.18,17.42a1.69,1.69,0,0,0,1.63,0A1.52,1.52,0,0,0,190,81.5V46.83a2.65,2.65,0,0,0-.59-1.68l0-.08a1.36,1.36,0,0,0-.53-.56l0,0L158.86,27.17a2.53,2.53,0,0,0-1.4-.36h-.05A.09.09,0,0,1,157.33,26.84Z"/></g><g class="cls-5"><path class="cls-3" d="M126.41,91.87a2.94,2.94,0,0,1-1.43-.38,2.83,2.83,0,0,1-1.45-2.39V54.4a4.1,4.1,0,0,1,.82-2.41,2.87,2.87,0,0,1,1-1,.12.12,0,0,1,.06,0l30-17.32a4.1,4.1,0,0,1,2.07-.54,4,4,0,0,1,2.06.54l30,17.32s0,0,.05,0a2.81,2.81,0,0,1,1,1,4,4,0,0,1,.81,2.41V89.07a2.82,2.82,0,0,1-1.45,2.42,2.9,2.9,0,0,1-2.88,0L157.38,74.42,127.81,91.49A2.6,2.6,0,0,1,126.41,91.87Zm30.92-57.39a2.86,2.86,0,0,0-1.35.35L126,52.18a1.45,1.45,0,0,0-.54.56l0,.08a2.71,2.71,0,0,0-.59,1.68V89.16a1.54,1.54,0,0,0,.79,1.33,1.69,1.69,0,0,0,1.63,0L157.41,73l30.18,17.42a1.69,1.69,0,0,0,1.63,0,1.52,1.52,0,0,0,.79-1.32V54.47a2.67,2.67,0,0,0-.59-1.68l0-.08a1.42,1.42,0,0,0-.53-.56l0,0L158.86,34.81a2.71,2.71,0,0,0-1.4-.36h-.05A.09.09,0,0,1,157.33,34.48Z"/></g><g class="cls-5"><path class="cls-3" d="M126.41,69a2.94,2.94,0,0,1-1.43-.38,2.83,2.83,0,0,1-1.45-2.4V31.48a4.15,4.15,0,0,1,.82-2.42,2.76,2.76,0,0,1,1-1,.09.09,0,0,1,.06,0l30-17.32a4.2,4.2,0,0,1,2.07-.53,4,4,0,0,1,2.06.53l30,17.32s0,0,.05,0a2.71,2.71,0,0,1,1,1,4,4,0,0,1,.81,2.42V66.15a2.82,2.82,0,0,1-1.45,2.42,2.9,2.9,0,0,1-2.88,0L157.38,51.5,127.81,68.57A2.6,2.6,0,0,1,126.41,69Zm30.92-57.4a2.75,2.75,0,0,0-1.35.36L126,29.26a1.39,1.39,0,0,0-.54.56l0,.07a2.73,2.73,0,0,0-.59,1.68V66.24a1.52,1.52,0,0,0,.79,1.32,1.69,1.69,0,0,0,1.63,0l30.19-17.44,30.18,17.42a1.69,1.69,0,0,0,1.63,0,1.54,1.54,0,0,0,.79-1.33V31.55a2.65,2.65,0,0,0-.59-1.68l0-.08a1.36,1.36,0,0,0-.53-.56l0,0L158.86,11.89a2.71,2.71,0,0,0-1.4-.36h-.05A.12.12,0,0,1,157.33,11.55Z"/></g><path class="cls-3" d="M125.75,18.44s0,0,0,0h0L154.66,1.76h0l1.12-.64a3.35,3.35,0,0,1,3.33,0l1.12.64h0l13.86,8,15,8.66a3.3,3.3,0,0,1,1.68,2.9V56a2.24,2.24,0,0,1-3.36,1.86L125.82,22.29A2.25,2.25,0,0,1,125.75,18.44Z"/><path class="cls-3" d="M13.12,105.15q-6,0-9.57-3.29C1.17,99.66,0,96.5,0,92.41V86.06C0,82,1.17,78.81,3.55,76.62s5.56-3.3,9.57-3.3,7.19,1.1,9.57,3.3,3.54,5.36,3.54,9.44v6.35c0,4.11-1.17,7.25-3.54,9.45S17.12,105.15,13.12,105.15ZM13,99.84a6.94,6.94,0,0,0,5.26-2,7.24,7.24,0,0,0,1.87-5.26V85.86a7.25,7.25,0,0,0-1.87-5.26,6.94,6.94,0,0,0-5.26-2,6.9,6.9,0,0,0-5.23,2,7.27,7.27,0,0,0-1.9,5.26v6.75a7.25,7.25,0,0,0,1.9,5.26A6.9,6.9,0,0,0,13,99.84Z"/><path class="cls-3" d="M82.65,105.15q-6,0-9.57-3.29c-2.37-2.2-3.55-5.36-3.55-9.45V86.06q0-6.16,3.55-9.44t9.57-3.3q6,0,9.57,3.3c2.37,2.19,3.55,5.36,3.55,9.44v6.35c0,4.11-1.18,7.25-3.55,9.45S86.66,105.15,82.65,105.15Zm.13-5.31a6.94,6.94,0,0,0,5.26-2,7.28,7.28,0,0,0,1.87-5.26V85.86A7.29,7.29,0,0,0,88,80.6a8,8,0,0,0-10.49,0,7.27,7.27,0,0,0-1.9,5.26v6.75a7.25,7.25,0,0,0,1.9,5.26A7,7,0,0,0,82.78,99.84Z"/><path class="cls-3" d="M31.07,105.06V73.17H44.64a12.77,12.77,0,0,1,5.33,1,8.32,8.32,0,0,1,3.54,3,8,8,0,0,1,1.25,4.5v.54a7.29,7.29,0,0,1-1.4,4.64,8.56,8.56,0,0,1-3.44,2.59v.87a3.81,3.81,0,0,1,2.83,1.25,4.49,4.49,0,0,1,1,3V105H47.88V95.49a2.66,2.66,0,0,0-.55-1.77A2.3,2.3,0,0,0,45.46,93H37.19v12H31.07Zm5.86-17.37h7.18a4.6,4.6,0,0,0,3.34-1.16,4.1,4.1,0,0,0,1.2-3.07V83a4.1,4.1,0,0,0-1.17-3.08,4.66,4.66,0,0,0-3.37-1.15H36.93Z"/><path class="cls-3" d="M58.84,105.29V73.42H65v31.84H58.84Z"/><path class="cls-3" d="M100.86,105.26V73.42h11.53l6.26,27.76h.81V73.42h5.85v31.84H113.87L107.54,77.5h-.82v27.76Z"/><path class="cls-3" d="M149.77,105V77.75h-9.68V73.17h24.45v4.58h-9.93V105Z"/><path class="cls-3" d="M169.38,105.26V73.17h20.37v4.58H174.47v9.17h13.76v4.33H174.47v9.43h15.28v4.58Z"/><path class="cls-3" d="M207.16,105.15c-3.85,0-6.92-1.09-9.17-3.27s-3.4-5.33-3.4-9.45V86.31c0-4.13,1.14-7.26,3.4-9.46s5.32-3.27,9.17-3.27,6.72,1.07,8.79,3.17,3.1,5,3.1,8.62v.28h-4.84v-.41A7.75,7.75,0,0,0,212.45,80a6.68,6.68,0,0,0-5.33-2,7.35,7.35,0,0,0-5.66,2.2,8.51,8.51,0,0,0-2,6.06v6.3a8.66,8.66,0,0,0,2,6,7.38,7.38,0,0,0,5.66,2.2,6.63,6.63,0,0,0,5.33-2,7.75,7.75,0,0,0,1.76-5.21v-.76h4.84v.63A11.87,11.87,0,0,1,216,102C213.88,104.08,211,105.15,207.16,105.15Z"/><path class="cls-3" d="M224.14,105V73.17H229V86.92h13.24V73.17h4.84V105h-4.84V91.25H229V105h-4.84Z"/><path class="cls-3" d="M252.16,105.29V73.42h9.46L270.27,102H271V73.42h4.84v31.84h-9.52l-8.59-28.78H257v28.78h-4.84Z"/><path class="cls-3" d="M280.94,105.29V73.42h4.84v31.84h-4.84Z"/><path class="cls-3" d="M290.62,105.29V73.42h4.84V86.67h.72l11.66-13.25h6.56L300,89.11l14.88,16.15H308.3L296.19,91.51h-.73v13.75h-4.84Z"/></g></g></svg>