<svg xmlns="http://www.w3.org/2000/svg" viewBox="0 0 331.62 117.57"><defs><style>.cls-1{fill:#084b82;}.cls-2{fill:#2c9cd4;}</style></defs><g id="Camada_2" data-name="Camada 2"><g id="Camada_1-2" data-name="Camada 1"><path class="cls-1" d="M93.6,46.42a44.25,44.25,0,0,0-68.23-37c-.56.35-.9.42-1.21-.22a2.51,2.51,0,0,0-.41-.61c-.44-.48-.25-.75.23-1.06a46.58,46.58,0,0,1,10.12-5A46.53,46.53,0,0,1,81.65,13.06,44.59,44.59,0,0,1,95.14,38.4C97.59,53.16,93.88,66.3,84,77.53A44.48,44.48,0,0,1,57.5,92.25a45.83,45.83,0,0,1-34.86-7.72c-.65-.44-.62-.7-.05-1.17,1.06-.9,1-.91,2.17-.16,8.16,5.35,17.12,8.08,26.88,7.36C70,89.2,82.89,79.86,90.33,63.07A41.43,41.43,0,0,0,93.6,46.42Z"/><path class="cls-1" d="M203.27,80.84c-.52,2-1,4-1.55,5.93a12,12,0,0,1-.91,2.6,2.07,2.07,0,0,1-3.71.13,7.93,7.93,0,0,1-.88-2.3c-.45-1.72-.87-3.45-1.31-5.16a1.68,1.68,0,0,0-.49-1c-.33,2.37-.64,4.59-1,6.82-.13,1-.31,1.94-.37,2.91-.06.82-.35,1.18-1.23,1.11-1.12-.1-1.21.18-1-1.14q.9-6.87,1.72-13.76c.09-.83.37-1.14,1.24-1.1,2,.1,1.55-.28,2,1.65.76,3.09,1.48,6.19,2.25,9.28.15.56.2,1.48.83,1.5s.66-.91.83-1.46c1-3.28,1.7-6.64,2.51-10,.19-.77.5-1,1.29-1,1.69.06,1.69,0,1.9,1.67.58,4.5,1.14,9,1.75,13.48.09.68-.1.85-.75.84-1.42,0-1.4,0-1.59-1.4q-.66-4.8-1.34-9.6Z"/><path class="cls-1" d="M254.65,79.8v3.28c0,2.57,0,5.15,0,7.72,0,.68-.2.9-.88.88-1.71-.06-1.46.14-1.46-1.49,0-4.29,0-8.57,0-12.86,0-.75.22-1,1-1a3,3,0,0,1,3.43,2.17c.93,2.33,2.06,4.57,3.12,6.85a1.68,1.68,0,0,0,.5.82,1.54,1.54,0,0,0,.13-1c0-2.63.06-5.27,0-7.9,0-1.11.63-.92,1.29-1s1.08.11,1.07,1q-.07,6.71,0,13.41c0,.8-.27.92-1,1a1.7,1.7,0,0,1-1.92-1.21c-1.48-3.33-3.07-6.6-4.62-9.9-.13-.27-.26-.55-.4-.82Z"/><path class="cls-1" d="M125.6,86.27c.22-.29.11-.61.12-.9,0-2.69,0-5.38,0-8.07,0-1.13.65-.92,1.31-1s1,.1,1,.93Q128,84,128,90.76c0,.75-.24.89-.93.94a1.75,1.75,0,0,1-2-1.24c-1.48-3.32-3.07-6.6-4.62-9.89a2.31,2.31,0,0,0-.55-.79c0,.31,0,.62,0,.93,0,3.34,0,6.67,0,10,0,1-.49,1-1.18,1s-1.21.09-1.2-1c.06-4.47,0-8.94,0-13.4,0-.76.23-1,1-1A3,3,0,0,1,122,78.48c.93,2.36,2.08,4.63,3.15,6.93C125.24,85.7,125.29,86.05,125.6,86.27Z"/><path class="cls-1" d="M158.35,79.78v4.1c0,2.27,0,4.53,0,6.8,0,.84-.26,1.11-1,1a.61.61,0,0,0-.27,0c-.74.11-1-.17-1-1,.06-1.09,0-2.2,0-3.3,0-3.34,0-6.67,0-10,0-.76.17-1,1-1.09a2.94,2.94,0,0,1,3.35,2.15c.94,2.36,2.09,4.63,3.15,6.94.14.3.3.59.47.94.26-.29.17-.57.17-.82,0-2.75.05-5.51,0-8.26,0-1,.49-.93,1.14-.92s1.19-.1,1.18.89c-.05,4.53,0,9.06,0,13.59,0,.72-.27.82-.91.87a1.73,1.73,0,0,1-2-1.23c-1.47-3.3-3.05-6.55-4.58-9.82l-.45-.89Z"/><path class="cls-1" d="M276.4,84c0,2.24,0,4.47,0,6.7,0,.7-.16,1-.91,1-1.8-.07-1.55.21-1.57-1.57,0-1.38,0-2.75,0-4.13,0-.65-.23-.86-.86-.85-1.35,0-2.7,0-4,0-.67,0-.92.2-.91.89,0,1.6,0,3.19,0,4.78,0,.69-.21.9-.9.88-1.86-.06-1.57.19-1.58-1.54,0-4.26,0-8.51,0-12.77,0-1,.45-1.05,1.22-1s1.37-.07,1.3,1c-.1,1.4,0,2.82-.05,4.22,0,.88.29,1.1,1.1,1.06,1.22-.06,2.45-.06,3.68,0,.78,0,1.08-.17,1.05-1-.07-1.47,0-2.94,0-4.41,0-.66.18-.92.88-.9,1.9,0,1.58-.12,1.59,1.54C276.41,79.93,276.4,82,276.4,84Z"/><path class="cls-1" d="M224.7,81.66c0,1.5,0,3,0,4.5a3.41,3.41,0,1,0,6.8,0c0-3.06.05-6.12,0-9.18,0-.89.36-1,1.08-1s1.34-.2,1.32.94c-.07,3,0,6,0,9a5.75,5.75,0,0,1-5.71,5.85,5.68,5.68,0,0,1-5.77-5.76c0-3.06,0-6.12,0-9.18,0-.64.21-.86.85-.84,1.8,0,1.46-.07,1.48,1.46C224.71,78.91,224.7,80.28,224.7,81.66Z"/><path class="cls-1" d="M298.6,82.79c0,1.84,0,3.67,0,5.51,0,.68.19.91.88.9,1.65,0,3.31,0,5,0,.73,0,.95.26.93,1,0,1.87.08,1.52-1.5,1.53-2.33,0-4.66,0-7,0-.58,0-.81-.16-.81-.77q0-6.9,0-13.78c0-.6.21-.8.8-.79,2.13,0,1.7-.14,1.73,1.67C298.62,79.61,298.6,81.2,298.6,82.79Z"/><path class="cls-1" d="M135.21,76.08c1.47,0,2.95,0,4.41,0,1,0,.82.57.83,1.14s.1,1.14-.81,1c-.66-.07-1.35,0-2,0s-1.06.19-1,1c0,3.7,0,7.41,0,11.11,0,.4.23,1-.23,1.18a3.08,3.08,0,0,1-1.9,0c-.39-.11-.23-.59-.23-.9,0-3.77,0-7.53,0-11.3,0-.87-.21-1.21-1.12-1.12s-1.59,0-2.38,0c-.53,0-.67-.19-.69-.69-.05-1.47-.07-1.47,1.4-1.47Z"/><path class="cls-1" d="M239.31,84.86c0-1.93,0-3.86,0-5.79,0-.62-.18-.88-.84-.84-.85,0-1.71,0-2.57,0-.54,0-.74-.15-.75-.72,0-1.45,0-1.45,1.41-1.45,2.7,0,5.39,0,8.08,0,1,0,.82.61.85,1.19s0,1.09-.84,1-1.47,0-2.2,0-.78.34-.78.9c0,3.7,0,7.41,0,11.11,0,.25,0,.49,0,.74,0,.47-.2.68-.66.64h-.1c-1.62.08-1.62.08-1.62-1.52Z"/><path class="cls-1" d="M145.25,107.31c0-1,0-2,0-2.94a3.27,3.27,0,0,1,2-3.13,3.22,3.22,0,0,1,3.68.54c.43.38.65.41,1.09,0a3.28,3.28,0,0,1,3.66-.68,3.32,3.32,0,0,1,2.22,3.1c.08,2.11,0,4.23,0,6.34,0,.58-.31.63-.76.63s-.77-.07-.77-.63c0-1.69,0-3.37,0-5.05a7.76,7.76,0,0,0-.09-1.37,1.9,1.9,0,0,0-2.07-1.67,1.86,1.86,0,0,0-1.82,1.92c0,2,0,3.91,0,5.87,0,.53,0,1-.74.94s-.79-.33-.78-.9c0-1.5,0-3,0-4.5a4.91,4.91,0,0,0-.33-2,2,2,0,0,0-2.23-1.35,1.86,1.86,0,0,0-1.6,1.94c0,2,0,3.91,0,5.87,0,.57-.06.9-.78.91s-.74-.41-.74-.94c0-1,0-2,0-2.94Z"/><path class="cls-1" d="M107.62,105.94c0-1.44,0-2.88,0-4.32,0-.27-.14-.69.3-.75s.88-.23,1.1.18.58.3.91.19a6.84,6.84,0,0,1,3-.42,2.4,2.4,0,0,1,2.42,2.5c.05,2.35,0,4.71,0,7.07,0,.71-.41.68-.89.69s-.86-.09-.85-.74c0-2,0-4.11,0-6.16,0-1.47-.42-1.84-1.89-1.66l-.27,0c-2.13.39-2.15.41-2.15,2.56,0,1.72,0,3.43,0,5.15,0,.67-.27.81-.88.82s-.87-.18-.85-.83C107.64,108.82,107.62,107.38,107.62,105.94Z"/><path class="cls-1" d="M143.83,106.09c0,1.44,0,2.88,0,4.31,0,.28.14.7-.33.73s-.88.25-1-.27-.5-.36-.82-.22a9.31,9.31,0,0,1-2.65.73c-1.53.16-2.43-.46-2.48-2-.09-2.6,0-5.21,0-7.81,0-.73.55-.48.93-.52s.72.13.71.66c0,2,0,3.92,0,5.88,0,.34,0,.68,0,1,0,.91.3,1.17,1.17,1.1a8.57,8.57,0,0,0,2.53-.79c.45-.19.39-.58.39-.94,0-2,0-4,0-6,0-.58,0-1,.8-1s.86.4.85,1C143.82,103.39,143.83,104.74,143.83,106.09Z"/><path class="cls-1" d="M168.86,106.09c0-1.44,0-2.88,0-4.32,0-.29-.08-.67.38-.69s.87-.22,1,.35.44.35.74.23a11.84,11.84,0,0,1,2.55-.74c1.62-.27,2.62.44,2.67,2.06.07,2.5,0,5,0,7.52,0,.72-.43.65-.91.67s-.78-.13-.77-.71c0-2.2,0-4.41,0-6.61,0-1.2-.33-1.46-1.52-1.22l-.18,0c-2.3.5-2.37.59-2.37,2.92,0,1.53,0,3.06,0,4.59,0,.61,0,1-.85,1s-.81-.39-.8-1C168.87,108.84,168.86,107.46,168.86,106.09Z"/><path class="cls-1" d="M247.33,83.93c0-2.23,0-4.46,0-6.69,0-.67.16-.92.86-.91,2,.06,1.66-.15,1.67,1.67,0,4.19,0,8.38,0,12.56,0,.88-.23,1.25-1.12,1.11a1.69,1.69,0,0,0-.55,0c-.67.09-.9-.16-.89-.86C247.35,88.52,247.33,86.22,247.33,83.93Z"/><path class="cls-1" d="M171.41,84c0,2.23,0,4.47,0,6.7,0,.69-.14,1-.9,1-1.84-.08-1.61.25-1.61-1.61,0-4.23,0-8.46,0-12.68,0-1.24.68-1,1.39-1.06s1.2.13,1.17,1.08C171.35,79.61,171.41,81.82,171.41,84Z"/><path class="cls-1" d="M249.72,111.42a13.44,13.44,0,0,1-2.45-.31c-.62-.13-.74-.47-.64-1.06s.51-.45.89-.37a9.48,9.48,0,0,0,2.55.19c.58,0,1.05-.23,1.1-.88s.22-1.46-.7-1.77c-.61-.2-1.23-.37-1.84-.56-1.67-.52-2.14-1.31-2-3.31.14-1.61.75-2.22,2.43-2.45a11.06,11.06,0,0,1,2.93.17c.6.08.57.47.53.94s-.34.58-.79.52a18.05,18.05,0,0,0-2.2-.14c-.66,0-1.21.24-1.27,1s0,1.49.92,1.76c.68.21,1.36.39,2,.63,1.47.54,1.84,1.37,1.58,3.44a2.17,2.17,0,0,1-2.26,2.09Z"/><path class="cls-1" d="M195.18,111.42a14.88,14.88,0,0,1-2.37-.33c-.62-.14-.63-.48-.56-1s.44-.5.84-.41a9.14,9.14,0,0,0,2.56.2c.6,0,1.09-.22,1.14-.92s.17-1.46-.75-1.75c-.61-.2-1.23-.36-1.84-.56-1.69-.53-2.08-1.25-1.88-3.52.12-1.4.73-2,2.33-2.21a10.87,10.87,0,0,1,3,.17c.61.08.56.5.51,1s-.28.56-.74.51a10.64,10.64,0,0,0-2.46-.14c-.57.08-1,.29-1,.94s-.16,1.41.66,1.72,1.52.48,2.26.75c1.49.55,1.85,1.38,1.56,3.53a2.14,2.14,0,0,1-2.24,2Z"/><path class="cls-1" d="M119.31,111.4a11.76,11.76,0,0,1-2.36-.32c-.74-.16-.56-.68-.5-1.15s.48-.31.77-.26a11.26,11.26,0,0,0,2.46.21c.69,0,1.21-.22,1.3-1s0-1.48-.93-1.74c-.56-.15-1.12-.31-1.67-.48-1.69-.53-2.14-1.34-1.94-3.51.14-1.42.8-2,2.43-2.25a12.17,12.17,0,0,1,2.83.15c.74.09.64.59.61,1.09s-.47.39-.8.38a12.66,12.66,0,0,0-2.38-.12c-.55.08-1,.23-1.07.91s-.19,1.47.72,1.78c.75.26,1.51.49,2.27.73a1.91,1.91,0,0,1,1.5,2c0,.06,0,.12,0,.19C122.66,110.61,121.87,111.43,119.31,111.4Z"/><path class="cls-1" d="M234.27,106.19c0-.7,0-1.41,0-2.11a3,3,0,0,1,2.81-3.07,12.45,12.45,0,0,1,3.11,0c.79.07.71.57.68,1.11,0,.7-.51.43-.87.4a10,10,0,0,0-2.38,0,1.54,1.54,0,0,0-1.52,1.64q-.06,2,0,4a1.49,1.49,0,0,0,1.6,1.63,22.82,22.82,0,0,0,2.48,0c.35,0,.7-.1.7.43s.22.91-.43,1a8.27,8.27,0,0,1-4.44-.2,2.67,2.67,0,0,1-1.73-2.58c0-.76,0-1.53,0-2.3Z"/><path class="cls-1" d="M124.71,106.27c0-1,0-1.9,0-2.85,0-.64-.11-1-.84-.9-.52.07-.86,0-.85-.72s.26-.82.82-.74,1-.2.87-.88c0-.3,0-.61,0-.91,0-.59,0-1,.8-1s.86.38.85,1c0,1.73,0,1.72,1.72,1.76.44,0,.94-.13.9.65,0,.62-.25.83-.88.83-1.75,0-1.75,0-1.75,1.81v3.85c0,1.65.18,1.85,1.79,1.61.67-.1.79.12.83.68s-.08.63-.49.72a5.75,5.75,0,0,1-1.54.19c-1.52,0-2.16-.68-2.22-2.2a1.09,1.09,0,0,1,0-.18Z"/><path class="cls-1" d="M178.36,106.22c0-.94,0-1.89,0-2.84,0-.6-.12-.94-.8-.86-.49,0-.88,0-.89-.68s.3-.86.89-.78.86-.25.8-.86c0-.3,0-.61,0-.92-.06-.65.08-1,.87-1s.85.4.8,1v.09c0,1.67,0,1.67,1.69,1.7.44,0,.92-.13.92.64s-.34.84-1,.83c-1.65,0-1.65,0-1.65,1.64v4.13c0,1.54.18,1.75,1.69,1.52.68-.11.88.1.91.72a.55.55,0,0,1-.46.66,4.85,4.85,0,0,1-2.45.09,1.75,1.75,0,0,1-1.34-1.85c0-1.07,0-2.15,0-3.22Z"/><path class="cls-1" d="M221.77,101.79a3.43,3.43,0,0,1,2.16-.88c.31,0,.78-.18.71.38s.2,1-.54,1.18a4.74,4.74,0,0,0-1,.24,2,2,0,0,0-1.33,2c0,1.89,0,3.79,0,5.68,0,.68-.28.8-.88.81s-.77-.26-.77-.82c0-2.75,0-5.5,0-8.25,0-.37-.25-.93.42-1C221.14,101,221.68,101,221.77,101.79Z"/><path class="cls-1" d="M131.89,102a3,3,0,0,1,2.25-1.09c.33,0,.76-.14.7.4s.28,1-.52,1.16a3.54,3.54,0,0,0-1,.24,2,2,0,0,0-1.27,1.93c0,1.87,0,3.74,0,5.6,0,.63-.1,1-.85.94s-.81-.29-.8-.89c0-2.78,0-5.57,0-8.35,0-.37-.14-.86.5-.89C131.45,101,132,100.94,131.89,102Z"/><path class="cls-1" d="M106,105.91c0,1.47,0,2.94,0,4.41,0,.63-.24.77-.81.77s-.92-.06-.9-.79c0-2.41,0-4.83,0-7.24,0-.57-.06-1-.78-.91-.5,0-.48-.33-.48-.68s0-.61.52-.67c2.28-.28,2.41-.18,2.41,2.08Z"/><path class="cls-1" d="M245.09,106c0,1.43,0,2.87,0,4.3,0,.66-.3.75-.84.76s-.85-.09-.85-.75c0-2.41,0-4.82,0-7.23,0-.6-.06-1-.82-1-.51,0-.45-.37-.45-.7s0-.64.45-.63h.18c2.3-.17,2.3-.17,2.3,2.11Z"/><path class="cls-1" d="M20.41,107.1h1.75c.2,0,.46,0,.48.28s-.22.4-.48.4c-.89,0-1.78,0-2.66,0-.6,0-.85.22-.83.79,0,.13,0,.25,0,.37a5.12,5.12,0,0,0,0,2.09c.3.72,1.24.24,1.89.42a3,3,0,0,1,2.36,2.89,3.11,3.11,0,0,1-2.28,3.08,4.39,4.39,0,0,1-2.88-.22c-.17-.07-.35-.16-.29-.39s.29-.23.51-.16a3.9,3.9,0,0,0,2.16.24A2.33,2.33,0,0,0,22,114.52,2.25,2.25,0,0,0,20.12,112,4.45,4.45,0,0,0,19,111.9c-1.21,0-1.21,0-1.15-1.26.06-.94.16-1.89.19-2.84,0-.56.24-.75.78-.71S19.89,107.09,20.41,107.1Z"/><path class="cls-1" d="M31,107.09c-.67,1.55-1.29,2.91-1.87,4.29a51,51,0,0,0-2,5.5.63.63,0,0,1-.9.49c-.52-.19-.09-.53,0-.74,1.12-2.64,2.25-5.28,3.42-7.91.32-.71.25-1-.59-.94-1.1,0-2.21,0-3.31,0-.25,0-.6.08-.62-.34s.36-.34.6-.34Z"/><path class="cls-1" d="M2.28,108.92l2.15-.83c.11,0,.21-.14.32-.19.44-.17.64-1,1.15-.71s.19,1,.19,1.45q0,3.94,0,7.89c0,.31.21.83-.39.84s-.43-.5-.43-.81c0-2.39,0-4.78,0-7.16,0-.78-.17-1-.93-.65A2.38,2.38,0,0,1,2.28,108.92Z"/><path class="cls-1" d="M150.22,72.4c0,.28-.24.32-.42.4l-4.09,1.82c-.93.42-.86-.5-1.16-.88s.06-.62.39-.77l3.63-1.71A1.21,1.21,0,0,1,150.22,72.4Z"/><path class="cls-1" d="M331.62,90.17A1.69,1.69,0,0,1,330,91.83a1.66,1.66,0,0,1-1.62-1.64,1.64,1.64,0,0,1,1.55-1.61A1.69,1.69,0,0,1,331.62,90.17Z"/><path class="cls-1" d="M292.39,91.86a8.76,8.76,0,0,1-1.18,2.78c-.23.43-.74.17-1.1.12s-.21-.44-.18-.68c.11-.85.26-1.69.38-2.53.09-.64.23-1.29,1.07-1.19S292.37,91.07,292.39,91.86Z"/><path class="cls-1" d="M16.6,105.2a1.62,1.62,0,0,1-.38-.06c-.34-.14-1-.06-.89-.54s.6,0,.91,0a1.51,1.51,0,0,0,1.85-.94,1.38,1.38,0,0,0-.93-1.75,7.56,7.56,0,0,1-.91-.43A1.72,1.72,0,0,1,15.69,99a2.12,2.12,0,0,1,2.66-.46c.09.07.22.13.18.28s-.21.2-.36.14a2.26,2.26,0,0,0-1-.18,1.19,1.19,0,0,0-.62,2.21c.34.21.73.33,1.08.51a1.92,1.92,0,0,1,1.14,2.26A2.16,2.16,0,0,1,16.6,105.2Z"/><path class="cls-1" d="M258.73,99.83a2.89,2.89,0,0,1-1.37-.48,1.16,1.16,0,0,0-1.59.07.42.42,0,0,1-.7,0,.54.54,0,0,1-.06-.8,1.92,1.92,0,0,1,2.61-.5c.64.32,1.25.73,1.91,0,.24-.25.44,0,.63.16s.24.38.08.63A1.73,1.73,0,0,1,258.73,99.83Z"/><path class="cls-1" d="M106.36,97.84a1.09,1.09,0,0,1-1.17,1.06,1.12,1.12,0,0,1-1.2-1.12,1.19,1.19,0,1,1,2.37.06Z"/><path class="cls-1" d="M245.5,97.71a1.13,1.13,0,0,1-1.14,1.19,1.11,1.11,0,0,1-1.22-1.09,1.18,1.18,0,0,1,2.36-.1Z"/><path class="cls-2" d="M39.29,33.37C37.56,27.86,34.72,23,30,19.49c-4.44-3.29-9.34-4.24-14.58-2.26-5.5,2.07-9,6.32-11.54,11.41A38.67,38.67,0,0,0,0,46.68,37.15,37.15,0,0,0,1.92,58.61c1.84,5.54,4.69,10.42,9.47,14a15.34,15.34,0,0,0,18.7-.18A26.14,26.14,0,0,0,38.46,60.9,40.46,40.46,0,0,0,39.29,33.37ZM30,71.58a16.29,16.29,0,0,1-8.52,3.34,5.65,5.65,0,0,1-4.56-1.66A25.57,25.57,0,0,1,10.2,62.84,47.4,47.4,0,0,1,7.37,46a45.19,45.19,0,0,1,4.42-20.45,20.69,20.69,0,0,1,6.3-7.77A3.69,3.69,0,0,1,20.31,17a15.81,15.81,0,0,1,11,4.52c4.38,4.06,6.83,9.22,8.2,14.92a39.64,39.64,0,0,1-.71,21.57C37.15,63.38,34.45,68.08,30,71.58Z"/><path class="cls-1" d="M116.05,90.53c-.79-2.73-1.57-5.46-2.36-8.19a34.72,34.72,0,0,0-1.58-4.88,2.38,2.38,0,0,0-2.27-1.57,2.63,2.63,0,0,0-2.48,1.45,11.09,11.09,0,0,0-.87,2.31l-2.93,10.7c-.39,1.43-.38,1.39,1.15,1.43a1,1,0,0,0,1.18-.92c.19-1,.51-1.89.71-2.84a.81.81,0,0,1,1-.73c1.49,0,3,0,4.49,0a.8.8,0,0,1,.93.76c.2.89.52,1.76.69,2.66s.55,1.25,1.29,1.06C116.4,91.77,116.4,91.77,116.05,90.53Zm-4.54-5.25c-.58,0-1.16,0-1.74,0-2.45,0-2.44,0-1.83-2.41.3-1.19.59-2.38.9-3.56.13-.51.29-1,1-1.06s.74.56.87,1c.47,1.77.9,3.55,1.39,5.32C112.19,85.12,112.06,85.3,111.51,85.28Z"/><path class="cls-1" d="M185,80.91a5.57,5.57,0,0,0-5.21-4.74,5.71,5.71,0,0,0-5.87,3.92,11.38,11.38,0,0,0-.31,3.61c0,1.06,0,1.83,0,2.59a5.79,5.79,0,0,0,5.24,5.55A5.62,5.62,0,0,0,185,87.11,20.14,20.14,0,0,0,185,80.91Zm-2.23,5.52a3.4,3.4,0,0,1-3.5,3.38A3.35,3.35,0,0,1,176,86.32c-.05-1.56,0-3.12,0-4.68a3.26,3.26,0,0,1,3.31-3.42,3.29,3.29,0,0,1,3.48,3.35c0,.79,0,1.59,0,2.39h0C182.79,84.78,182.83,85.61,182.78,86.43Z"/><path class="cls-1" d="M153.56,84.13c0-.77,0-1.41,0-2.06a5.75,5.75,0,1,0-11.5-.32c-.07,1.5-.06,3,0,4.51A5.75,5.75,0,0,0,153.23,88,11.83,11.83,0,0,0,153.56,84.13Zm-2.38,2.37A3.34,3.34,0,0,1,148,89.81,3.24,3.24,0,0,1,144.52,87a21,21,0,0,1,0-6,3.14,3.14,0,0,1,3.64-2.71,3.2,3.2,0,0,1,3,3.14c.06.88,0,1.77,0,2.66h0C151.19,84.85,151.23,85.68,151.18,86.5Z"/><path class="cls-1" d="M220.54,84h0c0-.8,0-1.59,0-2.39a5.73,5.73,0,0,0-11.46.18q0,2.16,0,4.32a5.74,5.74,0,0,0,11.47.1C220.56,85.5,220.54,84.77,220.54,84Zm-2.43,3a3.31,3.31,0,0,1-3.4,2.75,3.25,3.25,0,0,1-3.22-2.94,31.77,31.77,0,0,1,0-5.77,3.14,3.14,0,0,1,3.24-2.88,3.2,3.2,0,0,1,3.39,2.72,20.21,20.21,0,0,1,.12,3A20.18,20.18,0,0,1,218.11,87.06Z"/><path class="cls-1" d="M290.19,84.4c0-1.08,0-1.88,0-2.67a5.73,5.73,0,0,0-11.45,0c0,1.5,0,3,0,4.5a5.73,5.73,0,0,0,11.33,1.09A15,15,0,0,0,290.19,84.4Zm-2.42,2.49a3.22,3.22,0,0,1-3.33,2.92,3.33,3.33,0,0,1-3.31-3A22.4,22.4,0,0,1,281,84a24,24,0,0,1,.09-2.93,3.23,3.23,0,0,1,3.27-2.86A3.12,3.12,0,0,1,287.77,81,23.86,23.86,0,0,1,287.77,86.89Z"/><path class="cls-1" d="M316.36,90.81c0-2.42,0-4.84,0-7.26s0-5,0-7.53c0-.84-.49-.76-1-.75s-1.08-.14-1,.72c0,1.1,0,2.21,0,3.31,0,.66-.23.88-.87.74a9.23,9.23,0,0,0-2.92-.15,3,3,0,0,0-2.89,2.82,41.63,41.63,0,0,0,0,6.7A2.75,2.75,0,0,0,310.37,92a5.22,5.22,0,0,0,3.5-.85c.24-.15.55-.45.68.1.22.91.93.5,1.42.49S316.35,91.16,316.36,90.81Zm-2.72-1.45a4.49,4.49,0,0,1-2.94.44,1.16,1.16,0,0,1-1.06-1.2c0-1.77-.06-3.54,0-5.31a1.61,1.61,0,0,1,1.8-1.67c.79,0,1.58.18,2.37.26.46.05.5.36.5.72v2.94c0,.88,0,1.77,0,2.66A1.16,1.16,0,0,1,313.64,89.36Z"/><path class="cls-1" d="M326.88,91c0-1.23,0-2.45,0-4a42.45,42.45,0,0,0-.12-4.41,2.83,2.83,0,0,0-2.23-2.5,11.38,11.38,0,0,0-4.65,0c-.65.1-.44.54-.39.91s0,.85.62.77a20.16,20.16,0,0,1,2.19-.16c2.08,0,2.68.67,2.56,2.74,0,.53-.24.69-.73.68-.83,0-1.65,0-2.48,0-2.85.05-4.11,1.69-3.43,4.48a2.58,2.58,0,0,0,2.51,2.17,8.55,8.55,0,0,0,3.72-.37c.29-.11.49-.24.69.22.27.62.92.31,1.39.28S326.87,91.25,326.88,91Zm-2-2.26a.65.65,0,0,1-.37.49,4.74,4.74,0,0,1-2.07.65c-1.12,0-1.69-.46-1.73-1.53s.44-1.57,1.62-1.61h1C324.86,86.68,325.21,87.14,324.85,88.69Z"/><path class="cls-1" d="M218.42,103.16a2.31,2.31,0,0,0-2.56-2.32,5.13,5.13,0,0,0-2.72.71c-.17.1-.46.51-.58-.06s-.72-.45-1.12-.43-.34.5-.34.79c0,2.14,0,4.28,0,6.43s0,4.16,0,6.24c0,.33-.34,1,.43.94s1.33,0,1.2-1a16.47,16.47,0,0,1,0-2.11c0-1.23,0-1.21,1.19-1.08a12.39,12.39,0,0,0,1.92.08,2.48,2.48,0,0,0,2.59-2.46A54,54,0,0,0,218.42,103.16Zm-1.6,5.34a1.24,1.24,0,0,1-1.34,1.31,19.49,19.49,0,0,1-2.28-.2c-.37,0-.48-.3-.48-.65q0-2.47,0-4.95a.9.9,0,0,1,.46-.82,5,5,0,0,1,1.31-.65c1.65-.5,2.35,0,2.36,1.75V106h0C216.83,106.85,216.85,107.67,216.82,108.5Z"/><path class="cls-1" d="M260.93,110.54c0-1.1,0-2.2,0-3.3h0c0-1.1,0-2.2,0-3.3a2.71,2.71,0,0,0-2.63-3,12.43,12.43,0,0,0-3.55.19c-.66.09-.67.46-.61,1s.43.55.85.48a10.22,10.22,0,0,1,2.92-.14,1.37,1.37,0,0,1,1.35,1.44c0,.31,0,.62,0,.92.07.63-.17.88-.82.86a12.57,12.57,0,0,0-2.74.09A2,2,0,0,0,254,107a4.1,4.1,0,0,0,.06,3.29,1.93,1.93,0,0,0,1.42,1.06,5.13,5.13,0,0,0,3.29-.45c.31-.14.56-.43.81.17.16.4.71.22,1.09.16S260.93,110.8,260.93,110.54Zm-2.55-1a5.26,5.26,0,0,1-1.41.33c-1.25.13-1.68-.33-1.6-1.57a1.06,1.06,0,0,1,1.06-1.14c.42,0,.85,0,1.27-.06h0a1.31,1.31,0,0,1,.28,0c.44.12,1.1-.32,1.28.44C259.51,108.71,259.27,109.25,258.38,109.59Z"/><path class="cls-1" d="M166.2,109.57a10.34,10.34,0,0,1-2.54.32c-1.6,0-2.11-.58-2.15-2.19,0-.62.16-.92.82-.88s1.35,0,2,0H165c2.21,0,2.21,0,2.17-2.24,0-2.82-1.74-4.17-4.54-3.62A2.9,2.9,0,0,0,160,103.7a19.58,19.58,0,0,0,0,5.13,2.57,2.57,0,0,0,1.68,2.23,7.63,7.63,0,0,0,5-.12c.61-.18.25-.65.22-1S166.57,109.49,166.2,109.57Zm-3.62-7a2.37,2.37,0,0,1,2.36.21c.7.53.61,1.35.62,2.11,0,.57-.41.51-.78.52s-.85,0-1.28,0a1.69,1.69,0,0,1-.55,0c-.48-.14-1.25.43-1.42-.5A2.06,2.06,0,0,1,162.58,102.52Z"/><path class="cls-1" d="M227.81,106.83c.7,0,1.41,0,2.11,0,3,0,3.18-.26,2.66-3.25a3.1,3.1,0,0,0-3.37-2.72c-2,0-3.32.84-3.69,2.59a12.55,12.55,0,0,0-.07,2.74c0,.77,0,1.54,0,2.3a2.73,2.73,0,0,0,1.75,2.58,7.43,7.43,0,0,0,4.86-.12c.63-.18.33-.7.28-1.08s-.39-.33-.7-.27a12.48,12.48,0,0,1-2.36.29c-1.77,0-2.31-.59-2.26-2.33C227.05,107,227.28,106.81,227.81,106.83Zm-.67-3.2a1.78,1.78,0,0,1,2-1.3,1.7,1.7,0,0,1,1.88,1.25c.44,1.48.23,1.78-1.27,1.78h-1.28C227,105.36,226.75,105,227.14,103.63Z"/><path class="cls-1" d="M269.91,106.16c0-.46,0-.92,0-1.37a3.94,3.94,0,0,0-4.15-3.78,3.88,3.88,0,0,0-3.75,4c0,.77,0,1.53,0,2.3a3.94,3.94,0,0,0,3.47,4,4,4,0,0,0,4.29-3A9,9,0,0,0,269.91,106.16Zm-1.82,2.21a2.24,2.24,0,0,1-2.48,1.49,2.58,2.58,0,0,1-2.07-2.27,10.29,10.29,0,0,1,0-1.47,4.33,4.33,0,0,1,.27-2.25,2.36,2.36,0,0,1,2.14-1.48,2.2,2.2,0,0,1,2.12,1.5A6.34,6.34,0,0,1,268.09,108.37Z"/><path class="cls-1" d="M191.43,104.75a3.9,3.9,0,0,0-3.52-3.73,3.84,3.84,0,0,0-4.22,3,10.37,10.37,0,0,0,0,4.19,3.86,3.86,0,0,0,4,3.09,3.9,3.9,0,0,0,3.71-3.44,14.6,14.6,0,0,0,0-1.75h0C191.43,105.67,191.45,105.21,191.43,104.75Zm-1.63,3.35a2.45,2.45,0,0,1-2.31,1.78,2.38,2.38,0,0,1-2.26-1.82,7.61,7.61,0,0,1,0-3.82,2.48,2.48,0,0,1,2.25-1.86,2.55,2.55,0,0,1,2.3,1.82,6.07,6.07,0,0,1,.18,2A6.14,6.14,0,0,1,189.8,108.1Z"/><path class="cls-1" d="M204.63,107.35v-3.58c0-.3,0-.54-.44-.56s-.54.19-.54.56,0,.55,0,.83c.08.77-.1,1.08-1,.92-1.62-.28-2.35.42-2.37,2.06,0,.67,0,1.35,0,2,0,1.67,1,2.34,2.53,1.81.41-.13.72-.39,1.21,0,.34.28.62-.11.61-.57C204.62,109.67,204.63,108.51,204.63,107.35Zm-1,1c-.05.83.3,1.83-.94,2.17-1,.28-1.46,0-1.48-1.06,0-.73,0-1.46,0-2.2s.55-1,1.27-.93,1.25.1,1.14,1A6.8,6.8,0,0,0,203.65,108.38Z"/><path class="cls-1" d="M15.29,109.45a2.84,2.84,0,0,0-5.62,0,3,3,0,0,0,2.53,3.77,6.7,6.7,0,0,0,2.14-.15,5.88,5.88,0,0,1-3.28,3.72c-.24.11-.73.13-.48.58s.49.06.72,0A6.87,6.87,0,0,0,15.29,109.45ZM14.62,111c-.11.56.28,1.41-.87,1.6-1.47.24-2.64-.11-3.08-1.14a3.36,3.36,0,0,1,.06-2.84,1.77,1.77,0,0,1,1.68-1.06,1.81,1.81,0,0,1,1.74,1A4.74,4.74,0,0,1,14.62,111Z"/><path class="cls-1" d="M7.45,99.18a3.4,3.4,0,0,0-4.69-2.59.81.81,0,0,0-.67.92c0,1.1,0,2.2,0,3.3v3.3c0,.34,0,.63.39.83a3.49,3.49,0,0,0,4.62-1.54A6.58,6.58,0,0,0,7.45,99.18Zm-1,3.9a2.57,2.57,0,0,1-3.21,1.56c-.43-.12-.47-.39-.47-.75,0-1,0-2.08,0-3.12s0-2,0-3c0-.6.24-.8.77-.89a2.52,2.52,0,0,1,3,1.72A6.81,6.81,0,0,1,6.5,103.08Z"/><path class="cls-1" d="M24.88,100.06c0-1.38,0-2.76,0-4.14,0-.22.1-.54-.28-.56s-.39.29-.4.57c0,.61,0,1.22,0,1.83s-.13.68-.69.61a2.62,2.62,0,0,0-2.84,1.42,4.53,4.53,0,0,0-.42,2.59,2.81,2.81,0,0,0,3.91,2.69.86.86,0,0,0,.74-1C24.85,102.75,24.88,101.41,24.88,100.06Zm-1.4,4.67A2.07,2.07,0,0,1,21,103.05a4.8,4.8,0,0,1,0-2.63,2.11,2.11,0,0,1,1.59-1.61c1.23-.25,1.53,0,1.54,1.23v1.74h0c0,.74,0,1.47,0,2.2C24.2,104.49,24,104.68,23.48,104.73Z"/><path class="cls-1" d="M207.17,108.76a6.84,6.84,0,0,1,1.28,0c.86.11,1.21-.22,1-1,0-1.71-.6-2.38-2-2.39s-2.12.65-2.16,2.22c0,.7,0,1.41,0,2.11a1.63,1.63,0,0,0,1.56,1.62,4.37,4.37,0,0,0,1.73-.1c.29-.06.75,0,.67-.55s-.5-.32-.79-.28a3.29,3.29,0,0,1-1.62,0c-.64-.23-.65-.75-.61-1.28S206.85,108.79,207.17,108.76Zm-.87-1.45a1,1,0,0,1,1.17-1.09,1,1,0,0,1,1.09,1.07c0,1-.75.49-1.12.69C207,107.83,206.26,108.24,206.3,107.31Z"/><path class="cls-1" d="M29.84,98.37A2.33,2.33,0,0,0,27,99.57a5,5,0,0,0-.25,3.67A2.91,2.91,0,0,0,30.81,105c.15-.09.37-.15.27-.39s-.3-.12-.46-.09l-.87.2a2.18,2.18,0,0,1-2.48-1.84c-.13-.57-.07-.9.64-1,1-.08,2-.28,3-.44.27,0,.52-.07.56-.46A2.69,2.69,0,0,0,29.84,98.37Zm.35,2.8-2.45.37c-.42.07-.64,0-.56-.52a3.07,3.07,0,0,1,.56-1.63,1.67,1.67,0,0,1,1.91-.51c.8.23,1,.91,1.14,1.84C30.84,101,30.57,101.11,30.19,101.17Z"/><path class="cls-1" d="M12.39,98.38a2.32,2.32,0,0,0-2.83,1.09A4.5,4.5,0,0,0,9,101.68c0,.34,0,.68.09,1a2.85,2.85,0,0,0,4,2.35c.21-.07.58-.08.46-.43s-.41-.09-.62-.06-.42.11-.63.14a2.19,2.19,0,0,1-2.59-2c-.07-.5,0-.72.58-.78,1-.11,2.06-.29,3.09-.46.26,0,.53,0,.57-.44A2.73,2.73,0,0,0,12.39,98.38Zm.35,2.78-2.44.38c-.43.07-.6,0-.58-.52.08-1.37.8-2.24,1.93-2.22a1.66,1.66,0,0,1,1.66,1.8C13.3,101,13.06,101.11,12.74,101.16Z"/></g></g></svg>