<svg width="189" height="50" viewBox="0 0 189 50" fill="none" xmlns="http://www.w3.org/2000/svg">
<g clip-path="url(#clip0_1386_7547)">
<path d="M78.5449 43.4761H73.2891V49.8828H74.3656V47.6396H76.6292L78.5228 49.8828H79.7374V49.6311L78.037 47.6341H78.5394C78.8761 47.6341 79.1632 47.5138 79.3951 47.2785C79.6325 47.0432 79.7484 46.7642 79.7484 46.4414V44.6797C79.7484 44.3515 79.6325 44.0724 79.3951 43.8317C79.1577 43.5964 78.8706 43.4761 78.5394 43.4761H78.5449ZM78.6608 46.2445C78.6608 46.3922 78.6443 46.4797 78.6167 46.5125C78.5891 46.5399 78.4952 46.5563 78.3461 46.5563H74.6858C74.5368 46.5563 74.4429 46.5399 74.4098 46.5125C74.3767 46.4852 74.3601 46.3922 74.3601 46.2445V44.8657C74.3601 44.718 74.3767 44.625 74.4098 44.5922C74.4429 44.5594 74.5368 44.5429 74.6858 44.5429H78.3461C78.4952 44.5429 78.5835 44.5594 78.6167 44.5922C78.6443 44.625 78.6608 44.718 78.6608 44.8657V46.2445Z" fill="#7C878E"/>
<path d="M102.246 43.8317C102.009 43.5964 101.722 43.4761 101.391 43.4761H96.1348V49.8828H97.2113V47.6451L101.391 47.6341C101.727 47.6341 102.014 47.5138 102.246 47.2785C102.484 47.0432 102.6 46.7642 102.6 46.4414V44.6797C102.6 44.3515 102.484 44.0724 102.246 43.8317ZM101.512 46.2445C101.512 46.3922 101.495 46.4797 101.462 46.5125C101.429 46.5399 101.341 46.5563 101.186 46.5563H97.526C97.3769 46.5563 97.2831 46.5399 97.25 46.5125C97.2168 46.4852 97.2003 46.3922 97.2003 46.2445V44.8657C97.2003 44.718 97.2168 44.625 97.25 44.5922C97.2831 44.5594 97.3714 44.5429 97.526 44.5429H101.186C101.335 44.5429 101.429 44.5594 101.462 44.5922C101.495 44.625 101.512 44.718 101.512 44.8657V46.2445Z" fill="#7C878E"/>
<path d="M85.0373 43.4707H83.094C81.8628 43.4707 80.8525 44.461 80.8525 45.6701V47.7108C80.8525 48.9035 81.8187 49.8883 83.1437 49.8883H84.9876C86.2906 49.8883 87.2788 48.909 87.2788 47.7108V45.6701C87.2788 44.461 86.2906 43.4707 85.0373 43.4707ZM86.1746 47.6889C86.1746 48.3072 85.6722 48.805 85.0484 48.805H83.083C82.4591 48.805 81.9567 48.3072 81.9567 47.6889V45.6646C81.9567 45.0464 82.4591 44.5485 83.083 44.5485H85.0484C85.6722 44.5485 86.1746 45.0464 86.1746 45.6646V47.6889Z" fill="#7C878E"/>
<path d="M69.5463 46.3102V47.388H71.0203V47.6889C71.0203 48.3072 70.5179 48.805 69.8941 48.805H67.9287C67.3048 48.805 66.8024 48.3072 66.8024 47.6889V45.6646C66.8024 45.0464 67.3048 44.5485 67.9287 44.5485H69.8941C70.3137 44.5485 70.6725 44.7783 70.8713 45.1175H72.0472C71.7988 44.1765 70.9375 43.4707 69.883 43.4707H67.9397C66.7086 43.4707 65.6982 44.461 65.6982 45.6701V47.7108C65.6982 48.9035 66.6644 49.8883 67.9894 49.8883H69.8333C71.1363 49.8883 72.1245 48.909 72.1245 47.7108V46.3157H69.5463V46.3102Z" fill="#7C878E"/>
<path d="M93.8377 47.6889C93.8377 48.3072 93.3353 48.805 92.7114 48.805H90.746C90.1222 48.805 89.6198 48.3072 89.6198 47.6889V43.4707H88.5156V47.7108C88.5156 48.9035 89.4818 49.8883 90.8068 49.8883H92.6507C93.9536 49.8883 94.9419 48.909 94.9419 47.7108V43.4707H93.8377V47.6889Z" fill="#7C878E"/>
<path d="M97.6198 35.948V11.6836H101.159C102.191 11.6836 103.174 12.1377 103.836 12.9201L111.389 21.827L118.908 12.9255C119.571 12.1377 120.553 11.6836 121.591 11.6836H125.163V35.948H120.266V18.8945L111.389 29.3772L102.511 18.9274V35.948H97.6143H97.6198Z" fill="#7C878E"/>
<path d="M157.145 27.7194C157.145 32.2386 153.402 35.948 148.478 35.948H141.494C136.475 35.948 132.826 32.2386 132.826 27.7194V20.0052C132.826 15.4368 136.658 11.6836 141.312 11.6836H148.66C153.408 11.6836 157.145 15.4368 157.145 20.0052V27.7194ZM149.03 31.0951C150.874 31.0951 152.199 29.689 152.199 28.1407V19.4909C152.199 17.8495 150.874 16.5365 149.173 16.5365H140.804C138.96 16.5365 137.778 17.8495 137.778 19.4909V28.1407C137.778 29.689 139.103 31.0951 140.947 31.0951H149.035H149.03Z" fill="#7C878E"/>
<path d="M88.7366 13.1006C87.776 12.1596 86.6222 11.6836 85.2861 11.6836H70.5952C69.2371 11.6836 68.0777 12.1541 67.1281 13.1006C66.1786 14.0416 65.6982 15.1906 65.6982 16.5365V35.948H70.5952V27.9602H85.253V35.948H90.1831V16.5365C90.1831 15.1906 89.7028 14.0416 88.7366 13.1006ZM85.253 23.1073H70.5952V16.7608C70.5952 16.6404 70.6891 16.5474 70.8105 16.5474H85.0322C85.1536 16.5474 85.2475 16.6404 85.2475 16.7608V23.1073H85.253Z" fill="#7C878E"/>
<path d="M188.84 24.3055C188.613 23.7583 188.321 23.2441 187.956 22.7735C188.045 22.5273 188.117 22.2757 188.161 22.0131C188.205 21.7559 188.227 21.4659 188.227 21.1541V16.5365C188.227 15.1906 187.741 14.0416 186.764 13.1006C185.787 12.1596 184.644 11.6836 183.33 11.6836H164.697V35.948H184.285C185.621 35.948 186.775 35.4775 187.736 34.531C188.696 33.5899 189.182 32.441 189.182 31.0951V25.9741C189.182 25.4106 189.066 24.858 188.84 24.3055ZM169.594 16.7608C169.594 16.635 169.694 16.5365 169.821 16.5365H183.126C183.22 16.5365 183.319 16.6295 183.319 16.7608V20.9626C183.319 21.0884 183.22 21.1869 183.126 21.1869H169.821C169.694 21.1869 169.594 21.0884 169.594 20.9626V16.7608ZM184.252 30.8708C184.252 30.9966 184.153 31.0951 184.026 31.0951H169.815C169.688 31.0951 169.589 31.0021 169.589 30.8708V26.2313C169.589 26.1055 169.688 26.0398 169.815 26.0398H184.026C184.153 26.0398 184.252 26.1055 184.252 26.2313V30.8708Z" fill="#7C878E"/>
<path d="M25.313 -0.205078C11.3342 -0.205078 0 11.0271 0 24.88C0 38.7328 11.3342 49.965 25.313 49.965C39.2917 49.965 50.6259 38.7328 50.6259 24.88C50.6259 11.0271 39.2917 -0.205078 25.313 -0.205078ZM25.313 36.5116C18.8315 36.5116 13.5757 31.3031 13.5757 24.88C13.5757 18.4569 18.8315 13.2484 25.313 13.2484C31.7944 13.2484 37.0502 18.4569 37.0502 24.88C37.0502 31.3031 31.7944 36.5116 25.313 36.5116Z" fill="url(#paint0_linear_1386_7547)"/>
<path d="M25.313 36.5116C18.8315 36.5116 13.5757 31.3031 13.5757 24.88C13.5757 18.4569 18.8315 13.2484 25.313 13.2484C31.3969 13.2484 36.3988 17.8332 36.9895 23.7037C37.0226 24.0156 37.0337 24.3274 37.0392 24.6447C37.0392 24.7213 37.0502 24.8034 37.0502 24.88C37.0502 14.742 28.758 6.52441 18.5279 6.52441C8.2978 6.52441 0 14.7366 0 24.88C0 35.0235 8.29227 43.2356 18.5224 43.2356C28.7524 43.2356 37.0447 35.018 37.0447 24.88C37.0447 25.2794 37.0226 25.6678 36.984 26.0563C36.3877 31.9268 31.3859 36.5116 25.3074 36.5116H25.313Z" fill="url(#paint1_linear_1386_7547)"/>
</g>
<defs>
<linearGradient id="paint0_linear_1386_7547" x1="0" y1="24.88" x2="50.6204" y2="24.88" gradientUnits="userSpaceOnUse">
<stop stop-color="#283483"/>
<stop offset="0.02" stop-color="#1E3E8B"/>
<stop offset="0.06" stop-color="#08559F"/>
<stop offset="0.09" stop-color="#005EA7"/>
<stop offset="0.18" stop-color="#0067AF"/>
<stop offset="0.33" stop-color="#006EB5"/>
<stop offset="0.69" stop-color="#0071B7"/>
<stop offset="0.88" stop-color="#0080C5"/>
<stop offset="1" stop-color="#158FCF"/>
</linearGradient>
<linearGradient id="paint1_linear_1386_7547" x1="0" y1="24.88" x2="37.0502" y2="24.88" gradientUnits="userSpaceOnUse">
<stop stop-color="#008ACD"/>
<stop offset="0.22" stop-color="#0087CA"/>
<stop offset="0.35" stop-color="#007FC3"/>
<stop offset="0.38" stop-color="#007CC1"/>
<stop offset="0.54" stop-color="#0A67B0"/>
<stop offset="0.87" stop-color="#253285"/>
<stop offset="0.88" stop-color="#263184"/>
</linearGradient>
<clipPath id="clip0_1386_7547">
<rect width="189" height="50" fill="white"/>
</clipPath>
</defs>
</svg>
