<?xml version="1.0" encoding="utf-8"?>
<!-- Generator: Adobe Illustrator 19.2.1, SVG Export Plug-In . SVG Version: 6.00 Build 0)  -->
<svg version="1.1" id="layer" xmlns="http://www.w3.org/2000/svg" xmlns:xlink="http://www.w3.org/1999/xlink" x="0px" y="0px"
	 viewBox="0 0 652 652" style="enable-background:new 0 0 652 652;" xml:space="preserve">
<style type="text/css">
	.st0{fill:#2799CE;}
</style>
<path class="st0" d="M79,299.7l-15.2,5.3l-22.7-27.2l-19.1-11l64,110.9l0-22.1l-12.2-33.2l19.3-14.5L79,299.7z M80.4,297.2l-3-15.7
	l-34.8-6.1l-19.1-11.1h128l-19,11.1l-34.8,6.1l-3,24L80.4,297.2z"/>
<path d="M133.8,277.8l19.1-11l-64,110.9l-0.1-22.1L133.8,277.8z M244.9,296.8h12.4v41h41.8l-7.5,7h-46.7V296.8z M386.7,296.8h62.6
	l-7.2,7h-42.6v12.9h42.9v7.2h-42.9v14.3h44.1l7.8,7H387L386.7,296.8z M484.6,303.8h-21.8l-6.5-7h69.2l-6.3,7h-21.9v41h-12.4
	L484.6,303.8z M559.9,303.8H538l-6.5-7h69l-6.4,7h-21.8v41h-12.3L559.9,303.8z M609.4,296.8H622v48h-12.4L609.4,296.8z M173,296.8
	h32.7c8-0.1,15.9,1.3,23.3,4.3v15.6c-1.7,1.1-3.6,2-5.6,2.5c2.5,0.7,4.9,1.9,7,3.4v17.5c-6.5,3.7-14,5.3-21.4,4.8h-36.7v-46.3
	l12.5,6.6v32.7h21.4c5,0.2,9.9-0.5,14.7-2V326c-4.8-1.5-9.7-2.1-14.7-2h-19.2v-8.6h19.2c4.3,0.1,8.7-0.4,12.9-1.5v-8.8
	c-4.2-1.1-8.5-1.6-12.9-1.4h-19.5L173,296.8z M307.3,333.7v-37.2l11.6,3.7v30.8c2.5,2.8,5.9,4.7,9.6,5.4H351
	c3.7-0.7,7.1-2.6,9.6-5.4v-30.7l11.6-3.7v37.1c-4.8,6.1-11.5,10.4-19.1,12.2h-26.8c-7.5-1.7-14.2-5.9-19.2-11.8"/>
</svg>
