<svg xmlns="http://www.w3.org/2000/svg" viewBox="0 0 173.18 45.32"><defs><style>.cls-1{fill:#17243e;}</style></defs><g id="Camada_2" data-name="Camada 2"><g id="Camada_1-2" data-name="Camada 1"><g id="Camada_2-2" data-name="Camada 2"><g id="Camada_1-2-2" data-name="Camada 1-2"><path class="cls-1" d="M79.55.65h26.52v7.1H88.7v4.53h15.72V19H88.7v4.74h17.64l-3.21,7.11H79.55Z"/><path class="cls-1" d="M25.29,10a12,12,0,0,0-7.46-2.47,8.3,8.3,0,0,0-8.44,8.32v.09c0,4.9,3.75,8.42,9,8.42a10,10,0,0,0,5.31-1.26v-3.7H15.45l7.45-6.24h9.48V27A23.41,23.41,0,0,1,18,31.75c-10.32,0-18-6.6-18-15.92v0C0,6.94,7.55,0,17.79,0a20.27,20.27,0,0,1,13.4,4.43L25.29,10"/><path class="cls-1" d="M36.37,22.4h9.39v8.4H36.37Z"/><path class="cls-1" d="M122.26.43H131L145,30.8h-9.78l-2.39-5.39H120.18l-2.34,5.39h-9.58Zm8,18.52-3.66-8.56L122.86,19Z"/><path class="cls-1" d="M148.07.65h9.15V23.48h16V30.8H148.07Z"/><path class="cls-1" d="M50.69.65h9.15V23.48h16V30.8H50.69Z"/><path class="cls-1" d="M61.52,39.79a3.08,3.08,0,0,1,1.18,1.05,2.7,2.7,0,0,1,.42,1.48,2.66,2.66,0,0,1-.43,1.49,2.91,2.91,0,0,1-1.18,1,3.64,3.64,0,0,1-1.69.38H57.26V39.41h2.58A3.83,3.83,0,0,1,61.52,39.79ZM61,44.29a2.29,2.29,0,0,0,.88-.81,2.23,2.23,0,0,0,0-2.31,2.35,2.35,0,0,0-.9-.81,2.6,2.6,0,0,0-1.26-.3H58v4.52h1.79A2.54,2.54,0,0,0,61,44.29Z"/><path class="cls-1" d="M65,39.41h4.46v.65H65.94V42h3.28v.64H65.94v1.94h3.75v.65H65Z"/><path class="cls-1" d="M74.47,40.18a3.67,3.67,0,0,0-.88-.13,1.83,1.83,0,0,0-.9.2.62.62,0,0,0-.34.54.71.71,0,0,0,.21.51,1.43,1.43,0,0,0,.49.32c.2.07.47.16.82.26a10.17,10.17,0,0,1,1.06.36,1.73,1.73,0,0,1,.69.5,1.31,1.31,0,0,1,.28.88,1.33,1.33,0,0,1-.3.89,1.9,1.9,0,0,1-.83.58,3.45,3.45,0,0,1-1.24.22,4.06,4.06,0,0,1-1.38-.25A3.85,3.85,0,0,1,71,44.38l.4-.7a3.67,3.67,0,0,0,1,.65,3.09,3.09,0,0,0,1.12.21,1.89,1.89,0,0,0,1-.23.73.73,0,0,0,.22-1.07.18.18,0,0,0,0-.07,1.52,1.52,0,0,0-.51-.32,8,8,0,0,0-.84-.26,9.77,9.77,0,0,1-1-.35,1.73,1.73,0,0,1-.69-.5,1.29,1.29,0,0,1-.28-.86,1.31,1.31,0,0,1,.28-.84,1.86,1.86,0,0,1,.8-.55,3.29,3.29,0,0,1,1.2-.2,4.28,4.28,0,0,1,2.13.58l-.37.72A4.39,4.39,0,0,0,74.47,40.18Z"/><path class="cls-1" d="M82.16,39.79a3,3,0,0,1,1.17,1.05,2.63,2.63,0,0,1,.43,1.48,2.66,2.66,0,0,1-.43,1.49,2.91,2.91,0,0,1-1.18,1,3.64,3.64,0,0,1-1.69.38H77.91V39.41h2.58A3.82,3.82,0,0,1,82.16,39.79Zm-.25,4.58a2.31,2.31,0,0,0,.9-.82,2.27,2.27,0,0,0,0-2.36,2.43,2.43,0,0,0-.91-.83,2.71,2.71,0,0,0-1.28-.3H78.85v4.52H80.6c.43-.06,1.21-.21,1.21-.21Z"/><path class="cls-1" d="M85.65,39.41h4.69v.65H86.82V42h3.05v.64H86.59v1.94h3.75v.65H85.65Z"/><path class="cls-1" d="M94.57,39.41h2.34v5.82H96V40.06H94.57Z"/><path class="cls-1" d="M100.41,44.51a2.71,2.71,0,0,0,.75.1,1.71,1.71,0,0,0,1.41-.6,2.43,2.43,0,0,0,.49-1.62,1,1,0,0,0,0-.25,1.59,1.59,0,0,1-.7.75,2.51,2.51,0,0,1-1.15.25,2.17,2.17,0,0,1-1.51-.51,1.74,1.74,0,0,1-.55-1.36,2,2,0,0,1,.28-1.05,1.85,1.85,0,0,1,.78-.68,3,3,0,0,1,2.53.11,2.14,2.14,0,0,1,.88,1,3.36,3.36,0,0,1,.31,1.53,3.81,3.81,0,0,1-.33,1.65,2.41,2.41,0,0,1-.94,1.09,2.55,2.55,0,0,1-1.43.39,4,4,0,0,1-1-.12,4.2,4.2,0,0,1-.9-.32l.35-.61A2.61,2.61,0,0,0,100.41,44.51Zm0-4.16a1.15,1.15,0,0,0-.39.93,1.11,1.11,0,0,0,.37.88,1.47,1.47,0,0,0,1,.33,1.75,1.75,0,0,0,.82-.17,1.34,1.34,0,0,0,.53-.47,1.18,1.18,0,0,0,.18-.63,1.13,1.13,0,0,0-.16-.56,1.17,1.17,0,0,0-.49-.47,1.64,1.64,0,0,0-.82-.18,1.53,1.53,0,0,0-1,.34Z"/><path class="cls-1" d="M109.57,42.37a1.3,1.3,0,0,1,.58,1.11,1.53,1.53,0,0,1-.31,1,2,2,0,0,1-.9.64,3.39,3.39,0,0,1-1.34.24,4.83,4.83,0,0,1-1.25-.17,4.38,4.38,0,0,1-1.07-.44l.38-.66a3.19,3.19,0,0,0,.89.43,3.3,3.3,0,0,0,1,.15,2.22,2.22,0,0,0,1.27-.31,1,1,0,0,0,.46-.83.86.86,0,0,0-.46-.79,2.6,2.6,0,0,0-1.3-.27h-1V41.9l1.85-1.84H105.6v-.65h4.22v.51l-2.21,2,.4,0A3,3,0,0,1,109.57,42.37Z"/><path class="cls-1" d="M111.23,39.41h4.93V40l-2.79,5.28h-.93l2.73-5.17h-3v.86h-.94Z"/></g></g></g></g></svg>