<svg xmlns="http://www.w3.org/2000/svg" viewBox="0 0 329.52 43.5"><defs><style>.cls-1{fill:#d92128;}.cls-2{fill:#231815;}</style></defs><g id="Camada_2" data-name="Camada 2"><g id="Camada_1-2" data-name="Camada 1"><path class="cls-1" d="M50,24l-3.3,9.56h6.56M32.81,42.85,44.58,15.93h11L67.33,42.85H56.09l-1.18-3.3h-10l-1.14,3.3Z"/><polyline class="cls-1" points="92.12 30.74 91.73 24.64 91.73 15.93 102.17 15.93 102.17 42.85 92.68 42.85 80.85 28.2 81.3 34.35 81.3 42.85 70.86 42.85 70.86 15.93 80.75 15.93"/><path class="cls-1" d="M123.85,23.89a2.38,2.38,0,0,0-1.54-1.81,7,7,0,0,0-2.75-.49c-2.36,0-3.4.55-3.4,1.54,0,4,18.73,1.53,18.73,11.2,0,6.21-6.32,9.17-15.27,9.17-8.63,0-14.23-4.11-14.45-8.89h10.22a3.07,3.07,0,0,0,1.75,2.08,7,7,0,0,0,3,.66c2.69,0,4.44-.71,4.44-2,0-4-18.73-1.27-18.73-11.43,0-5.66,6-8.51,14.12-8.51,9.06,0,13.18,3.79,13.95,8.45"/><path class="cls-1" d="M152.79,24l-3.29,9.56H156m-20.36,9.34,11.77-26.92h11l11.76,26.92H158.92l-1.18-3.3H147.8l-1.13,3.3Z"/><polyline class="cls-1" points="205.99 42.85 205.99 16.48 231.26 16.48 231.26 22.52 216.43 22.52 216.43 27.46 227.96 27.46 227.96 33.51 216.43 33.51 216.43 42.85"/><polyline class="cls-1" points="236.75 42.85 236.75 16.48 247.74 16.48 247.74 36.8 262.57 36.8 262.57 42.85"/><polyline class="cls-1" points="265.31 42.85 265.31 16.48 291.68 16.48 291.68 22.52 275.75 22.52 275.75 26.37 289.48 26.37 289.48 32.41 275.75 32.41 275.75 36.8 292.23 36.8 292.23 42.85"/><polyline class="cls-1" points="307.06 42.85 294.67 42.85 306.32 28.86 295.83 15.93 307.93 15.93 312.59 22.81 317.31 15.93 329.41 15.93 318.31 28.86 329.52 42.85 317.42 42.85 312.09 35.3"/><path class="cls-1" d="M194.93,5.33s-7.8,8.68-11.59,17.41A52.09,52.09,0,0,0,179,42.85h8.13a48.65,48.65,0,0,1,4-16.65,55.17,55.17,0,0,1,10-15.1"/><path class="cls-2" d="M182.73,0l8.35,3.46s-1.48,3.13-2.2,5.16-2.19,6.54-2.19,6.54A38.6,38.6,0,0,0,180,29.44a60.2,60.2,0,0,0-1.92,13.41h-3.51a93.68,93.68,0,0,1,2-21.76C178.28,13.18,182.73,0,182.73,0"/><polyline class="cls-1" points="0 42.85 0 16.48 10.44 16.48 10.44 25.27 20.87 25.27 20.87 15.93 31.31 15.93 31.31 42.85 20.32 42.85 20.32 32.41 10.44 32.41 10.44 42.85"/></g></g></svg>