<svg xmlns="http://www.w3.org/2000/svg" viewBox="0 0 171.33 32.75"><defs><style>.cls-1{fill:#e90002;}</style></defs><g id="Camada_2" data-name="Camada 2"><g id="Camada_1-2" data-name="Camada 1"><path class="cls-1" d="M17.23,32c1.07-6.36,2.12-12.64,3.17-18.91L20.2,13c-.36,1.21-.73,2.41-1.09,3.62-1.43,4.82-2.88,9.64-4.28,14.48-.2.69-.48,1-1.22.92-1.27-.07-2.55,0-3.95,0,.2-6.54.39-13,.59-19.49l-.11,0-1.5,8.85L7,31.39c-.06.36-.12.67-.63.66-2,0-4,0-5.93,0a1.64,1.64,0,0,1-.4-.11c.25-1.53.49-3,.75-4.56Q2.93,14.48,5.09,1.58c.1-.64.3-.91,1-.9,2.74,0,5.47,0,8.21,0,1.12,0,1.13,0,1.09,1.12Q15.2,7.91,15,14a.88.88,0,0,0,.15.56c.54-1.86,1.09-3.71,1.63-5.57.75-2.55,1.5-5.09,2.23-7.64.12-.41.25-.66.75-.66,3,0,6,0,9,0a4.86,4.86,0,0,1,.57.09c-.15,1-.29,1.94-.45,2.89q-2.31,13.73-4.63,27.46c-.11.64-.29.93-1,.91-1.7-.06-3.41,0-5.12,0C17.86,32,17.59,32,17.23,32Z"/><path class="cls-1" d="M70.7.74c-.27,1.61-.52,3.12-.78,4.64L66.53,25.06a9.28,9.28,0,0,1-9.44,7.64A11,11,0,0,1,52,31.78a5.58,5.58,0,0,1-3.28-6.12c.76-5,1.58-10,2.4-15q.75-4.61,1.57-9.21c.05-.27.34-.72.52-.72,2.44-.05,4.87,0,7.42,0-.2,1.23-.38,2.37-.57,3.5q-1.8,10.7-3.58,21.38a1.64,1.64,0,0,0-.06.72c.14.36.38,1,.57,1a1.65,1.65,0,0,0,1.2-.56,4,4,0,0,0,.49-1.61q2-11.59,3.94-23.21C62.86.71,62.84.7,64.06.7h5.68C70,.7,70.32.73,70.7.74Z"/><path class="cls-1" d="M120.22,15.75a3.74,3.74,0,0,1,2.93,3A9.37,9.37,0,0,1,123,21.5c-.5,3.24-1.07,6.46-1.58,9.7-.11.67-.37.88-1.05.86-1.82-.05-3.63,0-5.45,0h-1l.92-5.46c.33-2,.66-3.95,1-5.93a10.13,10.13,0,0,0,.09-1.46,1.31,1.31,0,0,0-1.7-1.2c-.19.08-.32.46-.37.72-.53,3-1,6.08-1.54,9.12-.2,1.2-.39,2.41-.64,3.6,0,.23-.35.58-.55.58-2.4,0-4.81,0-7.34,0,.16-1,.3-2,.46-2.93q2.32-13.77,4.65-27.54c.11-.68.35-.9,1-.88,3.74.12,7.47.13,11.2.34a4.31,4.31,0,0,1,4.2,4.51,20.87,20.87,0,0,1-1,6.88A4.64,4.64,0,0,1,120.22,15.75ZM114.86,13c1.67,0,2.21-.31,2.51-1.58s.46-2.5.66-3.75a1.63,1.63,0,0,0-.09-.72c-.25-.68-.85-.76-1.46-.78s-.52.49-.6.86-.14.74-.21,1.12C115.41,9.73,115.14,11.32,114.86,13Z"/><path class="cls-1" d="M47.19.7c-.28,10.49-.55,20.84-.83,31.27h-8l.49-5.53c-.87,0-1.65,0-2.42,0-.18,0-.4.39-.46.64-.39,1.41-.73,2.83-1.08,4.25-.1.37-.17.7-.71.69-2.35,0-4.71,0-7.07,0-.12,0-.25-.05-.48-.09.43-1.47.83-2.89,1.25-4.31q3.86-13,7.7-26a1.1,1.1,0,0,1,1.29-1c3.06,0,6.12,0,9.18,0ZM36.92,20.84c.79,0,1.36,0,1.92,0s.79-.14.83-.75c.26-3.58.55-7.16.83-10.74a3.87,3.87,0,0,0,0-.48h-.16Z"/><path class="cls-1" d="M81.41,10.22c.16-1.12.31-2.13.45-3.14a3.64,3.64,0,0,0,0-.81.86.86,0,0,0-1.25-.81,1.72,1.72,0,0,0-.63.36c-1.3,1.22-1.25,4.38.13,5.51,1.07.87,2.17,1.71,3.31,2.48a8.16,8.16,0,0,1,3.67,9.08c-.23,1.16-.42,2.34-.68,3.5A7.15,7.15,0,0,1,82,31.67a12.15,12.15,0,0,1-9.41.25,4.8,4.8,0,0,1-3.37-4.86c.07-1.94.38-3.87.63-5.8a.71.71,0,0,1,.54-.43c2.22,0,4.44,0,6.8,0-.22,1.37-.44,2.67-.64,4a4.38,4.38,0,0,0-.12,1.29c.06.41.23,1.09.47,1.14a2.19,2.19,0,0,0,1.55-.26,2.52,2.52,0,0,0,.76-1.3,13.76,13.76,0,0,0,.35-1.83A3.67,3.67,0,0,0,78,19.93c-1.39-1-2.66-2.22-4-3.27a6.29,6.29,0,0,1-2.49-5.46,17.8,17.8,0,0,1,1.35-6.4,7.14,7.14,0,0,1,4.52-4A12.8,12.8,0,0,1,85.83.71c2.52.87,3.52,2.32,3.4,5a39.4,39.4,0,0,1-.5,4c0,.19-.26.49-.4.49C86.07,10.23,83.8,10.22,81.41,10.22Z"/><path class="cls-1" d="M131.25,32l.83-5.05c1.44-8.49,2.89-17,4.3-25.46.11-.64.33-.85,1-.84,3.3.07,6.61.08,9.91.17a8.08,8.08,0,0,1,2.21.47,3.67,3.67,0,0,1,2.83,4c-.15,2.27-.53,4.51-.84,6.76A19.94,19.94,0,0,1,151,14.2c-.84,3.27-2.59,4.8-6,5.14a23.09,23.09,0,0,1-3,.12c-.7,0-.93.23-1,.89-.55,3.47-1.14,6.94-1.73,10.41-.27,1.56-.1,1.26-1.49,1.28-1.86,0-3.73,0-5.6,0Zm10.89-18.12c1.49.26,2.24-.08,2.54-1.35.39-1.62.6-3.29.87-4.94A1.55,1.55,0,0,0,145.5,7c-.2-.71-.81-.83-1.41-.81-.24,0-.64.24-.68.43C143,9,142.56,11.45,142.14,13.92Z"/><path class="cls-1" d="M106.36.76c-.34,2-.65,3.92-1,5.83,0,.18-.46.39-.71.4-1.3,0-2.6,0-3.9,0-.23,0-.63.2-.67.36-.34,1.78-.62,3.56-.94,5.48h4.82c-.14,1-.25,1.77-.38,2.58s-.35,1.86-.47,2.8c-.07.51-.29.69-.79.68-1.2,0-2.39,0-3.58,0-.23,0-.63.2-.66.37-.4,2.09-.74,4.19-1.12,6.43h5.7c-.13.79-.23,1.45-.34,2.1-.2,1.2-.41,2.4-.6,3.61-.06.4-.2.61-.66.61-4.2,0-8.4,0-12.59,0a2.1,2.1,0,0,1-.4-.07c.27-1.62.52-3.21.79-4.8Q91,14.35,93.17,1.55c.08-.49.13-.87.79-.86,4,0,7.91,0,11.86,0C106,.7,106.09.73,106.36.76Z"/><path class="cls-1" d="M153.18,7c.34-2,.65-4,1-5.88,0-.18.46-.41.7-.42,1.46,0,2.93,0,4.39,0h12c-.36,2.16-.71,4.2-1.06,6.31-1.32,0-2.56,0-3.8,0-.65,0-.87.21-1,.84q-1.92,11.54-3.89,23c0,.35-.12.69-.2,1.1h-7.82c1.4-8.32,2.79-16.57,4.2-25Z"/><path class="cls-1" d="M130.11,25.66c-.35,2.06-.66,4-1,5.9,0,.18-.27.45-.42.45-1.73,0-3.45,0-5.31,0,.12-.76.22-1.42.33-2.07.2-1.23.39-2.46.64-3.68,0-.23.3-.59.47-.59C126.54,25.64,128.26,25.66,130.11,25.66Z"/></g></g></svg>