<svg xmlns="http://www.w3.org/2000/svg" viewBox="0 0 212.13 50.06"><defs><style>.cls-1{fill:#020202;}.cls-2{fill:#030202;}.cls-3{fill:#ff2802;}.cls-4{fill:#fe2702;}.cls-5{fill:#ab1802;}.cls-6{fill:#0c0302;}.cls-7{fill:#0e0302;}.cls-8{fill:#090302;}.cls-9{fill:#110402;}.cls-10{fill:#0d0302;}.cls-11{fill:#0b0302;}.cls-12{fill:#0f0402;}.cls-13{fill:#100402;}.cls-14{fill:#140402;}.cls-15{fill:#0a0302;}.cls-16{fill:#080302;}.cls-17{fill:#120402;}.cls-18{fill:#3b0a02;}.cls-19{fill:#160502;}</style></defs><g id="Camada_2" data-name="Camada 2"><g id="Camada_1-2" data-name="Camada 1"><path class="cls-1" d="M75.2,5.62h4.56l1.38,2.44,1.38,2.65,1.06,2L85,15.27l1.27,2.34,1.91,3.6,1.27,2.34,1.07,2,.21-.32,1.38-2.54,1.27-2.34L95.14,17l1.59-3,4.46-8.27.1-.11h14.32l.32.11V37H106.6l-.11-22.17-1.06,2-1.27,2.23L102.57,22l-1.17,2.12-1.27,2.22-1.7,3.08-3.18,5.73-1.06,1.8-.11.11H87l-1-1.59-1.48-2.66L81.88,28,80.4,25.35,79,22.91l-4.24-7.64-.32-.53L74.35,37H65V5.73Z"/><path class="cls-2" d="M127.07,5.62h10.07l.85,1,1.38,1.8,1.38,1.7,1.38,1.8,1.48,1.8,1.07,1.38,1.16,1.49,1.38,1.69,1.17,1.49,1.48,1.91L151,23.12l1.38,1.7,1.06,1.38,1.17,1.48.42.43V5.73h9.65V37H150L149,36,148,34.58l-2.12-2.65-2.33-3-1.38-1.7-2.33-3-1.28-1.59-1.38-1.8-1.48-1.81-1.27-1.7-1.49-1.8-.74-.95-.11-.11L132,37H122.4V5.73Z"/><path class="cls-3" d="M33.09,28.43l.64.21,13.36,6.68,1.59.85v3.39l-2.22,1.17-2.23,1.06-2,1.06-7.84,3.93-1.17.53H0V45.08l5.3-2.65,2-1.06L22.8,33.62l2.87-1.48,6.79-3.4Z"/><path class="cls-4" d="M33.09,14.32l.53.11,2,1,2,1.06,8.28,4.14,2,1.06.74.42v9.55l-.53-.11-3.71-1.8L40.84,28l-4.35-2.12-3-1.38h-.64l-3,1.38-1.7.85L25.56,28l-4.35,2.12-3,1.38L15.17,33l-2.55,1.16-1.7.85L7.64,36.59,4.67,38,2.33,39.14l-2,1H0V31l2-1.06,7.63-3.82,1.81-.95,7-3.5,2-1.06,12.3-6.15Z"/><path class="cls-4" d="M33.09,0l.64.21,4.35,2.23,10.39,5.2.21.21V17.5l-2.12-.95L44,15.27l-3-1.38-4.56-2.22-1.91-.85-1.17-.64-.53.11-4,1.91-3.5,1.69-3,1.38-3.71,1.81-2.44,1.16-3.71,1.81-4.25,2-4.13,2-3,1.38-.85.42H0V16.76L2,15.7l8.69-4.35,2-1.06,8.91-4.46,2-1.06L33,.11Z"/><path class="cls-1" d="M171.19,5.62h9.65V28.85h21.32V37H179.89l-2.23-.21-1.7-.54-1.27-.74-1.16-1-1.17-1.49-.74-1.59-.32-1.16-.11-.75Z"/><path class="cls-5" d="M33.2,28.53l.53.11,13.36,6.68,1.59.85v3.39l-2.22,1.17-2.23,1.06-2,1.06L33.52,47.2H33.2Z"/><path class="cls-5" d="M33.09,0l.64.21,4.35,2.23,10.39,5.2.21.21V17.5l-2.12-.95L44,15.27l-3-1.38-4.56-2.22-1.91-.85-1.17-.64L33.2,10V3.08Z"/><path class="cls-5" d="M33.2,14.32l.95.32,4.35,2.22,7.43,3.72,2,1.06.74.42v9.55l-.53-.11-3.71-1.8L40.84,28l-4.35-2.12-3-1.38-.32-.21Z"/><path class="cls-6" d="M212,2.65l-.43-.95-.42-.53-.85-.75L209.27,0h-1.7l-.85.32-.95.63-.64.85-.42,1.06V4.24l.21.75.64,1.06.53.42.63.42,1.07.32h1.27l.53-.1.74-.32,1-.85.42-.64.42-1.38Zm-1,1.49-.32,1-.74.85L209,6.36h-1.06l-.42-.1-.75-.43-.63-.74-.43-1.17V3.18l.32-1,.64-.85.95-.53h1.59l.75.32.74.85.42,1Z"/><path class="cls-7" d="M165.36,45h.74l.64.32.32.21.63-.42L168,45h1l.85.43.43.74V50h-1l-.1-.11V47l-.22-.74-.42-.22H168l-.53.53-.11,3.29-.1.11h-1l-.1-3.5-.53-.43-.75.11-.31.32-.11,3.39-.11.11h-1V45.08h1v.32l.53-.32Z"/><path class="cls-8" d="M135.87,43.06h1V45.4l.84-.43h.85l.75.43.42.63.11.53V50h-1.06l-.11-3.4-.32-.42-.74-.11-.43.22-.21.63-.1,3.08h-1l-.1-.11V44.12Z"/><path class="cls-9" d="M157.51,45h1.17l.84.32.32.21-.21.43-.32.32-.74-.22h-.95l-.32.32.1.43,1.06.21,1,.21.53.53.1.32v.74l-.42.74-.74.43-1.17.1-1.06-.21-.64-.42.11-.43.53-.42.85.42h1l.43-.1v-.64l-.32-.21-1.48-.21-.64-.43-.32-.53.11-1,.53-.64Z"/><path class="cls-10" d="M201.21,45h1.06l.95.32.22.42-.43.54-.74-.22H201v.64l.31.21,1.7.32.53.42.11.22V49l-.64.75-.95.31-1.38-.1-.74-.32-.32-.32.1-.32h.22l.1-.32.53.11.53.21h1l.53-.32-.11-.53-1.8-.31-.64-.43-.21-.42V46l.42-.63.53-.32Z"/><path class="cls-11" d="M193.89,13.79h3.61v1.06L195.91,19l-.43.84h-.95l.31-1.06,1.6-4.13h-1.6v.85l-.1.1H194l-.11-.1Z"/><path class="cls-7" d="M192,45h1l.84.43.22.42-.53.53-.43-.1-.53-.22-.63.11-.43.53-.11.32v.95l.32.74.22.22h1l.32-.22.42.11.43.43-.22.42-1.06.42-1.06-.1-.63-.32L190.5,49l-.32-1V47l.32-1,.63-.74Z"/><path class="cls-12" d="M132.69,45h.95l1.06.53.11.32-.53.53-.53-.1-.42-.22-.64.11-.42.42-.11.22v1.37l.32.64.21.11h.85l.42-.32.43.21.42.53-.53.43-.85.31-1-.1-.64-.32-.64-.74-.21-.64V46.67l.53-1.06.53-.43Z"/><path class="cls-11" d="M124.1,43.06h1.16v.85l-.74.21-.21,1h1v.85h-1v4h-1.06v-4h-.53v-.75l.53-.1v-.85l.21-.64Z"/><path class="cls-10" d="M190.39,7H192l.74.42-.31.54-.43.1-.74-.21L190.6,8l-.1.53.84.21,1,.21.53.53V10.5l-.53.64-.43.21h-1.69l-.85-.43.11-.42.31-.32.43.11.63.21h.64l.42-.42-.1-.32-1.7-.32-.53-.53V7.85l.32-.53Z"/><path class="cls-13" d="M176.92,43.59h.85l.21.11v1.38h.85v.85L178,46v2.55l.21.32.64.21.1.42-.1.43h-1.06l-.64-.43-.21-.42L176.81,46l-.42-.1v-.75l.42-.1Z"/><path class="cls-14" d="M185.09,43.06H186l.11,5.73.85.32v.74l-.11.11h-.95l-.64-.43-.21-.31L185,47.94V43.49Z"/><path class="cls-8" d="M193.89,5.83h1V7.11h.75l.1.1v.64h-.85L195,10.5h.64l.1.11v.63l-.1.11h-.85l-.53-.32-.32-.74V7.85l-.53-.11.11-.63h.42Z"/><path class="cls-7" d="M186.57,13.79h1v6h-.85l-.21-4.77-.85.74h-.11V14.74Z"/><path class="cls-2" d="M188,45.08H189V50H188Z"/><path class="cls-15" d="M148.92,43.06l-.11,2.23-.74-.32h-.74l-.53.21-.53.43L146,46.67v1.59l.1.64.32.63L147,50h1.27l.64-.32.1.32h1v-6.9Zm0,5-.32.74-.21.21h-.85l-.43-.42-.1-.32V46.67l.32-.53.53-.21.53.1.42.43.11.53Z"/><path class="cls-16" d="M199.09,5.3v2L198.45,7h-.95l-.53.32-.43.64-.1,1,.1,1.48.21.43.64.53h1.27l.43-.32v.32h.85v-6Zm0,4.35-.32.74-.21.11h-.64l-.42-.42-.11-.43V8.59l.32-.63.21-.11h.64l.42.53.11.42Z"/><path class="cls-7" d="M201.74,14.64l-.53-.64-.74-.32h-.75l-.42.11-.74.64-.32.84V16l.11.31.63.75.74.31.53-.1-.95,1.91-.21.63H200l1.06-2,.75-1.7V15ZM200.89,16l-.53.53-.74-.11-.32-.32-.11-.85.32-.53.43-.21.63.11.32.42Z"/><path class="cls-12" d="M192.62,14.21l-.64-.42-.95-.11-.53.11-.64.42-.42.85v1.06l.21.43.53.63.74.21.42.11-1,1.8-.11.53h1l1.27-2.54.53-1.38v-.74Zm-.53,1.7-.43.53-.74.11-.53-.53v-.85l.42-.53.32-.11.64.21.32.43Z"/><path class="cls-11" d="M144.68,45.82l-.54-.53L143.3,45h-1.06l-.43.11-.63.32-.11.53.21.21.43.21.53-.32h.95l.32.22.21.84h-1.91l-.42.22-.53.53v1.38l.32.42.84.42h.75l1.06-.42V50h.95V46.14Zm-1,2.76-.53.53h-1.06l-.32-.43.11-.63.42-.21h1.38Z"/><path class="cls-13" d="M129.72,45.82l-.42-.53-.85-.32h-1.38l-.32.11-.64.53.22.53.53.21.42-.32h.95l.43.11.11,1h-1.91l-.64.32-.32.53v1.17l.53.64.74.31h.75l.85-.42.1.32h.74l.22-.43V46.25Zm-.95,2.86-.54.43h-1.06l-.31-.53.1-.53.43-.21h1.38Z"/><path class="cls-11" d="M198.56,45.82l-.53-.53-.85-.32h-1.06l-.43.11-.74.42-.11.32.43.43.42.1.43-.32h1.06l.21.11.21,1h-1.91l-.63.32-.32.53v1.17l.1.21.54.53.84.21,1-.1.42-.32.11.32h.95V46.14Zm-1,2.86-.53.43h-.95l-.43-.43.11-.63.53-.21h1.27Z"/><path class="cls-8" d="M183.6,46l-.42-.63-1-.43H181l-1.06.53v.32l.32.32.42.21.43-.32h1.06l.21.11.32,1h-2l-.32.11-.31.32-.32.53v1l.32.53.63.43H182l.53-.32.11.32h.95l.11-2.12Zm-1.16,2.76-.54.32h-.84l-.32-.21v-.85l.42-.21h1.38l.11.42Z"/><path class="cls-17" d="M155,45.93l-.53-.64-1-.32h-1l-.53.11-.53.32-.21.42.32.32.42.21.53-.32h1l.21.11.32,1H152.1l-.32.11-.42.32-.32.63v.75l.32.63L152,50l1,.1,1-.31L154,50h1l.11-.21V46.56Zm-1.06,2.75-.32.32-.31.11h-.85l-.32-.32v-.64l.42-.31H154Z"/><path class="cls-7" d="M175.43,46.14l-.53-.74-.84-.43H173l-.85.43-.43.53-.32,1.16v.85l.11.53.42,1,.64.42,1,.21.95-.1.74-.43.21-.42-.31-.32-.53-.11-.53.32h-.75l-.53-.32-.32-.84h3.08l.11-.11v-.85Zm-1,1h-2l.11-.63.53-.53H174l.53.63.11.43Z"/><path class="cls-7" d="M181.8,42.64h1.27l-.74,1.17-.32.42h-.85Z"/><path class="cls-1" d="M188.69,9.33l-.1-1.16-.32-.64L187.42,7h-1.17l-.42.21-.53.53-.32,1v1l.11.53.31.64.54.42.84.22,1.17-.22.64-.53-.32-.42-.53-.11-.32.21-.64.11-.53-.21-.31-.85h2.65Zm-.95-.53h-1.8l.1-.63.32-.32.32-.11.63.11.43.64Z"/><path class="cls-18" d="M201.31,10.18h1l.11.11v1l-.11.11h-1.06V10.29Z"/><path class="cls-19" d="M188,43.06H189v1.06l-.1.11h-1Z"/><path class="cls-7" d="M209.8,4l-.32-.32.53-.63-.1-.85-.32-.32-1-.21h-.84l-.75.1V5.52h.85V4l.85.21L209,5l.32.53H210l.11-.43Zm-1.06-.74-.74.1-.11-.1V2.44h.85l.32.53Z"/></g></g></svg>