<svg xmlns="http://www.w3.org/2000/svg" viewBox="0 0 150.1 25.63"><defs><style>.cls-1{fill:#0d0d0d;}</style></defs><g id="Camada_2" data-name="Camada 2"><g id="Camada_1-2" data-name="Camada 1"><path class="cls-1" d="M19.45,0H9.21A1.88,1.88,0,0,0,7.67,3L17.91,17.39a1.88,1.88,0,0,0,3.42-1.09V1.89A1.89,1.89,0,0,0,19.45,0Z"/><path class="cls-1" d="M7.44,25.63H17.68a1.9,1.9,0,0,0,1.54-3L9,8.24A1.88,1.88,0,0,0,5.55,9.33V23.74A1.89,1.89,0,0,0,7.44,25.63Z"/><path class="cls-1" d="M1.71,0h0a1.7,1.7,0,0,1,1.7,1.71V23.92a1.71,1.71,0,0,1-1.7,1.71h0A1.71,1.71,0,0,1,0,23.92V1.71A1.7,1.7,0,0,1,1.71,0Z"/><path class="cls-1" d="M136.41,21.56a.42.42,0,0,1-.31-.13.45.45,0,0,1-.14-.32l0-.24,5.58-14.56a.7.7,0,0,1,.72-.5h1.44a.7.7,0,0,1,.72.5l5.59,14.56,0,.24a.42.42,0,0,1-.15.32.44.44,0,0,1-.32.13h-1.06a.59.59,0,0,1-.38-.11.71.71,0,0,1-.18-.27l-1.26-3.24H139.3l-1.24,3.24a.58.58,0,0,1-.56.38Zm2.89-3.62h7.45L143,8Z"/><path class="cls-1" d="M128.57,21.56a.81.81,0,0,1-.81-.58L122.69,6.51l0-.25a.42.42,0,0,1,.13-.31.53.53,0,0,1,.34-.14h1.08a.51.51,0,0,1,.38.14.46.46,0,0,1,.21.27l4.45,12.87,4.48-12.87A.5.5,0,0,1,133.9,6a.62.62,0,0,1,.41-.14h1.08a.45.45,0,0,1,.32.14.42.42,0,0,1,.13.31,1.47,1.47,0,0,1,0,.25L130.75,21a.81.81,0,0,1-.81.58Z"/><path class="cls-1" d="M118.27,21.56a.48.48,0,0,1-.36-.13.57.57,0,0,1-.14-.38V6.33a.49.49,0,0,1,.14-.36.47.47,0,0,1,.36-.16h1.12a.53.53,0,0,1,.39.14.52.52,0,0,1,.13.38V21.05a.51.51,0,0,1-.16.38.48.48,0,0,1-.36.13Z"/><path class="cls-1" d="M108.74,21.56a.55.55,0,0,1-.38-.13.57.57,0,0,1-.14-.38V7.75h-4.34a.48.48,0,0,1-.52-.52V6.35A.52.52,0,0,1,103.5,6a.53.53,0,0,1,.38-.16h10.81a.5.5,0,0,1,.38.16.52.52,0,0,1,.13.38v.88a.52.52,0,0,1-.15.38.49.49,0,0,1-.36.14h-4.33v13.3a.54.54,0,0,1-.15.38.59.59,0,0,1-.39.13Z"/><path class="cls-1" d="M95.43,21.79a6.11,6.11,0,0,1-4.57-1.62,6.67,6.67,0,0,1-1.66-4.48c0-.4,0-1.06,0-2s0-1.6,0-2a6.58,6.58,0,0,1,1.66-4.46,6.08,6.08,0,0,1,4.57-1.64,7.33,7.33,0,0,1,3.4.72,5,5,0,0,1,2.1,1.84,5.14,5.14,0,0,1,.79,2.46.44.44,0,0,1-.16.33.49.49,0,0,1-.34.12H100.1a.57.57,0,0,1-.37-.12.79.79,0,0,1-.2-.38,3.82,3.82,0,0,0-1.39-2.43,4.69,4.69,0,0,0-2.71-.7q-3.92,0-4.07,4.37c0,.4,0,1,0,1.87s0,1.47,0,1.91q.15,4.33,4.07,4.34a4.68,4.68,0,0,0,2.71-.7,3.74,3.74,0,0,0,1.39-2.4.88.88,0,0,1,.2-.39.62.62,0,0,1,.37-.11h1.12a.46.46,0,0,1,.34.14.37.37,0,0,1,.16.31,5.07,5.07,0,0,1-.79,2.45,5.13,5.13,0,0,1-2.1,1.87A7.47,7.47,0,0,1,95.43,21.79Z"/><path class="cls-1" d="M80,21.79a6.14,6.14,0,0,1-4.48-1.55,6.46,6.46,0,0,1-1.57-4.75V6.35A.52.52,0,0,1,74,6a.47.47,0,0,1,.36-.16h1.08a.48.48,0,0,1,.38.16.46.46,0,0,1,.16.38v9.18a4.65,4.65,0,0,0,1,3.29A3.85,3.85,0,0,0,80,19.9a3.74,3.74,0,0,0,2.88-1.08,4.65,4.65,0,0,0,1-3.29V6.35A.52.52,0,0,1,84,6a.48.48,0,0,1,.38-.16h1.08a.47.47,0,0,1,.36.16.5.5,0,0,1,.16.38v9.14a6.47,6.47,0,0,1-1.58,4.75A6.06,6.06,0,0,1,80,21.79Z"/><path class="cls-1" d="M59,21.56a.48.48,0,0,1-.36-.13.57.57,0,0,1-.14-.38V6.35A.52.52,0,0,1,58.68,6,.47.47,0,0,1,59,5.81h5.08q3.41,0,4.91,1.53a6.34,6.34,0,0,1,1.56,4.57c0,.44,0,1,0,1.76s0,1.32,0,1.77a8.53,8.53,0,0,1-.7,3.49,4,4,0,0,1-2,2,8.47,8.47,0,0,1-3.64.65Zm5.08-1.86a6.07,6.07,0,0,0,2.5-.43A2.69,2.69,0,0,0,68,17.9a6.64,6.64,0,0,0,.48-2.55c0-.9,0-1.46,0-1.68s0-.8,0-1.67a4.62,4.62,0,0,0-1.08-3.28A4.5,4.5,0,0,0,64,7.66H60.66v12Z"/><path class="cls-1" d="M43.43,21.56a.48.48,0,0,1-.36-.13.57.57,0,0,1-.14-.38V6.35A.52.52,0,0,1,43.07,6a.47.47,0,0,1,.36-.16h1a.5.5,0,0,1,.33.09,1.66,1.66,0,0,1,.23.23l7.54,11.61V6.35A.52.52,0,0,1,52.66,6,.53.53,0,0,1,53,5.81h1a.52.52,0,0,1,.39.16.49.49,0,0,1,.15.38V21a.56.56,0,0,1-.15.39.5.5,0,0,1-.37.15h-1a.56.56,0,0,1-.54-.31L45,9.75v11.3a.51.51,0,0,1-.16.38.48.48,0,0,1-.36.13Z"/><path class="cls-1" d="M37.31,21.56a.48.48,0,0,1-.36-.13.57.57,0,0,1-.13-.38V6.33A.48.48,0,0,1,37,6a.47.47,0,0,1,.36-.16h1.13a.48.48,0,0,1,.52.52V21.05a.55.55,0,0,1-.16.38.48.48,0,0,1-.36.13Z"/></g></g></svg>