<svg xmlns="http://www.w3.org/2000/svg" viewBox="0 0 251.78 30.91"><defs><style>.cls-1{fill:#07a7d6;}.cls-2{fill:#eb7006;}</style></defs><g id="Camada_2" data-name="Camada 2"><g id="Camada_1-2" data-name="Camada 1"><path class="cls-1" d="M167,9.05c2.68,0,5.36,0,8,0a6.65,6.65,0,0,1,6.37,5.43c.14.84,0,1.26-1,1.23-1.34-.06-2.69,0-4,0-1.18,0-2.42.29-3.06-1.26-.25-.62-1.12-.63-1.81-.63h-9.22c-1.29,0-2.26.51-2.22,1.92s1,1.77,2.19,1.76q6,0,11.9,0c4.26,0,7.29,2.79,7.27,6.65s-3.05,6.67-7.26,6.67c-5,0-10,0-14.93,0a6.74,6.74,0,0,1-6.69-5.48c-.16-.85,0-1.24.95-1.19,1.4.08,2.8,0,4.19,0,1.13,0,2.34-.31,2.88,1.25.21.61,1,.57,1.65.57,3.13,0,6.26,0,9.39,0,1.29,0,2.29-.46,2.26-1.85s-1.11-1.8-2.36-1.8c-4,0-7.94,0-11.9,0-4.21,0-7.12-2.78-7.14-6.62s3-6.62,7.26-6.64C162.21,9,164.61,9.05,167,9.05Z"/><path class="cls-1" d="M150.39,30.82c-2.9,0-5.41-.08-7.91,0a3,3,0,0,1-2.77-1.43c-1.61-2.13-3.3-4.21-5-6.3-.55-.68-3.66-1.15-4.37-.71-.49.29-.33.78-.34,1.2,0,1.95-.05,3.91,0,5.86,0,1-.22,1.41-1.29,1.37-1.67-.08-3.35-.08-5,0-1.07.05-1.31-.37-1.3-1.36q.06-9.63,0-19.27c0-1,.34-1.19,1.26-1.18,6.65,0,13.29,0,19.94,0a6.6,6.6,0,0,1,1.61,13c-1.3.31-1.27.6-.53,1.51C146.57,25.9,148.36,28.23,150.39,30.82Zm-14.3-17h-3.51c-2.77,0-2.73,0-2.59,2.7,0,.85.37,1,1.11,1,3.23,0,6.46,0,9.69,0a1.74,1.74,0,0,0,2-1.76c.05-1.32-.82-1.88-2-1.91C139.2,13.78,137.64,13.81,136.09,13.81Z"/><path class="cls-1" d="M197.71,9.05c2.62,0,5.25,0,7.88,0a6.22,6.22,0,0,1,6.46,6.12c.15,3.18.14,6.37,0,9.55a6.3,6.3,0,0,1-6.53,6.08q-7.71,0-15.43,0c-4.35,0-7-2.69-7-7,0-2.74,0-5.48,0-8.21a6.33,6.33,0,0,1,6.57-6.54C192.34,9,195,9.05,197.71,9.05ZM197.62,26c1.56,0,3.12,0,4.68,0a2,2,0,0,0,2.25-2.24c0-2.57,0-5.13,0-7.7a1.93,1.93,0,0,0-2.11-2.22q-4.85,0-9.7,0a1.87,1.87,0,0,0-2.06,2.09c0,2.62,0,5.24,0,7.86A2,2,0,0,0,192.94,26C194.5,26,196.06,26,197.62,26Z"/><path class="cls-1" d="M120.74,30.81c-2.61,0-5.1,0-7.6,0-1.06,0-1.19-1-1.4-1.65-.56-1.73-1.65-2.19-3.38-2.09-2.45.15-4.92.09-7.37,0-1.15,0-1.94.23-2.25,1.41-.51,1.92-1.7,2.62-3.69,2.35a23.41,23.41,0,0,0-4.35,0c-1.2.07-1.48-.15-.88-1.33,2.4-4.72,4.71-9.49,7.05-14.24.84-1.7,1.73-3.38,2.52-5.1A1.63,1.63,0,0,1,101.14,9c2.63.08,5.25.05,7.88,0a1.47,1.47,0,0,1,1.6.87c3.27,6.71,6.59,13.41,9.89,20.12A5.71,5.71,0,0,1,120.74,30.81ZM105.06,15.69c-1.19,2.42-2.26,4.61-3.36,6.79-.32.63-.27.91.51.91,1.89,0,3.78,0,5.67,0,.77,0,.82-.34.51-.94C107.3,20.27,106.24,18.09,105.06,15.69Z"/><path class="cls-1" d="M225.72,9.05c3.18,0,6.36,0,9.55,0a6.62,6.62,0,1,1,.1,13.24c-4,.07-8.05.06-12.07,0-1.24,0-1.67.36-1.6,1.61.1,1.84,0,3.69.05,5.53.06,1.13-.34,1.45-1.43,1.4-1.61-.08-3.24-.06-4.86,0-.9,0-1.28-.21-1.27-1.21q0-9.71,0-19.43c0-1.07.46-1.16,1.3-1.15C218.9,9.07,222.31,9.05,225.72,9.05Zm1.85,8.45h0c1.67,0,3.35,0,5,0a1.76,1.76,0,0,0,2-1.84,1.76,1.76,0,0,0-2-1.83c-3.3,0-6.6,0-9.89,0-1.51,0-.88,1.07-1,1.78-.25,1.45.23,2.13,1.85,2A35.91,35.91,0,0,1,227.57,17.5Z"/><path class="cls-2" d="M17.07,25.58c-.9,1.44-1.82,2.83-2.65,4.27a1.72,1.72,0,0,1-1.73,1c-4.14-.05-8.27,0-12.69,0l3.17-5.19c4.29-7,8.55-14,12.92-20.95A9.46,9.46,0,0,1,27,.39a9.37,9.37,0,0,1,5.8,4.5c.43.76.85,1.54,1.29,2.32.62-.27.67-.83.91-1.22A11.35,11.35,0,0,1,45,.06q15.09-.12,30.19,0a11.63,11.63,0,0,1,1.13,23.16,45.57,45.57,0,0,1-5.36.16c-.8,0-1.06.25-1,1.05,0,1.79,0,3.58,0,5.36,0,.8-.23,1.05-1,1-3.24,0-6.48,0-9.72,0-.32,0-.86.13-.91-.2-.28-1.86-1.25-.71-2-.47a12.74,12.74,0,0,1-4.11.68c-8.44,0-16.88,0-25.32,0-4,0-7.18-1.36-9.33-4.83C17.49,25.87,17.32,25.79,17.07,25.58Zm17.48-15c-1-1.83-1.71-3.29-2.5-4.74-3.26-6-11.24-6.45-14.9-.74-5,7.76-9.69,15.68-14.53,23.51-.54.86-.39,1.14.63,1.13,3,0,6-.05,9.06,0a1.62,1.62,0,0,0,1.54-1C15,26.8,16.17,24.92,17.38,23c2.41,5.11,4.72,6.79,9.18,6.78,7.88,0,15.76-.07,23.64,0,3.23,0,6.4,0,9-2.91a8.19,8.19,0,0,1,0,1.17c-.25,1.42.35,1.83,1.74,1.75,2.11-.11,4.25-.07,6.37,0,1.13.05,1.64-.23,1.55-1.47-.1-1.5.07-3,0-4.52-.11-1.26.39-1.55,1.51-1.49,1.4.08,2.8,0,4.19,0,6.23-.08,10.92-4.6,10.93-10.54S80.69,1.1,74.43,1.08c-9.62,0-19.23,0-28.85,0a11.16,11.16,0,0,0-5.32,1.27C37.12,4,35.3,6.67,34.55,10.55Z"/><path class="cls-1" d="M244.19,19.89c0-3.24,0-6.47,0-9.71,0-.87.2-1.19,1.09-1.17,1.79.05,3.58.05,5.36,0,.86,0,1.17.23,1.16,1.13q0,9.8,0,19.59c0,1-.38,1.12-1.19,1.1-1.73,0-3.46-.07-5.19,0-1,0-1.24-.28-1.23-1.23C244.23,26.37,244.19,23.13,244.19,19.89Z"/><path class="cls-2" d="M5.75,27.6c2-3.2,3.74-6.13,5.54-9.06q3.69-6,7.37-12A6.46,6.46,0,0,1,30,6.63c1.23,2.12,2.36,4.31,3.44,6.52a4.72,4.72,0,0,1-4.21,7c-1.06,0-2.13,0-3.19,0-.61,0-1.1.28-1.12,1s.42,1,1.05,1a11.84,11.84,0,0,0,1.33.06H51.65l.84,0c.69,0,1.28-.23,1.31-1s-.57-1.13-1.34-1.13H45.75a9.4,9.4,0,0,1-3.45-.53A8.43,8.43,0,0,1,45,3.27c6.37-.09,12.74,0,19.11,0,3.52,0,7,0,10.56,0a8.56,8.56,0,0,1,8.73,8.49,8.55,8.55,0,0,1-8.62,8.44c-2.29,0-4.59,0-6.88,0-.87,0-1.19.29-1.16,1.17,0,1.73,0,3.46,0,5.19,0,.79-.21,1-1,1.09-4.36.3-4.36.32-4.37-4,0-2.46,0-4.92,0-7.37,0-1.1.3-1.46,1.41-1.45,3.8.06,7.6,0,11.4,0,2.39,0,3.91-1.27,3.88-3.2S76.43,8.5,74.16,8.5q-14.16,0-28.33,0c-2.33,0-3.71,1.21-3.74,3.16s1.3,3.16,3.67,3.18,4.47,0,6.71,0a6.53,6.53,0,0,1,6.76,6.42c0,3.58-2.9,6.3-6.81,6.31-8.88,0-17.77,0-26.65,0a6.25,6.25,0,0,1-6.09-5,6.35,6.35,0,0,1,3.87-7.2,7.27,7.27,0,0,1,2.95-.49c1.35,0,1.55-.61,1-1.7s-1.08-2.07-1.65-3.1C24.9,8.4,23.87,8.36,22.86,10q-5.07,8.17-10.08,16.4a2.07,2.07,0,0,1-2.1,1.23C9.14,27.54,7.59,27.6,5.75,27.6Z"/></g></g></svg>