<svg xmlns="http://www.w3.org/2000/svg" xmlns:xlink="http://www.w3.org/1999/xlink" viewBox="0 0 1060.24 295.06" style="fill: rgb(0, 0, 0);" original_string_length="5957" width="715.9921059023047px" height="199.58279952026746px"><g><g><path d="M671.8,90.03l-13.1,3.81v69.52c0,5.04,3.11,10.64,7.37,13.31l16.47,10.3c3.41,2.14,8.81,3.68,12.84,3.68 h21.05v-13.1h-21.05c-1.55,0-4.58-0.87-5.89-1.69l-16.47-10.29c-0.49-0.34-1.2-1.62-1.23-2.2v-43.43h44.63v-13.1H671.8V90.03z" style="fill: rgb(230, 80, 60);"/></g><g><path d="M815.91,116.64l-30.21-10.15c-3.99-1.34-9.79-1.34-13.78,0l-30.21,10.15c-5.29,1.78-9.27,7.32-9.27,12.89 v34.52c0,4.99,3.03,10.59,7.21,13.32l14.42,9.42c3.4,2.22,8.82,3.84,12.89,3.84h51.67v-13.1h-51.67c-1.52,0-4.46-0.88-5.73-1.71 l-14.4-9.42c-0.52-0.36-1.26-1.74-1.29-2.37l-0.02-34.38c0.05-0.2,0.31-0.56,0.35-0.61l30.21-10.15c1.29-0.44,4.15-0.44,5.45,0 l30.08,10.1c0.17,0.11,0.44,0.46,0.47,0.52v14.94h-48.76v13.1h50.24c6.41,0,11.62-5.21,11.62-11.61v-16.42 C825.19,123.96,821.2,118.42,815.91,116.64z" style="fill: rgb(230, 80, 60);"/></g><g><path d="M367.16,116.64l-30.21-10.15c-3.99-1.34-9.79-1.34-13.78,0l-30.21,10.15c-5.29,1.78-9.27,7.32-9.27,12.89 v34.52c0,4.99,3.03,10.59,7.21,13.32l14.42,9.42c3.4,2.22,8.82,3.84,12.89,3.84h51.67v-13.1h-51.67c-1.52,0-4.46-0.88-5.73-1.71 l-14.4-9.42c-0.52-0.36-1.26-1.74-1.29-2.37l-0.02-34.38c0.05-0.2,0.31-0.56,0.35-0.61l30.21-10.15c1.29-0.44,4.15-0.44,5.45,0 l30.08,10.1c0.17,0.11,0.44,0.46,0.47,0.52v14.94h-48.76v13.1h50.24c6.41,0,11.62-5.21,11.62-11.61v-16.42 C376.43,123.96,372.45,118.42,367.16,116.64z" style="fill: rgb(230, 80, 60);"/></g><g><path d="M155.73,45.36c-0.02-0.01-0.03-0.01-0.05-0.02c-0.21-0.12-0.42-0.22-0.64-0.31c-0.01,0-0.02-0.01-0.04-0.01 c-0.2-0.08-0.4-0.15-0.61-0.21c-0.06-0.02-0.11-0.03-0.17-0.04c-0.17-0.04-0.35-0.08-0.53-0.1c-0.06-0.01-0.11-0.02-0.17-0.03 c-0.23-0.03-0.46-0.05-0.69-0.05c-0.23,0-0.46,0.02-0.69,0.05c-0.06,0.01-0.12,0.02-0.17,0.03c-0.18,0.03-0.35,0.06-0.53,0.1 c-0.06,0.02-0.11,0.03-0.17,0.04c-0.21,0.06-0.42,0.13-0.62,0.21c-0.01,0-0.03,0.01-0.04,0.01c-0.22,0.09-0.43,0.2-0.64,0.31 c-0.02,0.01-0.03,0.01-0.05,0.02L65.13,94.33c-1.79,1.03-2.9,2.94-2.9,5.01v97.93c0,0.02,0,0.03,0,0.05 c0,0.24,0.02,0.47,0.05,0.71c0,0.02,0.01,0.03,0.01,0.04c0.03,0.21,0.08,0.42,0.13,0.63c0.02,0.06,0.03,0.11,0.05,0.17 c0.05,0.17,0.11,0.34,0.17,0.51c0.02,0.05,0.04,0.11,0.06,0.16c0.09,0.21,0.19,0.42,0.3,0.62c0,0,0,0,0,0 c0.13,0.22,0.27,0.43,0.43,0.64c0.09,0.11,0.18,0.21,0.27,0.32c0.08,0.08,0.14,0.17,0.23,0.25c0.12,0.12,0.26,0.23,0.39,0.34 c0.06,0.05,0.12,0.11,0.18,0.16c0.15,0.12,0.31,0.22,0.47,0.32c0.05,0.03,0.1,0.07,0.15,0.1l0.03,0.02c0.01,0,0.02,0.01,0.02,0.01 l84.76,48.94c0.9,0.52,1.89,0.78,2.89,0.78s2-0.26,2.9-0.78l84.76-48.94c0.01,0,0.01-0.01,0.02-0.01l0.03-0.02 c0.05-0.03,0.1-0.07,0.15-0.1c0.16-0.1,0.32-0.2,0.47-0.32c0.06-0.05,0.12-0.1,0.18-0.16c0.14-0.11,0.27-0.22,0.39-0.34 c0.08-0.08,0.14-0.16,0.21-0.24c0.1-0.11,0.2-0.21,0.29-0.33c0.15-0.2,0.3-0.41,0.42-0.63c0,0,0,0,0,0 c0.12-0.2,0.21-0.41,0.3-0.62c0.02-0.05,0.04-0.11,0.06-0.16c0.07-0.17,0.13-0.34,0.18-0.51c0.02-0.05,0.03-0.11,0.05-0.16 c0.06-0.21,0.1-0.42,0.13-0.64c0-0.01,0.01-0.03,0.01-0.04c0.03-0.24,0.05-0.48,0.05-0.71c0-0.02,0-0.03,0-0.05V99.34 c0-2.07-1.1-3.98-2.89-5.01L155.73,45.36z M158.62,113.57l35.13,60.85l-35.13,20.28V113.57z M73.81,102.68l73.23-42.28v30.01 L99.77,172.3l-25.96,14.95V102.68z M147.04,113.57v81.13l-35.13-20.28L147.04,113.57z M152.83,239.55l-73.22-42.28L104,183.22 l45.94,26.52c0.02,0.01,0.03,0.02,0.05,0.02c0.2,0.12,0.41,0.22,0.63,0.31c0.02,0.01,0.04,0.01,0.06,0.02 c0.19,0.08,0.39,0.14,0.6,0.2c0.06,0.02,0.12,0.03,0.18,0.05c0.17,0.04,0.34,0.08,0.52,0.1c0.06,0.01,0.12,0.02,0.18,0.03 c0.23,0.03,0.46,0.04,0.69,0.04c0.23,0,0.46-0.02,0.69-0.04c0.06-0.01,0.12-0.02,0.18-0.03c0.18-0.03,0.35-0.06,0.52-0.1 c0.06-0.01,0.12-0.03,0.17-0.04c0.21-0.06,0.41-0.13,0.61-0.2c0.02-0.01,0.03-0.01,0.05-0.02c0.22-0.09,0.43-0.2,0.63-0.31 c0.02-0.01,0.03-0.01,0.05-0.02l45.94-26.52l24.39,14.05L152.83,239.55z M231.85,187.25L205.9,172.3l-47.28-81.88V60.4 l73.23,42.28V187.25z" style="fill: rgb(230, 80, 60);"/></g><g><path d="M473.73,95.73v19.78l-26.39-8.94c-4.06-1.37-9.91-1.28-13.93,0.21l-30.35,11.3 c-5.14,1.92-9.01,7.5-9.01,12.98v31.64c0,4.81,2.78,10.43,6.59,13.34l13.41,10.27c3.35,2.57,8.85,4.43,13.07,4.43h48.1 c6.4,0,11.61-5.21,11.61-11.61V91.92L473.73,95.73z M473.73,177.66h-46.61c-1.35,0-4.02-0.91-5.1-1.73l-13.42-10.28 c-0.6-0.47-1.44-2.18-1.45-2.94l-0.01-31.53c0.05-0.25,0.37-0.72,0.49-0.8l30.35-11.3c0.65-0.24,1.73-0.36,2.78-0.36 c0.92,0,1.81,0.09,2.38,0.29l30.59,10.35V177.66z" style="fill: rgb(230, 80, 60);"/></g><g><path d="M630.06,117.74l-13.34-9.12c-4.03-2.76-10.28-3.56-14.87-1.88l-30.21,10.95l-12-8.81 c-4-2.92-10.29-3.84-14.96-2.14l-24.94,9.04h-13v74.5h13.1v-60.6l29.29-10.62c0.62-0.21,2.22,0.03,2.76,0.39l12.06,8.85 c0.59,0.44,1.41,2.06,1.41,2.79v59.2h13.1v-59.2c0-0.6-0.17-1.22-0.25-1.84l28.09-10.18c0.69-0.23,2.44,0,3.02,0.38l13.33,9.12 c0.54,0.39,1.32,1.86,1.33,2.52v59.2h13.1v-59.2C637.09,126.13,634.13,120.52,630.06,117.74z" style="fill: rgb(230, 80, 60);"/></g><g><path d="M889.94,178.13c-1.3,0.4-4.17,0.33-5.47-0.14l-27.41-9.89c-0.2-0.12-0.5-0.56-0.54-0.67l-0.01-37.3 c0.05-0.23,0.35-0.67,0.45-0.74l27.51-9.94c1.11-0.38,3.68-0.34,4.75,0.1l23.24,9.5c0.26,0.16,0.65,0.74,0.69,0.96v21.11 l13.1-4.01v-17.09c0-5.48-3.69-10.97-8.76-13.05l-23.32-9.54c-4.08-1.66-10.02-1.79-14.16-0.29l-27.51,9.93 c-5.18,1.87-9.09,7.44-9.09,12.95v37.42c0,5.52,3.91,11.09,9.09,12.95l27.51,9.94c2.15,0.78,4.85,1.17,7.51,1.17 c2.22,0,4.42-0.27,6.24-0.83l31.09-9.5v-13.7L889.94,178.13z" style="fill: rgb(230, 80, 60);"/></g><g><g><path d="M1011.38,117.77l-15.62-9.56c-4.1-2.5-10.34-3.07-14.81-1.36l-21.37,8.17V92.1l-13.1,3.81v94.37h13.1v-61.22 l26.05-9.97c0.73-0.27,2.64-0.1,3.3,0.3l15.61,9.55c0.49,0.33,1.17,1.56,1.2,2.13v59.2h13.1v-59.2 C1018.84,126,1015.71,120.41,1011.38,117.77z" style="fill: rgb(230, 80, 60);"/></g></g></g></svg>