<svg xmlns="http://www.w3.org/2000/svg" viewBox="0 0 165.45 48.14"><defs><style>.cls-1{fill:#ef5522;}.cls-2{fill:#393939;}.cls-3{fill:#333;}.cls-4{fill:#353535;}.cls-5{fill:#a19f9e;}.cls-6{fill:#fefefe;}</style></defs><g id="Camada_2" data-name="Camada 2"><g id="Camada_1-2" data-name="Camada 1"><path class="cls-1" d="M23.1,46.81a20.85,20.85,0,0,1-7-1.15C8.07,42.82,2.8,37.32.78,29.12c-2.18-8.86.22-16.61,6.81-23A22.32,22.32,0,0,1,19.76.26,13,13,0,0,0,21.53,0h3.15l1.78.23A22.58,22.58,0,0,1,37.72,5.08a22.6,22.6,0,0,1,8.33,13.66,22.91,22.91,0,0,1-5.23,20,22.51,22.51,0,0,1-13,7.61,19.81,19.81,0,0,1-4.34.45c.13-.08.27,0,.4-.06a5,5,0,0,0,4.23-2.93,6,6,0,0,0,.49-2.57c0-3,0-6,0-9a9.67,9.67,0,0,0,3.06-2.84,10.25,10.25,0,0,0,1.68-8.27,10.14,10.14,0,0,0-5-6.84,8.42,8.42,0,0,0-3.64-1.22,6.66,6.66,0,0,0-2.88,0,4,4,0,0,0-.49,0,10.27,10.27,0,0,0-5.75,3.25A10.43,10.43,0,0,0,15,29.7,9,9,0,0,0,18,32.32c0,.18,0,.36,0,.54,0,3,0,5.91,0,8.86a5,5,0,0,0,3.86,4.89C22.26,46.73,22.69,46.71,23.1,46.81ZM38.43,10.89a2.66,2.66,0,1,0-2.69,2.66A2.68,2.68,0,0,0,38.43,10.89ZM13.44,36a2.66,2.66,0,1,0-5.31,0,2.66,2.66,0,1,0,5.31,0Zm25,0a2.66,2.66,0,1,0-2.68,2.68A2.67,2.67,0,0,0,38.43,36ZM10.91,13.55a2.68,2.68,0,1,0-2.68-2.68A2.69,2.69,0,0,0,10.91,13.55Z"/><path class="cls-2" d="M165.45,44.84a2.36,2.36,0,0,1-3.3.82,1.37,1.37,0,0,1-.54-.5.32.32,0,0,1,.06-.41.29.29,0,0,1,.41,0c.18.12.35.27.53.39a1.45,1.45,0,0,0,1.55.13.81.81,0,0,0,.49-.76.73.73,0,0,0-.49-.7c-.58-.26-1.17-.48-1.73-.76a1.22,1.22,0,0,1-.29-2,1.68,1.68,0,0,1,1.19-.49,3.08,3.08,0,0,1,1.52.31,1.31,1.31,0,0,1,.33.25.35.35,0,0,1,0,.48.32.32,0,0,1-.44.07,5.09,5.09,0,0,1-.5-.3,1.38,1.38,0,0,0-1.22-.11.66.66,0,0,0-.52.62.64.64,0,0,0,.45.66l1.29.54a2,2,0,0,1,1.17,1.08Z"/><path class="cls-3" d="M120.08,20.64V28.9a3.18,3.18,0,0,1-.81,2.39A3,3,0,0,1,116,32a2.69,2.69,0,0,1-1.92-2.49c0-.34,0-.68,0-1q0-7.87,0-15.77a1.79,1.79,0,0,0-1.35-2,2.71,2.71,0,0,0-1.82.11,1.86,1.86,0,0,0-1,1.82v4.42q0,5.92,0,11.85A3.1,3.1,0,0,1,109,31.3a3,3,0,0,1-3.25.71,2.68,2.68,0,0,1-1.92-2.39,8.22,8.22,0,0,1-.06-1c0-5.28,0-10.57,0-15.85,0-2-1.78-2.49-3.18-1.95a1.76,1.76,0,0,0-1.06,1.77v4.45q0,6,0,11.89a3.1,3.1,0,0,1-.82,2.35,3,3,0,0,1-3.24.73,2.68,2.68,0,0,1-1.93-2.34,4.71,4.71,0,0,1-.06-.74c0-5.45,0-10.9,0-16.35a7.52,7.52,0,0,1,4.66-7.31,8.19,8.19,0,0,1,8.29.72.49.49,0,0,0,.67,0c3.61-2.64,10.52-2,12.58,4a8.64,8.64,0,0,1,.38,2.72Z"/><path class="cls-3" d="M132.62,5.36h4.88a7.86,7.86,0,0,1,7.81,6.26,8.14,8.14,0,0,1,.19,2.09c-.14,3.45,0,6.91-.06,10.36a8,8,0,0,1-1.23,4.38A7.46,7.46,0,0,1,138,32.09c-2.72.11-5.45.09-8.18,0a7.82,7.82,0,0,1-7.31-6.77,8.53,8.53,0,0,1,1.32-6.22,7.73,7.73,0,0,1,6.58-3.41c2.32,0,4.63,0,6.95,0a1.87,1.87,0,0,0,2.07-2.07,1.92,1.92,0,0,0-1.35-2.11,2.83,2.83,0,0,0-.77-.06h-9.84a3.61,3.61,0,0,1-1.95-.44,3.11,3.11,0,0,1-1.34-3.19,2.84,2.84,0,0,1,2.39-2.4,8.77,8.77,0,0,1,1-.06ZM133.93,26h0c1.23,0,2.45,0,3.68,0a1.77,1.77,0,0,0,1.78-1.79c0-.77,0-1.55,0-2.32,0-.27-.07-.32-.32-.27a10.17,10.17,0,0,1-2.06.16q-3.22,0-6.45,0a2.68,2.68,0,0,0-.69.05c-1,.27-1.54,1.19-1.38,2.52A1.8,1.8,0,0,0,130.33,26Z"/><path class="cls-3" d="M77.05,32.13H70.68A2.81,2.81,0,0,1,68,30.55a3.12,3.12,0,0,1,.32-3.42A3,3,0,0,1,70.86,26h12a2.17,2.17,0,0,0,1.2-.24,1.77,1.77,0,0,0,.88-1.41,4,4,0,0,0,0-1.19A1.8,1.8,0,0,0,83,21.8c-2.67,0-5.35,0-8,0a7.84,7.84,0,0,1-4.69-1.46A7.75,7.75,0,0,1,67,14.67a8.24,8.24,0,0,1,2.13-6.86,7.28,7.28,0,0,1,5.22-2.42c4.21-.06,8.41,0,12.62,0A2.81,2.81,0,0,1,89.76,7.3a3.19,3.19,0,0,1-.89,3.49,3.37,3.37,0,0,1-2.25.67c-3.82,0-7.63,0-11.45,0-2.18,0-2.5,1.9-2,3.18a1.72,1.72,0,0,0,1.75,1.08h8a7.72,7.72,0,0,1,5.3,1.95A8,8,0,0,1,91,24.48a7.8,7.8,0,0,1-4,6.6,7,7,0,0,1-3.57,1c-2.12,0-4.24,0-6.37,0Z"/><path class="cls-3" d="M28.65,32.3c0,3,0,6,0,9a6,6,0,0,1-.49,2.57,5,5,0,0,1-4.23,2.93c-.13,0-.27,0-.4.06h-.41c-.42-.1-.85-.08-1.26-.2A5,5,0,0,1,18,41.72c0-2.95,0-5.91,0-8.86,0-.18,0-.36,0-.54s0-.46,0-.7V18.46a5.31,5.31,0,0,1,1.59-4.06,5.79,5.79,0,0,1,2.29-1.26,6.66,6.66,0,0,1,2.88,0,6.08,6.08,0,0,1,2.32,1.28,5.38,5.38,0,0,1,1.58,4.07V30.07C28.64,30.82,28.65,31.56,28.65,32.3Z"/><path class="cls-4" d="M58.54,18.73V8.82a3.2,3.2,0,0,1,.83-2.43,3.05,3.05,0,0,1,3.28-.7,2.69,2.69,0,0,1,1.9,2.45,9.63,9.63,0,0,1,0,1.2V28.61a3.78,3.78,0,0,1-.46,2,3.1,3.1,0,0,1-3.24,1.3,2.79,2.79,0,0,1-2.31-2.6c-.11-1.88,0-3.77-.05-5.65C58.53,22,58.54,20.38,58.54,18.73Z"/><path class="cls-4" d="M89.8,41a1.84,1.84,0,0,1,2.71,0c.18.15.24,0,.33-.06a2.07,2.07,0,0,1,1.6-.53,1.72,1.72,0,0,1,1.68,1.71c0,1,0,2,0,3.05a.71.71,0,0,1-.69.78.7.7,0,0,1-.72-.77c0-.75,0-1.49,0-2.23a4.77,4.77,0,0,0,0-.66.83.83,0,0,0-.77-.68.8.8,0,0,0-.81.58,1.86,1.86,0,0,0-.08.62c0,.71,0,1.43,0,2.14a1.94,1.94,0,0,1,0,.49.66.66,0,0,1-.72.51.65.65,0,0,1-.63-.6,11.93,11.93,0,0,1,0-1.69c0-.43,0-.86,0-1.28a.83.83,0,0,0-.81-.78.8.8,0,0,0-.83.76,5.62,5.62,0,0,0,0,.58c0,.72,0,1.43,0,2.15,0,.53-.29.85-.7.86s-.73-.28-.74-.81c0-1.3,0-2.59,0-3.88a.7.7,0,0,1,.59-.78A.66.66,0,0,1,89.8,41Z"/><path class="cls-4" d="M66.76,41.06c.18-.41.44-.64.88-.54s.57.35.57.88c0,1.94,0,3.88,0,5.82,0,.06,0,.13,0,.2-.06.45-.32.72-.7.72a.72.72,0,0,1-.72-.75c0-.58,0-1.17,0-1.81a2.27,2.27,0,0,1-1.55.47,2.41,2.41,0,0,1-2.07-2,3.31,3.31,0,0,1,.45-2.68A2,2,0,0,1,66.76,41.06Zm-2.25,2.23a1.94,1.94,0,0,0,.15.72,1,1,0,0,0,1,.7,1,1,0,0,0,1-.71,1.94,1.94,0,0,0,0-1.6,1,1,0,0,0-.85-.62,1,1,0,0,0-1,.52A1.89,1.89,0,0,0,64.51,43.29Z"/><path class="cls-4" d="M78.31,45.61c0,.49,0,.93,0,1.37a3.64,3.64,0,0,1,0,.57.69.69,0,0,1-1.34.11.46.46,0,0,1-.05-.2c0-2.09,0-4.18,0-6.27A.7.7,0,0,1,78,40.61a.91.91,0,0,1,.3.43,2.06,2.06,0,0,1,3.41.79,3.32,3.32,0,0,1,0,2.84A2.22,2.22,0,0,1,78.31,45.61Zm2.27-2.39a2,2,0,0,0-.28-.95,1,1,0,0,0-1.79.11,1.89,1.89,0,0,0-.18,1c0,.85.51,1.4,1.16,1.37S80.58,44.05,80.58,43.22Z"/><path class="cls-4" d="M58.65,42.33c0-.88,0-1.76,0-2.64,0-.72.27-1,1-1h2.19c.52,0,.81.26.81.69s-.3.69-.79.7-.94,0-1.41,0c-.21,0-.29.05-.28.28,0,.38-.12.87.07,1.12s.69,0,1.06.08h.5c.46,0,.73.27.75.66a.69.69,0,0,1-.73.72,11.8,11.8,0,0,1-1.33,0c-.24,0-.34,0-.32.32s-.16.9.07,1.15.73,0,1.11.07a5.08,5.08,0,0,1,.87,0,.62.62,0,0,1,.51.69.59.59,0,0,1-.57.64c-1,0-1.9,0-2.85,0-.42,0-.63-.32-.64-.82C58.64,44.17,58.65,43.25,58.65,42.33Z"/><path class="cls-4" d="M86.17,45.43a2.09,2.09,0,0,1-3.31-.5,3.39,3.39,0,0,1,.25-3.68A2,2,0,0,1,86.17,41a2.08,2.08,0,0,1,.19-.29.7.7,0,0,1,.74-.23.56.56,0,0,1,.45.53,10.6,10.6,0,0,1,0,1.69c0,.89,0,1.79,0,2.68a.55.55,0,0,1-.42.54.71.71,0,0,1-.7-.13A2.78,2.78,0,0,1,86.17,45.43Zm-2.29-2.19A1.66,1.66,0,0,0,84,44a1.06,1.06,0,0,0,1,.74A1,1,0,0,0,86,44a1.87,1.87,0,0,0-.1-1.66,1,1,0,0,0-1.75,0A1.65,1.65,0,0,0,83.88,43.24Z"/><path class="cls-4" d="M99.82,43.73c-.44,0-.88,0-1.32,0s-.38.14-.24.41a1.45,1.45,0,0,0,1.66.58,4.92,4.92,0,0,0,.9-.42.6.6,0,0,1,.69,1,3.07,3.07,0,0,1-3.09.63,2.44,2.44,0,0,1-1.71-2.08,2.94,2.94,0,0,1,.63-2.47,2.44,2.44,0,0,1,2.84-.72,2.79,2.79,0,0,1,1.66,2.54.5.5,0,0,1-.53.55H99.82Zm-.58-1c.29,0,.58,0,.87,0s.28-.11.22-.32a1.13,1.13,0,0,0-1.11-.81,1.15,1.15,0,0,0-1.06.89c0,.18,0,.24.18.24Z"/><path class="cls-4" d="M115.91,43.24a2.61,2.61,0,0,1-3.41,2.68,2.85,2.85,0,0,1-1.63-3.63,2.55,2.55,0,0,1,3.19-1.74A2.79,2.79,0,0,1,115.91,43.24Zm-3.75,0a2,2,0,0,0,.17.76,1,1,0,0,0,2,0,2,2,0,0,0,.11-1.13,1.17,1.17,0,0,0-1-1.09,1.1,1.1,0,0,0-1.13,1C112.2,42.92,112.19,43.08,112.16,43.25Z"/><path class="cls-2" d="M103.77,41a2,2,0,0,1,2.2-.38,1.7,1.7,0,0,1,1.15,1.7c0,1,0,1.92,0,2.88a.76.76,0,0,1-.7.83.72.72,0,0,1-.73-.78c0-.82,0-1.65,0-2.47,0-.63-.19-.92-.62-1a.89.89,0,0,0-1.22.88c0,.78,0,1.56,0,2.35a2.33,2.33,0,0,1-.06.53.65.65,0,0,1-.69.53.64.64,0,0,1-.65-.53,1.68,1.68,0,0,1-.06-.45q0-1.77,0-3.54a.89.89,0,0,1,.4-.89C103.12,40.38,103.48,40.51,103.77,41Z"/><path class="cls-2" d="M73.81,42.73v1a2.14,2.14,0,0,1-2.45,2.34,3.15,3.15,0,0,1-1-.17,2,2,0,0,1-1.32-2c0-.83,0-1.65,0-2.48a.85.85,0,0,1,.4-.84c.52-.28,1,.1,1,.78s0,1.49,0,2.23c0,.14,0,.28,0,.42a.89.89,0,0,0,.91.83.87.87,0,0,0,.91-.83c0-.75,0-1.51,0-2.26a3.26,3.26,0,0,1,0-.54.71.71,0,1,1,1.41,0c0,.49,0,1,0,1.48Z"/><path class="cls-4" d="M118.28,40.43a2.69,2.69,0,0,1,1.48.4.74.74,0,0,1,.38.76.54.54,0,0,1-.74.47c-.25-.08-.49-.18-.73-.28a1,1,0,0,0-.53-.06.37.37,0,0,0-.34.31.34.34,0,0,0,.21.37l.59.28c.29.13.59.24.86.39a1.4,1.4,0,0,1,.83,1.36,1.56,1.56,0,0,1-1,1.39,2.74,2.74,0,0,1-2.71-.27.65.65,0,0,1-.3-.91c.19-.35.52-.43,1-.24a2.18,2.18,0,0,0,1.16.37c.2,0,.39-.05.45-.29s-.09-.36-.27-.45l-1-.42c-1-.45-1.37-1-1.2-1.81A1.79,1.79,0,0,1,118.28,40.43Z"/><path class="cls-2" d="M134.75,45.21a1.87,1.87,0,0,1-1.9.76A2.19,2.19,0,0,1,131,44a3.76,3.76,0,0,1,.18-2.15,2,2,0,0,1,3.44-.7s0,0,.11.05V38.81a2.3,2.3,0,0,1,0-.37.33.33,0,0,1,.33-.31.32.32,0,0,1,.35.28,2.93,2.93,0,0,1,0,.41V45.3a1,1,0,0,1,0,.17c0,.25,0,.53-.38.52s-.35-.27-.35-.52C134.76,45.41,134.75,45.35,134.75,45.21Zm0-2a3.21,3.21,0,0,0-.3-1.36,1.3,1.3,0,0,0-2.29-.17,3.09,3.09,0,0,0,0,3.06,1.32,1.32,0,0,0,2.34-.17A3.06,3.06,0,0,0,134.76,43.23Z"/><path class="cls-4" d="M108.3,43.61c0-.5,0-1,0-1.49,0-.19,0-.29-.26-.31-.51,0-.69-.23-.68-.63s.22-.59.72-.62c.19,0,.22-.08.22-.25a3.52,3.52,0,0,1,0-.86.66.66,0,0,1,.71-.56.65.65,0,0,1,.66.56,2.29,2.29,0,0,1,0,.74c0,.27,0,.39.35.37a.62.62,0,0,1,.72.42.6.6,0,0,1-.64.82c-.39,0-.44.15-.43.48,0,.84,0,1.68,0,2.52v.29c0,.58-.32.92-.75.9s-.7-.34-.71-.9S108.3,44.1,108.3,43.61Z"/><path class="cls-2" d="M157.82,41.24c0-.18,0-.32.07-.45a.32.32,0,0,1,.34-.3.36.36,0,0,1,.34.31,1.79,1.79,0,0,1,0,.33v4.24a1.38,1.38,0,0,1,0,.29c0,.19-.14.34-.35.33a.34.34,0,0,1-.34-.3c0-.13,0-.27-.06-.46A1.81,1.81,0,0,1,156,46a2.2,2.2,0,0,1-1.83-2,4.32,4.32,0,0,1,.07-1.75A2.08,2.08,0,0,1,157.82,41.24Zm0,2a3.07,3.07,0,0,0-.27-1.38,1.31,1.31,0,0,0-2.34-.18,3.14,3.14,0,0,0,0,3,1.32,1.32,0,0,0,2.34-.17A2.83,2.83,0,0,0,157.85,43.29Z"/><path class="cls-2" d="M126.58,41.13a1.92,1.92,0,0,1,2.94.11,2,2,0,0,1,.36,1.21c0,1,0,2,0,3,0,.26,0,.53-.36.53s-.36-.3-.37-.55c0-1,0-1.92,0-2.89s-.43-1.37-1.26-1.39a1.28,1.28,0,0,0-1.33,1.37c0,.89,0,1.78,0,2.68,0,.11,0,.22,0,.33s-.08.46-.37.45-.36-.26-.36-.51V41c0-.25,0-.5.33-.53s.37.22.4.47Z"/><path class="cls-2" d="M153.06,7.65a2.56,2.56,0,1,1-2.55-2.59A2.58,2.58,0,0,1,153.06,7.65ZM150.5,9.58a1.94,1.94,0,1,0-1.92-2A2,2,0,0,0,150.5,9.58Z"/><path class="cls-2" d="M136.82,42.64c0-.52,0-1,0-1.57,0-.26,0-.57.36-.57s.35.33.35.59c0,.85,0,1.7,0,2.55a4.87,4.87,0,0,0,0,.54,1.29,1.29,0,0,0,2.57,0c0-1,0-2,0-2.93a2.3,2.3,0,0,1,0-.37.36.36,0,0,1,.34-.35.33.33,0,0,1,.36.33,21.74,21.74,0,0,1-.08,3.87,1.86,1.86,0,0,1-2.16,1.3,1.79,1.79,0,0,1-1.8-1.9C136.81,43.6,136.82,43.12,136.82,42.64Z"/><path class="cls-2" d="M143.73,46a2.52,2.52,0,0,1-1.68-.6c-.19-.18-.36-.39-.13-.64s.42-.07.6.08a1.8,1.8,0,0,0,1.54.51,1,1,0,0,0,.83-.79.78.78,0,0,0-.57-.85c-.49-.22-1-.42-1.48-.63a1.21,1.21,0,0,1-.84-1.2,1.32,1.32,0,0,1,.94-1.24,2.74,2.74,0,0,1,2.3.25c.25.14.43.37.24.65s-.42.11-.62,0a1.64,1.64,0,0,0-1.31-.38c-.36.08-.7.21-.76.64s.23.62.56.76l1.18.49c1,.43,1.29.94,1.14,1.72A1.73,1.73,0,0,1,144,46Z"/><path class="cls-3" d="M76.05,43.23c0,.63,0,1.27,0,1.9s-.3.88-.74.86-.69-.32-.69-.86c0-1.26,0-2.53,0-3.79,0-.53.29-.85.71-.85s.7.32.71.84S76.05,42.6,76.05,43.23Z"/><path class="cls-2" d="M146.85,43.43c0-.64,0-1.29,0-1.94,0-.22,0-.37-.3-.34s-.45,0-.46-.28.23-.34.46-.32.31-.06.3-.29a7.51,7.51,0,0,1,0-.95c0-.22.09-.42.36-.41s.34.2.35.42,0,.61,0,.91,0,.36.31.32.45,0,.46.28-.23.34-.46.32-.31.1-.31.33c0,1.27,0,2.53,0,3.8a2.75,2.75,0,0,1,0,.41.33.33,0,0,1-.34.3.31.31,0,0,1-.34-.29c0-.31,0-.63,0-1S146.85,43.87,146.85,43.43Z"/><path class="cls-2" d="M149.85,41.41c.3-.43.54-.8,1-.89.27-.05.51,0,.61.26s-.14.4-.37.48A1.58,1.58,0,0,0,149.83,43c0,.81,0,1.62,0,2.43,0,.26,0,.54-.36.54s-.36-.29-.36-.54q0-2.21,0-4.41c0-.25,0-.54.36-.54s.36.28.36.54v.17S149.84,41.28,149.85,41.41Z"/><path class="cls-2" d="M124.5,42.32v2.94a2.32,2.32,0,0,1,0,.37c0,.2-.13.37-.37.36s-.3-.16-.34-.35a1.31,1.31,0,0,1,0-.28V39.29c0-.28,0-.62.38-.61s.35.32.35.59v3Z"/><path class="cls-2" d="M160.64,43.28v2.06a1.83,1.83,0,0,1,0,.4.3.3,0,0,1-.33.25.32.32,0,0,1-.32-.26,1.23,1.23,0,0,1,0-.33V41.11a2.18,2.18,0,0,1,0-.25c0-.21.13-.37.36-.37a.35.35,0,0,1,.34.35,2.36,2.36,0,0,1,0,.37Z"/><path class="cls-3" d="M152.28,43.26V41c0-.26,0-.53.36-.53s.35.27.35.51c0,1.49,0,3,0,4.49,0,.24,0,.5-.36.49s-.35-.27-.35-.51Z"/><path class="cls-2" d="M76.13,39.11a.84.84,0,0,1-.8.83.85.85,0,0,1-.8-.83.82.82,0,0,1,.79-.8A.8.8,0,0,1,76.13,39.11Z"/><path class="cls-2" d="M153.13,39.19a.47.47,0,0,1-.52.45.44.44,0,0,1-.46-.47.46.46,0,0,1,.49-.5C152.94,38.68,153.1,38.87,153.13,39.19Z"/><path class="cls-2" d="M160.75,39.15a.48.48,0,1,1-.51-.47A.45.45,0,0,1,160.75,39.15Z"/><path class="cls-5" d="M21.86,13.14a5.79,5.79,0,0,0-2.29,1.26A5.31,5.31,0,0,0,18,18.46V31.62c0,.24,0,.47,0,.7A9,9,0,0,1,15,29.7a10.43,10.43,0,0,1,.58-13.28,10.27,10.27,0,0,1,5.75-3.25A4,4,0,0,1,21.86,13.14Z"/><path class="cls-5" d="M28.65,32.3c0-.74,0-1.48,0-2.23V18.48a5.38,5.38,0,0,0-1.58-4.07,6.08,6.08,0,0,0-2.32-1.28,8.42,8.42,0,0,1,3.64,1.22,10.14,10.14,0,0,1,5,6.84,10.25,10.25,0,0,1-1.68,8.27A9.67,9.67,0,0,1,28.65,32.3Z"/><path class="cls-6" d="M38.43,10.89a2.66,2.66,0,0,1-2.69,2.66,2.68,2.68,0,1,1,2.69-2.66Z"/><path class="cls-6" d="M13.44,36a2.66,2.66,0,1,1-2.64-2.67A2.69,2.69,0,0,1,13.44,36Z"/><path class="cls-6" d="M38.43,36a2.66,2.66,0,1,1-2.63-2.68A2.68,2.68,0,0,1,38.43,36Z"/><path class="cls-6" d="M10.91,13.55a2.68,2.68,0,1,1,2.65-2.67A2.7,2.7,0,0,1,10.91,13.55Z"/><path class="cls-2" d="M151,7.9l.42.7c.09.15.17.31,0,.43a.33.33,0,0,1-.47-.1c-.17-.27-.31-.55-.46-.83,0-.08-.08-.19-.2-.16s-.09.15-.1.23,0,.39,0,.58-.11.34-.33.33a.29.29,0,0,1-.29-.33V6.65c0-.23.1-.37.35-.37s.69,0,1,0,.73.29.76.71S151.47,7.73,151,7.9Zm-.52-.48c.22,0,.54.07.55-.32s-.29-.29-.51-.32-.39,0-.37.32S150.16,7.47,150.43,7.42Z"/></g></g></svg>