<svg xmlns="http://www.w3.org/2000/svg" viewBox="0 0 262.71 167.37"><defs><style>.cls-1{fill:#0c2240;}.cls-2{fill:#ca0e30;}</style></defs><g id="Camada_2" data-name="Camada 2"><g id="Camada_1-2" data-name="Camada 1"><path class="cls-1" d="M122.73,0H125l1.61.53,1.2.94,41.71,41.71.81,1.61.26.93v1.74l-.53,1.74L169,50.67,149.07,70.59l-.94.67L136.77,59.89l.27-.53,1.47-1.74,1.47-2.4,1.07-2.54.66-2.54.27-2.41V45.86l-.27-2.28-.66-2.67-1.21-2.81L138.51,36l-1.74-2-1.61-1.47-2-1.34-2-1.07L127.94,29l-2.54-.4h-3.34l-2.54.4-2.14.67-1.6.67-2.14,1.2-1.6,1.2-1.07.94.13.54,1.74,1.6,9.36,9.36-.27.53-1.07,1.21-1.61,2.4-1.07,2.28-.66,2-.4,2L117,56.69v3.2l.4,2.54.67,2.28.94,2.14L120.32,69l1.47,1.73,1.61,1.61,2,1.47,2.28,1.2,2.27.8,2.27.54.94.13h4l2.27-.4,2.27-.67,2.81-1.33,1.74-1.21,1.47-1.2.54-.27,1.07.94,10.29,10.29-.27.54-21,21-1.6.8-1.2.27H134.5l-1.61-.4-1.2-.67-1.61-1.47L89.57,62.17l-.8-1.34-.4-1.2V57.49l.54-1.61L90,54.41l12.7-12.7h.26v-.27l1.07-.93L110.56,34l-.26-.54-11-11,.27-.53,21-21L122.2.13Z"/><path class="cls-2" d="M122.73,0H125l1.61.53,1.2.94,41.71,41.71.81,1.61.26.93v1.74l-.53,1.74L169,50.67,149.07,70.59l-.94.67L136.77,59.89l.27-.53,1.47-1.74,1.47-2.4,1.07-2.54.66-2.54.27-2.41V45.86l-.27-2.28-.66-2.67-1.21-2.81L138.51,36l-1.74-2-1.61-1.47-2-1.34-2-1.07L127.94,29l-2.54-.4h-3.34l-2.54.4-2.14.67-1.6.67-2.14,1.2-1.6,1.2-1.21,1.07-.93-.8L99.33,22.46l.27-.53,21-21L122.2.13Z"/><path class="cls-1" d="M.13,110.83H11.77l.4,1.21,3.2,12.43L17,130.62v.4h.27l.26-1.6,2.81-10.83,2-7.62.13-.14H34.09v30.48H26.74l-.14-1.07V118.85l.14-.4h-.27l-.27,1.21-1.87,6.81L20.86,139l-.67,2.27H14l-.94-3.07L7.75,118.85l-.13,4.55-.13,17.91H.13L0,138.37v-26.6Z"/><path class="cls-1" d="M138.51,110.83H162.7v6.42H146.39v5.35h15v6.15h-15l.14,5.75,16.71.13v6.28l-.13.4-.67.14H144.79l-6.28-.14Z"/><path class="cls-1" d="M76.47,110.83h7.76l.13.14v23.66H98.53v6.68l-6.15.14H82.76l-6.42-.14V111Z"/><path class="cls-1" d="M42.11,134.23c-3.67-6.69-2.16-16.75,4.15-21.39,4.94-3.37,12.65-3.79,17.51-.14"/><path class="cls-2" d="M68.8,118.5c5.6,12.83-3.85,27-18.26,22.95A15.83,15.83,0,0,1,47.23,140C47.77,139.7,68.31,118.9,68.8,118.5Z"/><path class="cls-2" d="M169.66,119.66l.53.26,6.29,6.29.53,3.34.67,1.87.93,1.47.94.94,1.07.67,1.87.53h2.81l1.2,1.07.94,1.07,3.21,3.21v.27l-2.14.8-1.74.4-1.07.13h-3.88l-2.67-.53-2.14-.8-2.14-1.21-2-1.74-1.61-2-1.2-2.14-.8-2.14-.41-1.6-.26-1.74V124.2l.4-2.27Z"/><path class="cls-1" d="M132.22,123l-.4-2-.67-2-.93-1.87-1.34-1.88-1.34-1.2L126.07,113l-2.14-1.07-2.27-.67-2.81-.4H104.28v30.48l4.81.14h7.49l3.21-.14,1.74-.26,2.67-.81,2.14-1.07,1.87-1.47,1.61-1.87,1.33-2.54.81-2.67.4-2.81V124.2Zm-7.89,5.21-.53,2.14L123,132,121.93,133l-1.87.94-1.61.4-.93.14-2.81.13H112.3l-.13-.13V117.92l.13-.14h5.62l2.14.54,1.47.8,1.2,1.07.94,1.47.53,1.74.27,2.14Z"/><path class="cls-1" d="M183,110.16h1.47l2.27.27,2.54.67,2.81,1.34,1.6,1.2,1.34,1.2,1.07,1.47.93,1.87.54,1.88.13,1.6-.13.13h-7.76l-.4-1.06-.67-1.34-.66-.8-1.34-.81-1.74-.53h-2.67l-1.34.4-1.2.67-.54-.27-4.68-4.68.27-.53,2.14-1.21,2-.8,1.6-.4Z"/><path class="cls-1" d="M262.31,140.38l-.54-2.68-.4-4.54-.53-2.14-1.07-2.14-.94-.94-1.6-.8.93-.53,1.07-.8,1.2-1.34.94-1.87.4-1.74v-2.81l-.27-1.2-.66-1.61-.94-1.2-1.34-1.2-1.6-.94-2-.67-2.54-.4H235.57v30.48h7.89l.13-11.09,6.15.13,1.47.27,1.07.67.8,1.07.54,1.73.4,3.75.4,2.54.4.93h7.89Zm-8.43-19.25-.4,1.33-.93,1.07-1.34.54h-7.62l-.13-.14v-6.41l.13-.27h7.22l1.34.4,1.07.8.53.94.13.67Z"/><path class="cls-1" d="M229.15,134.9l-8.42-22.46-.67-1.61h-8l-.14.14-3.07,8.15-2.54,6.82-3.48,9.22-2,5.49-.14.66h8.16l1.87-5.21h10.56l1.87,5.21h8.29v-.26Zm-9.76-5-6.68.13-.14-.4,2.81-8.69.53-1.6.27.13,2.68,8.42.53,1.74Z"/><path class="cls-1" d="M190.91,129h6.82l-.13,1.74-.67,2.54-.53,1.21-.94-.81-4.55-4.54Z"/><path class="cls-1" d="M138.4,159.46c-.16,1.19-.22,2.14-.44,3.06a5.82,5.82,0,0,1-7.14,4.73,4.77,4.77,0,0,1-3.58-2.65,10,10,0,0,1-.17-9.43,5.21,5.21,0,0,1,5.52-3,5.38,5.38,0,0,1,5.09,3.76A23.88,23.88,0,0,1,138.4,159.46Zm-2,.23a26.57,26.57,0,0,0-.88-3.64,3.43,3.43,0,0,0-3.52-2.11,3.16,3.16,0,0,0-3.2,2.17,9.24,9.24,0,0,0,.18,7.36,3.19,3.19,0,0,0,3.05,2.07,3.35,3.35,0,0,0,3.32-2A29.86,29.86,0,0,0,136.39,159.69Z"/><path class="cls-1" d="M110,153.43l-.77,1.51a16.73,16.73,0,0,0-2-.86,4.45,4.45,0,0,0-5.2,2.3,7.2,7.2,0,0,0-.1,6.62,4.14,4.14,0,0,0,4.08,2.52c1.93-.07,3-.35,2.75-2.67a15.05,15.05,0,0,1,0-1.65l-2-.12v-1.56h4c0,2,0,4,0,6,0,.29-.41.67-.72.82-4.8,2.29-10.64,1-10.82-6.14a10.78,10.78,0,0,1,.47-3.49C101,152.37,106.57,150.6,110,153.43Z"/><path class="cls-1" d="M141.15,152.42h2V158c0,1.43,0,2.85,0,4.27a3,3,0,0,0,3,3.28,2.9,2.9,0,0,0,3.26-3c.13-2.8.07-5.61.09-8.41,0-.55,0-1.1,0-1.73h2V155c0,2.61,0,5.22,0,7.83a4,4,0,0,1-3.26,4.21,9.58,9.58,0,0,1-3.62.08,3.74,3.74,0,0,1-3.38-3.85C141.05,159.71,141.15,156.12,141.15,152.42Z"/><path class="cls-1" d="M157,161.71V167h-1.92V152.41c2.27-.17,4.54-.37,6.72.5a3.76,3.76,0,0,1,2.4,3.85c-.08,2.24-1,3.78-2.86,4.31A35.25,35.25,0,0,1,157,161.71Zm0-4.8c0,.63,0,1.27,0,1.89a1.16,1.16,0,0,0,.34.79c1.3.77,4.12-.37,4.59-1.81.63-2-.4-3.33-2.78-3.64-2-.27-2.16-.17-2.16,1.83Z"/><path class="cls-1" d="M120.53,160.42l.6-.33a4.27,4.27,0,0,0,2.09-4.85,3.67,3.67,0,0,0-3.61-2.87c-1.71-.14-3.44,0-5.21,0V167h2v-6.17a2.3,2.3,0,0,1,3,1.34c.64,1.26,1.48,2.42,2.23,3.62.92,1.48,1.12,1.56,3,1.1ZM116.46,159v-4.82c1.53-.17,3.12-.42,4.3.86a2.24,2.24,0,0,1,.1,2.77C119.81,159.46,118.1,159,116.46,159Z"/></g></g></svg>