<svg xmlns="http://www.w3.org/2000/svg" viewBox="0 0 117.58 27.37"><defs><style>.cls-1{fill:#9b2d18;}</style></defs><g id="Camada_2" data-name="Camada 2"><g id="Camada_1-2" data-name="Camada 1"><path class="cls-1" d="M79,21.69H59.77a2.63,2.63,0,0,1-2.26-1.05,1.47,1.47,0,0,1-.26-.92c0-4,0-7.95,0-11.93A2,2,0,0,1,58.83,6,2.79,2.79,0,0,1,60,5.88a8,8,0,0,0,1,0H71.67c.83,0,1.66,0,2.49.06a2.19,2.19,0,0,1,2.12,2.2c0,1.84,0,3.68,0,5.51a2.23,2.23,0,0,1-1.73,2.1,2.92,2.92,0,0,1-.78.09c-1.67,0-3.35.09-5,0-2,0-3.9,0-5.84,0-.32,0-.38-.12-.37-.4,0-1.08,0-2.16,0-3.25,0-.34.09-.45.45-.45q3.1,0,6.22.06c.48,0,1,0,1.43-.06a.84.84,0,0,0,.81-.93.9.9,0,0,0-.88-.86l-2.18,0H63.14a.91.91,0,0,0-1,1c0,1.89,0,3.77,0,5.66,0,.72.28,1,1,1.05,2.73.13,5.46,0,8.18.06h6.31c.91-.07,1.22-.39,1.22-1.31q0-5,0-10.08c0-.33.06-.46.43-.45,1.09,0,2.19,0,3.28,0,.31,0,.38.09.38.39,0,2.91,0,5.83,0,8.75a2.59,2.59,0,0,0,1.67,2.41,5.27,5.27,0,0,0,2,.27,25.17,25.17,0,0,0,3.58,0,3.16,3.16,0,0,0,2.08-1,2,2,0,0,0,.53-1.37c0-3,0-6,0-9,0-.31.07-.41.39-.41,1.14,0,2.27,0,3.4,0,.31,0,.38.1.38.39,0,2.89,0,5.79,0,8.68a2.51,2.51,0,0,0,1.68,2.46.47.47,0,0,1,.36.52c0,1.13,0,2.27,0,3.4,0,.34-.09.42-.42.42Z"/><path class="cls-1" d="M55.5.25c0,1.32,0,2.58,0,3.85a.69.69,0,0,1-.27.56c-.85.7-1.69,1.42-2.54,2.13l-3,2.45a.53.53,0,0,0-.18.43c0,.56,0,1.13,0,1.7,0,.34.11.42.43.42,2.1,0,4.2,0,6.3-.07.36,0,.47.09.46.46,0,1.05,0,2.11,0,3.17,0,.4-.13.47-.49.47-2.1,0-4.2,0-6.3,0-.31,0-.4.08-.4.4,0,3.55,0,7.09,0,10.64,0,.58.06.52-.53.52-1.06,0-2.11,0-3.17,0-.3,0-.38-.09-.38-.39q0-5.34,0-10.68c0-.49,0-.49-.48-.49H24.23A2.83,2.83,0,0,1,22,15a1.72,1.72,0,0,1-.5-1.23q0-5.89,0-11.81A2.21,2.21,0,0,1,23.61,0H38.18a2.3,2.3,0,0,1,2.33,1.51,3.88,3.88,0,0,1,.11,1c0,1.73,0,3.45,0,5.17A2.23,2.23,0,0,1,38.26,9.9c-1.42,0-2.84,0-4.26,0-2.23,0-4.46,0-6.68,0-.33,0-.44-.08-.43-.42,0-1.09,0-2.19,0-3.28,0-.3.08-.4.39-.4,1.72,0,3.45,0,5.17,0,.84,0,1.67,0,2.51,0a.84.84,0,0,0,.83-1c-.07-.5-.5-.74-1.07-.76L32.91,4C31.28,4,29.64,4,28,4a8.48,8.48,0,0,0-.86.06.85.85,0,0,0-.69.87c0,2,0,3.93,0,5.89a.88.88,0,0,0,.94.87c3.23.14,6.47.08,9.7,0,2.64,0,5.28,0,7.92,0,.35,0,.48-.07.47-.45,0-.79,0-1.59,0-2.38a.6.6,0,0,1,.25-.54C47.36,7,49,5.63,50.63,4.26L55.34.31S55.4.29,55.5.25Z"/><path class="cls-1" d="M99.46,17.57V8.25A2.53,2.53,0,0,1,101,5.93a2,2,0,0,1,.59-.09h12.76q.75,0,1.5.06a1.87,1.87,0,0,1,1.51,1.22,2.41,2.41,0,0,1,.24,1.09c0,1.7,0,3.4,0,5.1a.64.64,0,0,1-.21.53l-5.76,4.8-3.37,2.84a.86.86,0,0,1-.55.21c-1.13,0-2.27,0-3.4,0-.25,0-.32-.08-.32-.32,0-1.13,0-2.27,0-3.4,0-.23.07-.3.3-.3.56,0,1.11,0,1.66,0a2,2,0,0,0,1.29-.6l5.6-4.7a1.47,1.47,0,0,0,.5-1.9.79.79,0,0,0-.71-.47c-2.7-.12-5.39,0-8.08-.05a1,1,0,0,0-1,1.07V26.88c0,.48,0,.48-.49.48h-3.1c-.48,0-.48,0-.48-.5V17.57Z"/><path class="cls-1" d="M11.7,5.84c3,0,6,0,8.94,0,.34,0,.46.07.45.43,0,1.08,0,2.17,0,3.25,0,.34-.09.42-.42.42-4.2,0-8.41,0-12.61,0-.79,0-1.58,0-2.37.06a.87.87,0,0,0-.93.88,1,1,0,0,0,1,.86c2.4.13,4.81,0,7.21.06a1,1,0,0,0,1.19-1.1c0-.28.12-.33.36-.32,1.38,0,2.75,0,4.12,0,.29,0,.38.07.39.38,0,1,.07,2,0,3.08a1.87,1.87,0,0,1-.8,1.46,2.55,2.55,0,0,1-1.58.53c-3.93,0-7.86,0-11.8,0-.85,0-1.7,0-2.56,0a2.67,2.67,0,0,1-1.86-.88A1.46,1.46,0,0,1,0,13.86V8A2,2,0,0,1,1.64,6a5.7,5.7,0,0,1,1.3-.15Z"/><path class="cls-1" d="M8.66,0h7.81a2.69,2.69,0,0,1,2.15.9,1.46,1.46,0,0,1,.35.89,23.79,23.79,0,0,1,0,3.27c0,.25-.08.32-.33.32H14.44c-.19,0-.29,0-.32-.26C14,4.28,13.77,4,12.91,4,11.45,4,10,4,8.53,4,5.83,4,3.12,4,.42,4,.09,4,0,4,0,3.61c0-1,0-2.11,0-3.17C0,.1.08,0,.44,0,3.18,0,5.92,0,8.66,0Z"/></g></g></svg>