<svg xmlns="http://www.w3.org/2000/svg" viewBox="0 0 79.32 60.31"><defs><style>.cls-1{fill:#a63a0f;}</style></defs><g id="Camada_2" data-name="Camada 2"><g id="Camada_1-2" data-name="Camada 1"><path class="cls-1" d="M.36,24.37a9.33,9.33,0,0,1,1.94-.19A3.81,3.81,0,0,1,5,25.06c.85.76,1.28,2.06,1.28,4s-.51,3.39-1.37,4.15a4.16,4.16,0,0,1-3,1A15.4,15.4,0,0,1,.36,34Zm1.91,8.17a1.34,1.34,0,0,0,.34,0c.92,0,1.72-.9,1.72-3.62,0-2-.52-3.23-1.68-3.23a1.2,1.2,0,0,0-.38,0Z"/><path class="cls-1" d="M11.67,29.74H9.44V32.4H12v1.66H7.53V24.23H11.8v1.66H9.44v2.26h2.23Z"/><path class="cls-1" d="M13.28,24.37a10.53,10.53,0,0,1,2-.19,3.76,3.76,0,0,1,2.66.76,2.85,2.85,0,0,1,.85,2.16A3.27,3.27,0,0,1,18,29.46a3.35,3.35,0,0,1-2.39.95h-.38v3.66H13.28Zm1.91,4.48a1.62,1.62,0,0,0,.32,0c1,0,1.38-.69,1.38-1.61s-.35-1.53-1.24-1.53a1.53,1.53,0,0,0-.46.07Z"/><path class="cls-1" d="M20.89,31.81l-.43,2.25H18.6l2.13-9.83H23l1.91,9.83H23.07l-.41-2.25Zm1.59-1.49-.32-2.05c-.1-.6-.23-1.59-.32-2.23h0c-.1.65-.25,1.66-.35,2.23l-.37,2.05Z"/><path class="cls-1" d="M26,24.37a11.89,11.89,0,0,1,2.08-.19,3.81,3.81,0,0,1,2.63.73A2.55,2.55,0,0,1,31.51,27,2.61,2.61,0,0,1,30,29.41v0c.67.28,1,.89,1.19,2a16.59,16.59,0,0,0,.63,2.67h-2a11.77,11.77,0,0,1-.49-2.36c-.18-1.22-.48-1.57-1.11-1.57h-.29v3.93H26Zm1.91,4.29h.35c.83,0,1.29-.67,1.29-1.53s-.33-1.43-1.18-1.46a1.47,1.47,0,0,0-.46.06Z"/><path class="cls-1" d="M33.94,26H32.2V24.23h5.4V26H35.85v8.07H33.94Z"/><path class="cls-1" d="M39.67,31.81l-.44,2.25H37.38l2.13-9.83H41.8l1.91,9.83H41.85l-.41-2.25Zm1.59-1.49-.32-2.05c-.1-.6-.23-1.59-.32-2.23h0c-.11.65-.25,1.66-.35,2.23l-.37,2.05Z"/><path class="cls-1" d="M50.8,30.62c-.06-.94-.11-2.19-.1-3.26h0c-.17,1.05-.44,2.26-.63,3l-.86,3.52H47.84L47,30.44c-.19-.79-.46-2-.62-3.08h0c0,1.07-.1,2.31-.14,3.28l-.18,3.42H44.43l.7-9.83h2l.78,3.56c.27,1.24.52,2.33.69,3.44h0c.15-1.1.37-2.2.62-3.44l.78-3.56h2l.59,9.83H51Z"/><path class="cls-1" d="M58.23,29.74H56V32.4h2.52v1.66H54.09V24.23h4.27v1.66H56v2.26h2.23Z"/><path class="cls-1" d="M59.84,34.06V24.23h1.75l1.52,3.86c.3.75.77,2,1,2.86h0c-.05-1-.18-2.74-.18-4.55V24.23h1.67v9.83H63.92l-1.5-3.75a28.44,28.44,0,0,1-1-2.95h0c.06,1,.14,2.51.14,4.48v2.22Z"/><path class="cls-1" d="M68.43,26H66.7V24.23h5.39V26H70.34v8.07H68.43Z"/><path class="cls-1" d="M75.54,34.17c-2.23,0-3.11-2.36-3.11-5.06s1.07-5,3.25-5c2.37,0,3,2.61,3,4.86,0,3.7-1.32,5.2-3.17,5.2Zm.07-1.66c.82,0,1.12-1.46,1.12-3.45,0-1.74-.26-3.29-1.13-3.29s-1.2,1.55-1.18,3.33c0,1.95.33,3.41,1.18,3.41Z"/><path class="cls-1" d="M.36,37.41a9.33,9.33,0,0,1,1.94-.19A3.81,3.81,0,0,1,5,38.1c.85.76,1.28,2.06,1.28,4s-.51,3.39-1.37,4.15a4.16,4.16,0,0,1-3,1,15.4,15.4,0,0,1-1.59-.1Zm1.91,8.17a1.34,1.34,0,0,0,.34,0c.92,0,1.72-.9,1.72-3.62,0-2-.52-3.23-1.68-3.23a1.2,1.2,0,0,0-.38,0Z"/><path class="cls-1" d="M11.67,42.78H9.44v2.65H12V47.1H7.53V37.27H11.8v1.66H9.44v2.26h2.23Z"/><path class="cls-1" d="M19.74,42.78H17.51v2.65H20V47.1H15.6V37.27h4.27v1.66H17.51v2.26h2.23Z"/><path class="cls-1" d="M21.35,47.1V37.27H23.1l1.51,3.86c.31.75.78,2,1.05,2.86h0c-.06-1-.19-2.74-.19-4.55V37.27h1.68V47.1H25.43l-1.5-3.75a26.26,26.26,0,0,1-1-3h0c.06,1,.13,2.51.13,4.48V47.1Z"/><path class="cls-1" d="M34.33,46.83a6.18,6.18,0,0,1-2,.35,3.53,3.53,0,0,1-2.64-1,5.51,5.51,0,0,1-1.27-4c.05-3.57,2.08-5.06,4.19-5.06a4,4,0,0,1,1.59.29l-.32,1.65a2.72,2.72,0,0,0-1.12-.22c-1.32,0-2.35.91-2.35,3.44,0,2.38.92,3.23,1.82,3.23a.85.85,0,0,0,.38-.06V43.15h-.89V41.58h2.64Z"/><path class="cls-1" d="M39.9,42.78H37.67v2.65H40.2V47.1H35.76V37.27H40v1.66H37.67v2.26H39.9Z"/><path class="cls-1" d="M41.51,47.1V37.27h1.75l1.52,3.86c.3.75.77,2,1,2.86h0c-.06-1-.19-2.74-.19-4.55V37.27h1.68V47.1H45.6l-1.51-3.75a28.4,28.4,0,0,1-1-3h0c.06,1,.13,2.51.13,4.48V47.1Z"/><path class="cls-1" d="M51,37.27v3.94h2V37.27h1.91V47.1H53V43H51V47.1H49V37.27Z"/><path class="cls-1" d="M58.12,44.85l-.44,2.25H55.83L58,37.27h2.29l1.91,9.83H60.29l-.41-2.25Zm1.59-1.49-.32-2c-.11-.6-.24-1.59-.33-2.23h0c-.1.65-.25,1.66-.35,2.23l-.36,2Z"/><path class="cls-1" d="M63.24,37.41a12.08,12.08,0,0,1,2.08-.19A3.81,3.81,0,0,1,68,38a2.52,2.52,0,0,1,.79,2,2.62,2.62,0,0,1-1.52,2.45v0c.67.28,1,.89,1.2,2A16.84,16.84,0,0,0,69,47.1h-2a11.54,11.54,0,0,1-.5-2.37c-.18-1.21-.48-1.56-1.11-1.56h-.29V47.1H63.24Zm1.91,4.29h.35a1.35,1.35,0,0,0,1.3-1.53c0-.85-.34-1.43-1.18-1.46a1.49,1.49,0,0,0-.47.06Z"/><path class="cls-1" d="M72,37.27V47.1H70.1V37.27Z"/><path class="cls-1" d="M75.28,44.85l-.44,2.25H73l2.13-9.83h2.29l1.91,9.83H77.45L77,44.85Zm1.59-1.49-.33-2c-.1-.6-.23-1.59-.32-2.23h0c-.1.65-.25,1.66-.35,2.23l-.36,2Z"/><path class="cls-1" d="M6.37,56.78c-.06-.94-.11-2.19-.1-3.25h0c-.17,1-.44,2.26-.63,3l-.86,3.52H3.41L2.6,56.6c-.19-.78-.46-2-.62-3.07H2c0,1.06-.1,2.3-.14,3.28l-.18,3.41H0l.7-9.83h2L3.51,54c.27,1.24.51,2.33.69,3.44h0c.15-1.09.37-2.2.62-3.44l.78-3.56h2l.59,9.83H6.55Z"/><path class="cls-1" d="M13.8,55.9H11.57v2.66h2.52v1.66H9.66V50.39h4.27v1.66H11.57v2.26H13.8Z"/><path class="cls-1" d="M20.12,60.07a3.67,3.67,0,0,1-1.47.24c-2.53,0-3.72-2.06-3.72-4.86,0-3.7,2.05-5.15,4-5.15a2.75,2.75,0,0,1,1.33.27l-.32,1.6A2,2,0,0,0,19,52c-1.08,0-2.06.93-2.06,3.37s.89,3.27,2.06,3.27a3.47,3.47,0,0,0,.92-.15Z"/><path class="cls-1" d="M23,58l-.44,2.25H20.68l2.13-9.83h2.28L27,60.22H25.14L24.73,58Zm1.72-9.71,1.22,1.6h-1.4l-.57-.75h0l-.55.75H22l1.18-1.6Zm-.14,8.23-.32-2.06c-.1-.6-.23-1.59-.32-2.23h0c-.1.65-.25,1.66-.35,2.23l-.37,2.06Z"/><path class="cls-1" d="M28.09,60.22V50.39h1.75l1.51,3.86c.31.75.78,2,1,2.86h0c0-1-.19-2.74-.19-4.55V50.39h1.68v9.83H32.17l-1.5-3.75a28.26,28.26,0,0,1-1-2.94h0c.06,1,.13,2.5.13,4.47v2.22Z"/><path class="cls-1" d="M37.53,50.39v9.83H35.62V50.39Z"/><path class="cls-1" d="M44,60.07a3.69,3.69,0,0,1-1.48.24c-2.52,0-3.72-2.06-3.72-4.86,0-3.7,2.06-5.15,4-5.15a2.75,2.75,0,0,1,1.33.27l-.32,1.6a2,2,0,0,0-.89-.19c-1.08,0-2.06.93-2.06,3.37s.89,3.27,2.06,3.27a3.54,3.54,0,0,0,.92-.15Z"/><path class="cls-1" d="M46.79,58l-.43,2.25H44.5l2.13-9.83h2.29l1.91,9.83H49L48.56,58Zm1.59-1.48-.32-2.06c-.1-.6-.23-1.59-.32-2.23h0c-.1.65-.25,1.66-.35,2.23L47,56.49Z"/><path class="cls-1" d="M1,.38A18.21,18.21,0,0,1,4.88,0,7.66,7.66,0,0,1,10.4,1.77C12.1,3.3,13,5.92,13,9.79s-1,6.86-2.77,8.4c-1.36,1.26-3.3,1.91-6,1.91A28.85,28.85,0,0,1,1,19.9ZM4.82,16.89A2.65,2.65,0,0,0,5.5,17C7.36,17,9,15.12,9,9.64,9,5.57,7.92,3.1,5.59,3.1a2.46,2.46,0,0,0-.77.08Z"/><path class="cls-1" d="M23.82,11.23H19.31V16.6h5.1V20h-9V.09h8.64V3.45H19.31V8h4.51Z"/><path class="cls-1" d="M39.21,13C39.09,11.11,39,8.58,39,6.43h-.06c-.35,2.12-.88,4.57-1.26,6.1l-1.74,7.1H33.23l-1.65-7c-.39-1.6-.92-4.07-1.24-6.22h-.06c-.06,2.15-.21,4.65-.3,6.63L29.63,20h-3.3L27.74.09h4.1l1.59,7.19c.53,2.51,1,4.72,1.39,7h.09c.29-2.21.73-4.45,1.23-7L37.74.09H41.8L43,20H39.56Z"/><path class="cls-1" d="M48.74,14.12a2.76,2.76,0,0,0,3,3.07,8.53,8.53,0,0,0,2.74-.48l.5,2.74a10.71,10.71,0,0,1-3.92.68c-4,0-6.1-2.59-6.1-7.1,0-4.83,2.53-7.72,5.78-7.72,3.09,0,4.89,2.44,4.89,6.8a13.14,13.14,0,0,1-.12,2Zm3.42-2.71c0-1.83-.47-3.27-1.62-3.27s-1.77,1.82-1.8,3.27Z"/><path class="cls-1" d="M65.84,19.69a6,6,0,0,1-2.44.44c-3.66,0-6-2.53-6-7.22C57.35,8.46,60,5.37,64,5.37a5.6,5.6,0,0,1,2.12.38l-.5,3a4.32,4.32,0,0,0-1.45-.26c-1.85,0-2.94,1.77-2.94,4.24,0,2.63,1.09,4.22,2.89,4.22a3.09,3.09,0,0,0,1.44-.3Z"/></g></g></svg>