<svg xmlns="http://www.w3.org/2000/svg" xmlns:xlink="http://www.w3.org/1999/xlink" viewBox="0 0 76.65 63.95" style="fill: rgb(0, 0, 0);" original_string_length="18763" width="242.61113099959374px" height="201.6508101814805px"><defs><clipPath id="__id11_s3jxbvfjau" transform="translate(0 -0.16)"><path clip-rule="evenodd" d="M0.06 63.98L77.06 63.98 77.06 0 0.06 0 0.06 63.98 0.06 63.98z" style="fill: none;"/></clipPath></defs><g data-name="Camada 2"><g data-name="Camada 1"><path d="M4.14,3.25v11.6H6.68a7.1,7.1,0,0,0,3.17-.64,4.09,4.09,0,0,0,1.88-2A7.49,7.49,0,0,0,12.36,9a6.69,6.69,0,0,0-.67-3.16A4.44,4.44,0,0,0,9.75,3.9a6.72,6.72,0,0,0-3.07-.65ZM58.1.16h4.32L67.3,8.38Q69.7,4.27,72.11.16h4.15V17.94h-3.7V5l-4.23,7.29H66C64.58,9.84,63.14,7.41,61.69,5v13H58.1V.16ZM35.32.16h4.31q2.44,4.11,4.88,8.22Q46.93,4.27,49.32.16h4.16V17.94h-3.7V5l-4.23,7.29H43.24L38.91,5v13H35.32V.16ZM19.37.16H31.43V3.24H23.12V7.37h7.53v3H23.12v4.52h8.31v3.08H19.37V.16Zm-19,0H7.08A10.59,10.59,0,0,1,12,1.22a7.29,7.29,0,0,1,3.13,3A9.78,9.78,0,0,1,16.22,9a10,10,0,0,1-1.09,4.86,7.21,7.21,0,0,1-3.15,3,10.74,10.74,0,0,1-4.9,1H.39V.16Z" fill-rule="evenodd" transform="translate(0 -0.16)" style="fill: rgb(140, 45, 25);"/><path d="M39,27.71l-.89,2.42h1.77L39,27.71Zm-17.25,0-.89,2.42h1.77l-.88-2.42ZM1.81,27.52v3.93h1A2.83,2.83,0,0,0,4,31.23a1.43,1.43,0,0,0,.71-.66,2.28,2.28,0,0,0,.24-1.11,2.07,2.07,0,0,0-.26-1.07,1.54,1.54,0,0,0-.73-.65,2.73,2.73,0,0,0-1.16-.22Zm25.29,0v1.64h1.14a1.64,1.64,0,0,0,.58-.09.81.81,0,0,0,.37-.28.78.78,0,0,0,.13-.46.72.72,0,0,0-.27-.61,1.24,1.24,0,0,0-.73-.2ZM15,27.49v1.85h1.12a1.33,1.33,0,0,0,.8-.23,1,1,0,0,0,0-1.4,1.32,1.32,0,0,0-.79-.22Zm57.92,0a1.88,1.88,0,0,0-1.07.27,1.64,1.64,0,0,0-.6.75,3,3,0,0,0,0,2.05,1.56,1.56,0,0,0,.6.74,1.81,1.81,0,0,0,1.07.28A1.83,1.83,0,0,0,74,31.25a1.67,1.67,0,0,0,.59-.74,3,3,0,0,0,0-2.05,1.75,1.75,0,0,0-.59-.75A1.91,1.91,0,0,0,73,27.44Zm-8.61-1h5v1.05H67.58v5H66.16v-5H64.34V26.47Zm-6.75,0H59l3.13,4.06V26.47h1.33v6H62.05l-3.13-4.09V32.5H57.59v-6Zm-6,0h4.56v1H53v1.41h2.85v1H53v1.54h3.14v1H51.55v-6Zm-8.62,0h1.63l1.85,2.79,1.82-2.79H49.8v6H48.4V28.1l-1.6,2.47h-.88l-1.63-2.46V32.5H42.93v-6Zm-4.68,0h1.49l2.45,6H40.71l-.48-1.33H37.77l-.5,1.33H35.81l2.44-6Zm-7,0h5v1.05H34.52v5H33.1v-5H31.28V26.47Zm-5.6,0h2.8a3.81,3.81,0,0,1,1.17.16,1.7,1.7,0,0,1,.82.53,1.5,1.5,0,0,1,.3,1,1.38,1.38,0,0,1-.35,1,1.9,1.9,0,0,1-1,.57,1.7,1.7,0,0,1,.68.23,1.37,1.37,0,0,1,.42.47,3.72,3.72,0,0,1,.29.71l.45,1.42H29.73l-.31-1.17a3.08,3.08,0,0,0-.24-.64.79.79,0,0,0-.35-.37,1.22,1.22,0,0,0-.62-.13H27.1V32.5H25.68v-6Zm-4.67,0H22.5l2.45,6H23.47L23,31.17H20.53L20,32.5H18.56l2.45-6Zm-7.4,0h2.67a3.4,3.4,0,0,1,1.22.21,1.87,1.87,0,0,1,.88.64,2,2,0,0,1,0,2.19,1.85,1.85,0,0,1-.88.63,3.4,3.4,0,0,1-1.22.21H15V32.5H13.61v-6Zm-6,0h4.57v1H9v1.41h2.85v1H9v1.54h3.15v1H7.57v-6Zm-7.18,0H2.92a4.42,4.42,0,0,1,1.87.36,2.65,2.65,0,0,1,1.18,1,3.06,3.06,0,0,1,.41,1.61A3.15,3.15,0,0,1,6,31.12a2.73,2.73,0,0,1-1.19,1,4.57,4.57,0,0,1-1.86.35H.39v-6ZM73,26.39a3.93,3.93,0,0,1,1.8.38,2.66,2.66,0,0,1,1.12,1.08,3.32,3.32,0,0,1,.39,1.64,3.25,3.25,0,0,1-.39,1.63,2.66,2.66,0,0,1-1.12,1.08,3.93,3.93,0,0,1-1.8.38,4,4,0,0,1-1.81-.38A2.66,2.66,0,0,1,70,31.12a3.25,3.25,0,0,1-.39-1.63A3.32,3.32,0,0,1,70,27.85a2.66,2.66,0,0,1,1.12-1.08A4,4,0,0,1,73,26.39Z" fill-rule="evenodd" transform="translate(0 -0.16)" style="fill: rgb(140, 45, 25);"/><path d="M39,27.71l-.89,2.42h1.77L39,27.71Zm-17.25,0-.89,2.42h1.77l-.88-2.42ZM1.81,27.52v3.93h1A2.83,2.83,0,0,0,4,31.23a1.43,1.43,0,0,0,.71-.66,2.28,2.28,0,0,0,.24-1.11,2.07,2.07,0,0,0-.26-1.07,1.54,1.54,0,0,0-.73-.65,2.73,2.73,0,0,0-1.16-.22Zm25.29,0v1.64h1.14a1.64,1.64,0,0,0,.58-.09.81.81,0,0,0,.37-.28.78.78,0,0,0,.13-.46.72.72,0,0,0-.27-.61,1.24,1.24,0,0,0-.73-.2ZM15,27.49v1.85h1.12a1.33,1.33,0,0,0,.8-.23,1,1,0,0,0,0-1.4,1.32,1.32,0,0,0-.79-.22Zm57.92,0a1.88,1.88,0,0,0-1.07.27,1.64,1.64,0,0,0-.6.75,3,3,0,0,0,0,2.05,1.56,1.56,0,0,0,.6.74,1.81,1.81,0,0,0,1.07.28A1.83,1.83,0,0,0,74,31.25a1.67,1.67,0,0,0,.59-.74,3,3,0,0,0,0-2.05,1.75,1.75,0,0,0-.59-.75A1.91,1.91,0,0,0,73,27.44Zm-8.61-1h5v1.05H67.58v5H66.16v-5H64.34V26.47Zm-6.75,0H59l3.13,4.06V26.47h1.33v6H62.05l-3.13-4.09V32.5H57.59v-6Zm-6,0h4.56v1H53v1.41h2.85v1H53v1.54h3.14v1H51.55v-6Zm-8.62,0h1.63l1.85,2.79,1.82-2.79H49.8v6H48.4V28.1l-1.6,2.47h-.88l-1.63-2.46V32.5H42.93v-6Zm-4.68,0h1.49l2.45,6H40.71l-.48-1.33H37.77l-.5,1.33H35.81l2.44-6Zm-7,0h5v1.05H34.52v5H33.1v-5H31.28V26.47Zm-5.6,0h2.8a3.81,3.81,0,0,1,1.17.16,1.7,1.7,0,0,1,.82.53,1.5,1.5,0,0,1,.3,1,1.38,1.38,0,0,1-.35,1,1.9,1.9,0,0,1-1,.57,1.7,1.7,0,0,1,.68.23,1.37,1.37,0,0,1,.42.47,3.72,3.72,0,0,1,.29.71l.45,1.42H29.73l-.31-1.17a3.08,3.08,0,0,0-.24-.64.79.79,0,0,0-.35-.37,1.22,1.22,0,0,0-.62-.13H27.1V32.5H25.68v-6Zm-4.67,0H22.5l2.45,6H23.47L23,31.17H20.53L20,32.5H18.56l2.45-6Zm-7.4,0h2.67a3.4,3.4,0,0,1,1.22.21,1.87,1.87,0,0,1,.88.64,2,2,0,0,1,0,2.19,1.85,1.85,0,0,1-.88.63,3.4,3.4,0,0,1-1.22.21H15V32.5H13.61v-6Zm-6,0h4.57v1H9v1.41h2.85v1H9v1.54h3.15v1H7.57v-6Zm-7.18,0H2.92a4.42,4.42,0,0,1,1.87.36,2.65,2.65,0,0,1,1.18,1,3.06,3.06,0,0,1,.41,1.61A3.15,3.15,0,0,1,6,31.12a2.73,2.73,0,0,1-1.19,1,4.57,4.57,0,0,1-1.86.35H.39v-6ZM73,26.39a3.93,3.93,0,0,1,1.8.38,2.66,2.66,0,0,1,1.12,1.08,3.32,3.32,0,0,1,.39,1.64,3.25,3.25,0,0,1-.39,1.63,2.66,2.66,0,0,1-1.12,1.08,3.93,3.93,0,0,1-1.8.38,4,4,0,0,1-1.81-.38A2.66,2.66,0,0,1,70,31.12a3.25,3.25,0,0,1-.39-1.63A3.32,3.32,0,0,1,70,27.85a2.66,2.66,0,0,1,1.12-1.08A4,4,0,0,1,73,26.39Z" stroke="#8c2d19" stroke-linejoin="round" stroke-width=".78" transform="translate(0 -0.16)" style="fill: none;"/><g clip-path="url(#__id11_s3jxbvfjau)"><path d="M0.49 21.89L76.39 21.89" stroke="#8c2d19" stroke-miterlimit="8" stroke-width="2.33" style="fill: none;"/><g clip-path="url(#__id11_s3jxbvfjau)"><path d="M73.19,38.15l-.84,2.42H74l-.85-2.42Zm-15.42,0-.85,2.42h1.7l-.85-2.42ZM1.75,38v3.93h.92a2.62,2.62,0,0,0,1.15-.22A1.41,1.41,0,0,0,4.5,41a2.29,2.29,0,0,0,.23-1.11,2.17,2.17,0,0,0-.24-1.07,1.54,1.54,0,0,0-.71-.65A2.5,2.5,0,0,0,2.67,38ZM62.9,38v1.64H64a1.47,1.47,0,0,0,.55-.09.75.75,0,0,0,.48-.75.71.71,0,0,0-.26-.6,1.11,1.11,0,0,0-.69-.2Zm9.58-1h1.43l2.35,6H74.84l-.46-1.33H72l-.48,1.33h-1.4l2.34-6Zm-4.61,0h1.36v6H67.87v-6Zm-6.33,0h2.68a3.52,3.52,0,0,1,1.12.16,1.7,1.7,0,0,1,.79.53,1.53,1.53,0,0,1,.28,1,1.46,1.46,0,0,1-.33,1,1.78,1.78,0,0,1-1,.57,1.65,1.65,0,0,1,.66.23,1.43,1.43,0,0,1,.4.47,3.78,3.78,0,0,1,.27.71l.43,1.42H65.42l-.3-1.17a2.91,2.91,0,0,0-.23-.64.84.84,0,0,0-.34-.38,1.21,1.21,0,0,0-.59-.12H62.9v2.31H61.54v-6Zm-4.48,0h1.43l2.34,6H59.41L59,41.61H56.6l-.48,1.33H54.71l2.35-6Zm-8.74,0h1.36v2.35h3V36.91H54v6H52.63V40.38h-3v2.56H48.32v-6Zm-7.17,0h1.34l3,4.06V36.91h1.29v6H45.43l-3-4.09v4.09H41.15v-6Zm-5.78,0h4.37v1h-3v1.4h2.73v1H36.73v1.53h3v1H35.37v-6Zm-14.32,0h1.33l3,4.06V36.91h1.28v6H25.32l-3-4.09v4.09H21.05v-6Zm-5.79,0h4.37v1h-3v1.4h2.73v1H16.62v1.53h3v1H15.26v-6Zm-8,0h4.38v1h-3v1.4h2.74v1H8.63v1.53h3v1H7.27v-6Zm-6.88,0H2.81a4.05,4.05,0,0,1,1.79.36,2.54,2.54,0,0,1,1.14,1,3.56,3.56,0,0,1,0,3.26,2.54,2.54,0,0,1-1.14,1,4.18,4.18,0,0,1-1.78.35H.39v-6Zm30.72-.08a4.07,4.07,0,0,1,1,.12,3,3,0,0,1,.89.37,2.16,2.16,0,0,1,.66.65,1.91,1.91,0,0,1,.32.92H32.58a1.05,1.05,0,0,0-.23-.53,1.16,1.16,0,0,0-.5-.35,2,2,0,0,0-.77-.13,1.72,1.72,0,0,0-1,.28,1.64,1.64,0,0,0-.57.75,3,3,0,0,0,0,2,1.73,1.73,0,0,0,.58.75,1.78,1.78,0,0,0,1.05.28,2.05,2.05,0,0,0,.83-.15,1.26,1.26,0,0,0,.53-.43,1.22,1.22,0,0,0,.22-.63H31.15v-1h2.91v.61a2.82,2.82,0,0,1-.34,1.38,2.31,2.31,0,0,1-1,.93,3.42,3.42,0,0,1-1.61.34,3.58,3.58,0,0,1-1.72-.39,2.7,2.7,0,0,1-1.1-1.07,3.71,3.71,0,0,1,0-3.27,2.79,2.79,0,0,1,1.1-1.08,3.7,3.7,0,0,1,1.72-.38Z" fill-rule="evenodd" transform="translate(0 -0.16)" style="fill: rgb(140, 45, 25);"/><path d="M73.19,38.15l-.84,2.42H74l-.85-2.42Zm-15.42,0-.85,2.42h1.7l-.85-2.42ZM1.75,38v3.93h.92a2.62,2.62,0,0,0,1.15-.22A1.41,1.41,0,0,0,4.5,41a2.29,2.29,0,0,0,.23-1.11,2.17,2.17,0,0,0-.24-1.07,1.54,1.54,0,0,0-.71-.65A2.5,2.5,0,0,0,2.67,38ZM62.9,38v1.64H64a1.47,1.47,0,0,0,.55-.09.75.75,0,0,0,.48-.75.71.71,0,0,0-.26-.6,1.11,1.11,0,0,0-.69-.2Zm9.58-1h1.43l2.35,6H74.84l-.46-1.33H72l-.48,1.33h-1.4l2.34-6Zm-4.61,0h1.36v6H67.87v-6Zm-6.33,0h2.68a3.52,3.52,0,0,1,1.12.16,1.7,1.7,0,0,1,.79.53,1.53,1.53,0,0,1,.28,1,1.46,1.46,0,0,1-.33,1,1.78,1.78,0,0,1-1,.57,1.65,1.65,0,0,1,.66.23,1.43,1.43,0,0,1,.4.47,3.78,3.78,0,0,1,.27.71l.43,1.42H65.42l-.3-1.17a2.91,2.91,0,0,0-.23-.64.84.84,0,0,0-.34-.38,1.21,1.21,0,0,0-.59-.12H62.9v2.31H61.54v-6Zm-4.48,0h1.43l2.34,6H59.41L59,41.61H56.6l-.48,1.33H54.71l2.35-6Zm-8.74,0h1.36v2.35h3V36.91H54v6H52.63V40.38h-3v2.56H48.32v-6Zm-7.17,0h1.34l3,4.06V36.91h1.29v6H45.43l-3-4.09v4.09H41.15v-6Zm-5.78,0h4.37v1h-3v1.4h2.73v1H36.73v1.53h3v1H35.37v-6Zm-14.32,0h1.33l3,4.06V36.91h1.28v6H25.32l-3-4.09v4.09H21.05v-6Zm-5.79,0h4.37v1h-3v1.4h2.73v1H16.62v1.53h3v1H15.26v-6Zm-8,0h4.38v1h-3v1.4h2.74v1H8.63v1.53h3v1H7.27v-6Zm-6.88,0H2.81a4.05,4.05,0,0,1,1.79.36,2.54,2.54,0,0,1,1.14,1,3.56,3.56,0,0,1,0,3.26,2.54,2.54,0,0,1-1.14,1,4.18,4.18,0,0,1-1.78.35H.39v-6Zm30.72-.08a4.07,4.07,0,0,1,1,.12,3,3,0,0,1,.89.37,2.16,2.16,0,0,1,.66.65,1.91,1.91,0,0,1,.32.92H32.58a1.05,1.05,0,0,0-.23-.53,1.16,1.16,0,0,0-.5-.35,2,2,0,0,0-.77-.13,1.72,1.72,0,0,0-1,.28,1.64,1.64,0,0,0-.57.75,3,3,0,0,0,0,2,1.73,1.73,0,0,0,.58.75,1.78,1.78,0,0,0,1.05.28,2.05,2.05,0,0,0,.83-.15,1.26,1.26,0,0,0,.53-.43,1.22,1.22,0,0,0,.22-.63H31.15v-1h2.91v.61a2.82,2.82,0,0,1-.34,1.38,2.31,2.31,0,0,1-1,.93,3.42,3.42,0,0,1-1.61.34,3.58,3.58,0,0,1-1.72-.39,2.7,2.7,0,0,1-1.1-1.07,3.71,3.71,0,0,1,0-3.27,2.79,2.79,0,0,1,1.1-1.08,3.7,3.7,0,0,1,1.72-.38Z" stroke="#8c2d19" stroke-linejoin="round" stroke-width=".78" transform="translate(0 -0.16)" style="fill: none;"/><g clip-path="url(#__id11_s3jxbvfjau)"><path d="M65.34,48.44l-.9,2.29h1.79l-.89-2.29Zm-43.05,0-.89,2.29h1.79l-.9-2.29Zm17.63-.19v1.56h1.16a1.68,1.68,0,0,0,.58-.09.83.83,0,0,0,.38-.27.79.79,0,0,0,.13-.44.64.64,0,0,0-.28-.57,1.24,1.24,0,0,0-.73-.19Zm31.72-1h4.62v1H73.08v1.33H76v1H73.08V52h3.18v1H71.64V47.26Zm-7.06,0h1.51L68.57,53h-1.5l-.49-1.26H64.1L63.59,53H62.11l2.47-5.72Zm-12.13,0h1.43V53H52.45V47.26Zm-14,0h2.83a4,4,0,0,1,1.19.16,1.7,1.7,0,0,1,.82.5,1.35,1.35,0,0,1,.31.92,1.32,1.32,0,0,1-.35.92,2.08,2.08,0,0,1-1.07.54,1.61,1.61,0,0,1,.7.22,1.27,1.27,0,0,1,.42.44,3.36,3.36,0,0,1,.3.68L44.09,53h-1.5l-.32-1.11a2.77,2.77,0,0,0-.24-.61.87.87,0,0,0-.36-.35,1.36,1.36,0,0,0-.63-.12H39.92V53H38.49V47.26Zm-7.36,0h1.48v3.42a1.39,1.39,0,0,0,.34,1,1.53,1.53,0,0,0,1.1.35,1.44,1.44,0,0,0,1.08-.35,1.39,1.39,0,0,0,.34-1V47.26H37v3.45a2.55,2.55,0,0,1-.3,1.28,1.92,1.92,0,0,1-.95.79,5.24,5.24,0,0,1-3.32,0,1.86,1.86,0,0,1-.94-.79,2.55,2.55,0,0,1-.31-1.28V47.26Zm-4.86,0h1.44v4.67h2.9v1H26.27V47.26Zm-4.73,0h1.51L25.53,53H24l-.49-1.26H21.05L20.55,53H19.07l2.47-5.72Zm-7,0H19.6v1H17.77V53H16.33V48.25H14.49v-1Zm-5.38,0h4.62v1H10.55v1.33h2.88v1H10.55V52h3.18v1H9.11V47.26Zm-8.72,0H2L3.91,49.9l1.84-2.64H7.34V53H5.92V48.81L4.3,51.15H3.42L1.76,48.81V53H.39V47.26Zm58.29-.08a4.44,4.44,0,0,1,1.49.24,2.71,2.71,0,0,1,1.11.68,1.74,1.74,0,0,1,.46,1.11H60.27a1,1,0,0,0-.28-.57,1.3,1.3,0,0,0-.55-.35,2.58,2.58,0,0,0-.76-.11,1.92,1.92,0,0,0-1.08.27,1.53,1.53,0,0,0-.6.71,2.35,2.35,0,0,0-.19,1,2.32,2.32,0,0,0,.19,1,1.48,1.48,0,0,0,.6.71,1.92,1.92,0,0,0,1.08.27,1.89,1.89,0,0,0,1.13-.3,1.2,1.2,0,0,0,.47-.87h1.47a2.23,2.23,0,0,1-.44,1.19,2.45,2.45,0,0,1-1.05.73,4.69,4.69,0,0,1-1.58.24,4.11,4.11,0,0,1-1.79-.36,2.69,2.69,0,0,1-1.16-1,3.2,3.2,0,0,1,0-3.1,2.69,2.69,0,0,1,1.16-1,4.11,4.11,0,0,1,1.79-.37ZM48,47.18a4.57,4.57,0,0,1,1,.12,3.44,3.44,0,0,1,.93.35,2.3,2.3,0,0,1,.7.61,1.66,1.66,0,0,1,.33.88H49.5a1,1,0,0,0-.24-.5,1.35,1.35,0,0,0-.53-.34,2.39,2.39,0,0,0-.81-.12,2,2,0,0,0-1.09.27,1.6,1.6,0,0,0-.6.71,2.32,2.32,0,0,0-.19,1,2.4,2.4,0,0,0,.19,1,1.61,1.61,0,0,0,.61.71,2,2,0,0,0,1.11.26,2.27,2.27,0,0,0,.87-.14,1.35,1.35,0,0,0,.57-.41,1.13,1.13,0,0,0,.23-.6H48V50h3.07v.58a2.36,2.36,0,0,1-.36,1.31,2.44,2.44,0,0,1-1.05.89,4.1,4.1,0,0,1-1.7.31,4.17,4.17,0,0,1-1.81-.36,2.72,2.72,0,0,1-1.17-1,3.2,3.2,0,0,1,0-3.1,2.72,2.72,0,0,1,1.17-1A4.17,4.17,0,0,1,48,47.18Zm-13.6-1.55H35.8L34.39,46.8h-1l1-1.17Z" fill-rule="evenodd" transform="translate(0 -0.16)" style="fill: rgb(140, 45, 25);"/><path d="M65.34,48.44l-.9,2.29h1.79l-.89-2.29Zm-43.05,0-.89,2.29h1.79l-.9-2.29Zm17.63-.19v1.56h1.16a1.68,1.68,0,0,0,.58-.09.83.83,0,0,0,.38-.27.79.79,0,0,0,.13-.44.64.64,0,0,0-.28-.57,1.24,1.24,0,0,0-.73-.19Zm31.72-1h4.62v1H73.08v1.33H76v1H73.08V52h3.18v1H71.64V47.26Zm-7.06,0h1.51L68.57,53h-1.5l-.49-1.26H64.1L63.59,53H62.11l2.47-5.72Zm-12.13,0h1.43V53H52.45V47.26Zm-14,0h2.83a4,4,0,0,1,1.19.16,1.7,1.7,0,0,1,.82.5,1.35,1.35,0,0,1,.31.92,1.32,1.32,0,0,1-.35.92,2.08,2.08,0,0,1-1.07.54,1.61,1.61,0,0,1,.7.22,1.27,1.27,0,0,1,.42.44,3.36,3.36,0,0,1,.3.68L44.09,53h-1.5l-.32-1.11a2.77,2.77,0,0,0-.24-.61.87.87,0,0,0-.36-.35,1.36,1.36,0,0,0-.63-.12H39.92V53H38.49V47.26Zm-7.36,0h1.48v3.42a1.39,1.39,0,0,0,.34,1,1.53,1.53,0,0,0,1.1.35,1.44,1.44,0,0,0,1.08-.35,1.39,1.39,0,0,0,.34-1V47.26H37v3.45a2.55,2.55,0,0,1-.3,1.28,1.92,1.92,0,0,1-.95.79,5.24,5.24,0,0,1-3.32,0,1.86,1.86,0,0,1-.94-.79,2.55,2.55,0,0,1-.31-1.28V47.26Zm-4.86,0h1.44v4.67h2.9v1H26.27V47.26Zm-4.73,0h1.51L25.53,53H24l-.49-1.26H21.05L20.55,53H19.07l2.47-5.72Zm-7,0H19.6v1H17.77V53H16.33V48.25H14.49v-1Zm-5.38,0h4.62v1H10.55v1.33h2.88v1H10.55V52h3.18v1H9.11V47.26Zm-8.72,0H2L3.91,49.9l1.84-2.64H7.34V53H5.92V48.81L4.3,51.15H3.42L1.76,48.81V53H.39V47.26Zm58.29-.08a4.44,4.44,0,0,1,1.49.24,2.71,2.71,0,0,1,1.11.68,1.74,1.74,0,0,1,.46,1.11H60.27a1,1,0,0,0-.28-.57,1.3,1.3,0,0,0-.55-.35,2.58,2.58,0,0,0-.76-.11,1.92,1.92,0,0,0-1.08.27,1.53,1.53,0,0,0-.6.71,2.35,2.35,0,0,0-.19,1,2.32,2.32,0,0,0,.19,1,1.48,1.48,0,0,0,.6.71,1.92,1.92,0,0,0,1.08.27,1.89,1.89,0,0,0,1.13-.3,1.2,1.2,0,0,0,.47-.87h1.47a2.23,2.23,0,0,1-.44,1.19,2.45,2.45,0,0,1-1.05.73,4.69,4.69,0,0,1-1.58.24,4.11,4.11,0,0,1-1.79-.36,2.69,2.69,0,0,1-1.16-1,3.2,3.2,0,0,1,0-3.1,2.69,2.69,0,0,1,1.16-1,4.11,4.11,0,0,1,1.79-.37ZM48,47.18a4.57,4.57,0,0,1,1,.12,3.44,3.44,0,0,1,.93.35,2.3,2.3,0,0,1,.7.61,1.66,1.66,0,0,1,.33.88H49.5a1,1,0,0,0-.24-.5,1.35,1.35,0,0,0-.53-.34,2.39,2.39,0,0,0-.81-.12,2,2,0,0,0-1.09.27,1.6,1.6,0,0,0-.6.71,2.32,2.32,0,0,0-.19,1,2.4,2.4,0,0,0,.19,1,1.61,1.61,0,0,0,.61.71,2,2,0,0,0,1.11.26,2.27,2.27,0,0,0,.87-.14,1.35,1.35,0,0,0,.57-.41,1.13,1.13,0,0,0,.23-.6H48V50h3.07v.58a2.36,2.36,0,0,1-.36,1.31,2.44,2.44,0,0,1-1.05.89,4.1,4.1,0,0,1-1.7.31,4.17,4.17,0,0,1-1.81-.36,2.72,2.72,0,0,1-1.17-1,3.2,3.2,0,0,1,0-3.1,2.72,2.72,0,0,1,1.17-1A4.17,4.17,0,0,1,48,47.18Zm-13.6-1.55H35.8L34.39,46.8h-1l1-1.17Z" stroke="#8c2d19" stroke-linejoin="round" stroke-width=".78" transform="translate(0 -0.16)" style="fill: none;"/><g clip-path="url(#__id11_s3jxbvfjau)"><path d="M62.22,58.85l-1,2.42h2.05l-1-2.42Zm-31,0-1,2.42h2.05l-1-2.42ZM2,58.66v3.93H3.15a3.72,3.72,0,0,0,1.39-.22,1.58,1.58,0,0,0,.83-.66,2,2,0,0,0,.28-1.11A1.75,1.75,0,0,0,4.5,58.87a3.83,3.83,0,0,0-1.35-.21Zm47.71,0v1.64h1.32a2.22,2.22,0,0,0,.67-.09,1,1,0,0,0,.43-.29.69.69,0,0,0,.15-.46.66.66,0,0,0-.32-.6,1.57,1.57,0,0,0-.83-.2Zm17-1h1.65v6H66.78v-6Zm-5.43,0h1.73l2.85,6H64.21l-.56-1.33H60.8l-.58,1.33h-1.7l2.83-6Zm-5.58,0h1.65v6H55.77v-6Zm-7.67,0h3.25a5.13,5.13,0,0,1,1.36.16,2.09,2.09,0,0,1,.95.53,1.35,1.35,0,0,1,.34,1,1.3,1.3,0,0,1-.4,1,2.32,2.32,0,0,1-1.21.57,2.18,2.18,0,0,1,.79.23,1.47,1.47,0,0,1,.49.47,3.64,3.64,0,0,1,.33.71l.53,1.42H52.8l-.37-1.17a3,3,0,0,0-.27-.64,1,1,0,0,0-.41-.38,1.73,1.73,0,0,0-.72-.12H49.75v2.31H48.1v-6Zm-7,0h5.3v1H42.74v1.4h3.31v1H42.74V62.6h3.65v1h-5.3v-6Zm-6.84,0h5.86v1H38v5H36.36v-5H34.25v-1Zm-3.92,0h1.73q1.41,3,2.84,6H33.18l-.56-1.33H29.77l-.58,1.33h-1.7l2.84-6Zm-11.93,0h1.9l2.14,2.78,2.12-2.78h1.82v6H24.76v-4.4L22.9,61.71h-1L20,59.25v4.39H18.4v-6Zm-9.67,0H14v1H10.38v1.4h3.3v1h-3.3V62.6H14v1H8.73v-6Zm-8.34,0H3.33A6,6,0,0,1,5.49,58a3,3,0,0,1,1.38,1,2.66,2.66,0,0,1,.47,1.61,2.77,2.77,0,0,1-.48,1.65,3,3,0,0,1-1.38,1,6,6,0,0,1-2.15.35H.39v-6ZM73,57.53a5.38,5.38,0,0,1,1.49.19,2.42,2.42,0,0,1,1.08.57,1.31,1.31,0,0,1,.41,1H74.33A.6.6,0,0,0,74,58.7a2,2,0,0,0-.91-.19,2.19,2.19,0,0,0-.87.15.48.48,0,0,0-.35.46.42.42,0,0,0,.15.32,1.34,1.34,0,0,0,.54.26,10.85,10.85,0,0,0,1.14.3,11.69,11.69,0,0,1,1.48.42A2,2,0,0,1,76,61a1.4,1.4,0,0,1,.28.92,1.39,1.39,0,0,1-.41,1,2.64,2.64,0,0,1-1.12.58,6.47,6.47,0,0,1-1.6.18,6.13,6.13,0,0,1-1.61-.19,2.43,2.43,0,0,1-1.14-.63A1.47,1.47,0,0,1,70,61.79h1.69a.79.79,0,0,0,.21.55,1.27,1.27,0,0,0,.54.29,3.57,3.57,0,0,0,.77.08,3.32,3.32,0,0,0,.74-.07,1.18,1.18,0,0,0,.49-.24.52.52,0,0,0,.18-.41.56.56,0,0,0-.15-.39,1.47,1.47,0,0,0-.54-.28A9.74,9.74,0,0,0,72.79,61a12.56,12.56,0,0,1-1.41-.39,2.36,2.36,0,0,1-.92-.56,1.19,1.19,0,0,1-.32-.88,1.28,1.28,0,0,1,.37-1,2.25,2.25,0,0,1,1-.55,6.19,6.19,0,0,1,1.5-.17Z" fill-rule="evenodd" transform="translate(0 -0.16)" style="fill: rgb(140, 45, 25);"/><path d="M62.22,58.85l-1,2.42h2.05l-1-2.42Zm-31,0-1,2.42h2.05l-1-2.42ZM2,58.66v3.93H3.15a3.72,3.72,0,0,0,1.39-.22,1.58,1.58,0,0,0,.83-.66,2,2,0,0,0,.28-1.11A1.75,1.75,0,0,0,4.5,58.87a3.83,3.83,0,0,0-1.35-.21Zm47.71,0v1.64h1.32a2.22,2.22,0,0,0,.67-.09,1,1,0,0,0,.43-.29.69.69,0,0,0,.15-.46.66.66,0,0,0-.32-.6,1.57,1.57,0,0,0-.83-.2Zm17-1h1.65v6H66.78v-6Zm-5.43,0h1.73l2.85,6H64.21l-.56-1.33H60.8l-.58,1.33h-1.7l2.83-6Zm-5.58,0h1.65v6H55.77v-6Zm-7.67,0h3.25a5.13,5.13,0,0,1,1.36.16,2.09,2.09,0,0,1,.95.53,1.35,1.35,0,0,1,.34,1,1.3,1.3,0,0,1-.4,1,2.32,2.32,0,0,1-1.21.57,2.18,2.18,0,0,1,.79.23,1.47,1.47,0,0,1,.49.47,3.64,3.64,0,0,1,.33.71l.53,1.42H52.8l-.37-1.17a3,3,0,0,0-.27-.64,1,1,0,0,0-.41-.38,1.73,1.73,0,0,0-.72-.12H49.75v2.31H48.1v-6Zm-7,0h5.3v1H42.74v1.4h3.31v1H42.74V62.6h3.65v1h-5.3v-6Zm-6.84,0h5.86v1H38v5H36.36v-5H34.25v-1Zm-3.92,0h1.73q1.41,3,2.84,6H33.18l-.56-1.33H29.77l-.58,1.33h-1.7l2.84-6Zm-11.93,0h1.9l2.14,2.78,2.12-2.78h1.82v6H24.76v-4.4L22.9,61.71h-1L20,59.25v4.39H18.4v-6Zm-9.67,0H14v1H10.38v1.4h3.3v1h-3.3V62.6H14v1H8.73v-6Zm-8.34,0H3.33A6,6,0,0,1,5.49,58a3,3,0,0,1,1.38,1,2.66,2.66,0,0,1,.47,1.61,2.77,2.77,0,0,1-.48,1.65,3,3,0,0,1-1.38,1,6,6,0,0,1-2.15.35H.39v-6ZM73,57.53a5.38,5.38,0,0,1,1.49.19,2.42,2.42,0,0,1,1.08.57,1.31,1.31,0,0,1,.41,1H74.33A.6.6,0,0,0,74,58.7a2,2,0,0,0-.91-.19,2.19,2.19,0,0,0-.87.15.48.48,0,0,0-.35.46.42.42,0,0,0,.15.32,1.34,1.34,0,0,0,.54.26,10.85,10.85,0,0,0,1.14.3,11.69,11.69,0,0,1,1.48.42A2,2,0,0,1,76,61a1.4,1.4,0,0,1,.28.92,1.39,1.39,0,0,1-.41,1,2.64,2.64,0,0,1-1.12.58,6.47,6.47,0,0,1-1.6.18,6.13,6.13,0,0,1-1.61-.19,2.43,2.43,0,0,1-1.14-.63A1.47,1.47,0,0,1,70,61.79h1.69a.79.79,0,0,0,.21.55,1.27,1.27,0,0,0,.54.29,3.57,3.57,0,0,0,.77.08,3.32,3.32,0,0,0,.74-.07,1.18,1.18,0,0,0,.49-.24.52.52,0,0,0,.18-.41.56.56,0,0,0-.15-.39,1.47,1.47,0,0,0-.54-.28A9.74,9.74,0,0,0,72.79,61a12.56,12.56,0,0,1-1.41-.39,2.36,2.36,0,0,1-.92-.56,1.19,1.19,0,0,1-.32-.88,1.28,1.28,0,0,1,.37-1,2.25,2.25,0,0,1,1-.55,6.19,6.19,0,0,1,1.5-.17Z" stroke="#8c2d19" stroke-linejoin="round" stroke-width=".78" transform="translate(0 -0.16)" style="fill: none;"/></g></g></g></g></g></g></svg>