<svg xmlns="http://www.w3.org/2000/svg" viewBox="0 0 115.58 62.58"><defs><style>.cls-1{fill:#29235c;}.cls-2{fill:#36a9e1;}.cls-3{fill:#1d71b8;}.cls-4{fill:#fff;}.cls-5{fill:#1d1d1b;}</style></defs><g id="Camada_2" data-name="Camada 2"><g id="Camada_1-2" data-name="Camada 1"><rect class="cls-1" x="0.22" width="33.92" height="33.92"/><rect class="cls-2" x="35.69" width="33.92" height="33.92"/><rect class="cls-3" x="71.16" width="33.92" height="33.92"/><path class="cls-4" d="M85.59,21.16c0-.15-.25-3.6-2.45-5S76.69,15,76.51,15l-.78,0,.28.73c.08.19,1.8,4.53,3.92,5.9a4.42,4.42,0,0,0,2.46.67,8,8,0,0,0,2.87-.6l.35-.16Zm-5-.47c-1.33-.86-2.58-3.34-3.15-4.6,1.3,0,3.82.14,5.13,1s1.77,2.88,1.89,3.74A4.65,4.65,0,0,1,80.54,20.69Z"/><path class="cls-4" d="M99.3,4.6,99,3.87l-.62.48a14.8,14.8,0,0,1-4.33,2.21c-2.29.87-4.67,1.77-6.76,4.69-1.49,2.08-2.21,6.66-.09,9.56a20.85,20.85,0,0,0-1.71,7.72.56.56,0,0,0,.54.58h0a.57.57,0,0,0,.57-.55c.17-6.25,3.26-12,9.42-17.69a.57.57,0,0,0-.76-.84,33.17,33.17,0,0,0-7.51,9.56,8.14,8.14,0,0,1,.44-7.68c1.89-2.64,4-3.44,6.24-4.29a18.13,18.13,0,0,0,4-1.91C99.75,9.93,99.14,15,96.93,18a7.27,7.27,0,0,1-6.7,2.66.57.57,0,0,0-.7.39.57.57,0,0,0,.39.7,4.87,4.87,0,0,0,1.24.14,8.59,8.59,0,0,0,6.69-3.22C100.39,15.21,101,9.28,99.3,4.6Z"/><path class="cls-4" d="M50.16,21.07c.13.44.25.89.37,1.36,2.1.46,4.48.66,6.37-1.23s1.67-4.32,1.2-6.43l-.26-1c-.11-.4-.22-.8-.34-1.21l-.11-.38c-.1-.36-.2-.72-.29-1.07a13.14,13.14,0,0,1-.47-2.78A5.6,5.6,0,0,1,56.73,7a3.88,3.88,0,0,1,.74-1.62c.1-.12.21-.25.32-.36a2.91,2.91,0,0,1,.27-.24l0,0,0,0,0,0a.63.63,0,0,0,0-.83.6.6,0,0,0-.41-.22.59.59,0,0,0-.46.14,3.33,3.33,0,0,0-.39.36l-.32.34c-1.57,1.86-1.32,4.12-.88,6.09.07.31.15.64.26,1l.33,1.21.11.38c.1.36.2.72.29,1.07a12.52,12.52,0,0,1,.47,2.78,5,5,0,0,1-.1,1.26A3.69,3.69,0,0,1,56.35,20a3.73,3.73,0,0,1-.32.36,3.77,3.77,0,0,1-2,1.06,5.12,5.12,0,0,1-1.27.1A12.34,12.34,0,0,1,50.16,21.07Z"/><path class="cls-4" d="M65.08,13l.34-.31a4.48,4.48,0,0,0,.36-.4.62.62,0,0,0,.14-.45.63.63,0,0,0-.23-.42.61.61,0,0,0-.82,0,.09.09,0,0,1-.13,0L58.88,5.6l-.29.25a3.7,3.7,0,0,0-.24.29L64.19,12a.09.09,0,0,1,0,.07.08.08,0,0,1,0,.07,3.78,3.78,0,0,1-1.61.74.11.11,0,0,1-.08,0L57.77,8.12a6.94,6.94,0,0,0,.12,1.2l3.48,3.47a.1.1,0,0,1-.07.17,12.28,12.28,0,0,1-2.61-.43c.11.42.24.89.36,1.36C61,14.32,63.24,14.54,65.08,13Z"/><path class="cls-4" d="M40.75,22.12a3.73,3.73,0,0,1,.36-.32,3.84,3.84,0,0,1,1.61-.74A5.69,5.69,0,0,1,44,21a12.34,12.34,0,0,1,2.62.42c-.12-.43-.25-.88-.37-1.35a11.23,11.23,0,0,0-2.48-.32,5.25,5.25,0,0,0-3.54,1.23,3.82,3.82,0,0,0-.35.31l-.36.4a.63.63,0,0,0,0,.83l.05,0a.62.62,0,0,0,.83-.05l0,0,0,0,0,0A2.91,2.91,0,0,1,40.75,22.12Z"/><path class="cls-4" d="M56.05,17.26a9.53,9.53,0,0,0-.12-1.2l-3.49-3.47a.11.11,0,0,1,0-.11.11.11,0,0,1,.09-.05,12.24,12.24,0,0,1,2.62.42c-.12-.44-.25-.89-.37-1.36-2.09-.46-4.48-.67-6.37,1.22S46.72,17,47.2,19.14c.07.33.16.67.26,1s.22.81.33,1.22l.11.38c.1.36.2.72.29,1.07a12.54,12.54,0,0,1,.47,2.77.09.09,0,0,1-.06.09.08.08,0,0,1-.1,0L45,22.21a7.73,7.73,0,0,0-1.19-.11l4.72,4.7a.1.1,0,0,1,0,.09,3.65,3.65,0,0,1-.73,1.61.08.08,0,0,1-.07,0,.08.08,0,0,1-.07,0l-5.85-5.83a2.37,2.37,0,0,0-.29.25c-.08.08-.16.18-.25.29l5.86,5.84a.11.11,0,0,1,0,.06.14.14,0,0,1,0,.07.62.62,0,0,0,0,.83s0,0,0,0a.62.62,0,0,0,.83,0,4.48,4.48,0,0,0,.4-.36l.31-.34c1.57-1.86,1.33-4.12.89-6.09-.08-.31-.16-.65-.26-1L49,21.06l-.11-.38c-.1-.36-.2-.72-.29-1.07a13.24,13.24,0,0,1-.47-2.78.1.1,0,0,1,.06-.09.09.09,0,0,1,.1,0l3.49,3.48a8,8,0,0,0,1.19.12l-4.71-4.71a.08.08,0,0,1,0-.09A3.84,3.84,0,0,1,49,14s0,0,.06,0a.1.1,0,0,1,.08,0l5.84,5.84c.11-.09.21-.17.29-.25s.16-.18.25-.29L49.62,13.4a.06.06,0,0,1,0-.07.09.09,0,0,1,0-.07,3.7,3.7,0,0,1,1.61-.73.09.09,0,0,1,.09,0Z"/><path class="cls-4" d="M26.05,28.27H17.67V24.82c3.12-.07,5.17-.69,6.07-1.85a2.06,2.06,0,0,0,.45-1.58V8.77a.57.57,0,0,0-.57-.56H17.67V5.09a.57.57,0,0,0-1.14,0V8.21H13.71V5.09a.56.56,0,0,0-.56-.57h-7a.57.57,0,1,0,0,1.13h6.46V8.21H10.66a.56.56,0,0,0-.56.56V21.39A2.06,2.06,0,0,0,10.55,23c.89,1.15,2.9,1.77,6,1.85v4a.58.58,0,0,0,.57.57h9a.57.57,0,0,0,.57-.57A.56.56,0,0,0,26.05,28.27Zm-14.58-6a1,1,0,0,1-.26-.73.59.59,0,0,0,0-.14V9.34h5.3V18.7a3.85,3.85,0,0,0-1.4-.64A2.41,2.41,0,0,0,13,18.5a1.93,1.93,0,0,0-.56,1.56,1.48,1.48,0,0,0,.77,1.2,2.06,2.06,0,0,0,1,.21,7.7,7.7,0,0,0,3-.85,7.7,7.7,0,0,0,3,.85,2.06,2.06,0,0,0,1-.21,1.49,1.49,0,0,0,.77-1.21,1.92,1.92,0,0,0-.56-1.55,2.42,2.42,0,0,0-2.15-.44,3.72,3.72,0,0,0-1.42.64V9.34h5.38v12.1a.59.59,0,0,0,0,.14.92.92,0,0,1-.23.69c-.41.53-1.69,1.42-5.7,1.42S11.89,22.83,11.47,22.31Zm4.67-2.5a4,4,0,0,1-2.44.45s-.15-.08-.18-.32a.84.84,0,0,1,.21-.62,1,1,0,0,1,.68-.19,2.45,2.45,0,0,1,1.73.68Zm4.36.45a4,4,0,0,1-2.44-.45,2.63,2.63,0,0,1,1.21-.63,1.49,1.49,0,0,1,1.2.14.83.83,0,0,1,.21.61h0C20.65,20.18,20.55,20.23,20.5,20.26Z"/><path class="cls-5" d="M2.61,39.64H.22a.06.06,0,0,0-.06,0v7.18a.06.06,0,0,0,.06.05H2.6a3.15,3.15,0,0,0,2.69-1.06,4,4,0,0,0,1-2.61A3.52,3.52,0,0,0,2.61,39.64Zm2.62,3.6a3.41,3.41,0,0,1-.87,2.19,2.38,2.38,0,0,1-1.89.63H1.16V40.5H2.47A2.69,2.69,0,0,1,5.23,43.24Z"/><path class="cls-5" d="M12.18,46.06H9V43.64h2.54a.06.06,0,0,0,.06,0v-.75a.06.06,0,0,0-.06-.06H9V40.5h3.09a.06.06,0,0,0,.05-.06v-.75a0,0,0,0,0-.05,0h-4a0,0,0,0,0-.05,0v7.18a0,0,0,0,0,.05.05h4.13a.06.06,0,0,0,.06-.05v-.75A.06.06,0,0,0,12.18,46.06Z"/><path class="cls-5" d="M16.27,39.64H14a0,0,0,0,0,0,0v7.18a0,0,0,0,0,0,.05h.89a.06.06,0,0,0,.06-.05V44.21h0a9.26,9.26,0,0,0,1,.08,2.36,2.36,0,0,0,2.61-2.48,2.2,2.2,0,0,0-.57-1.59A2.22,2.22,0,0,0,16.27,39.64Zm1.33,2.23a1.44,1.44,0,0,1-.82,1.4,2.26,2.26,0,0,1-.91.14,7.68,7.68,0,0,1-.9-.06V40.5h1.17a1.4,1.4,0,0,1,1.07.29A1.48,1.48,0,0,1,17.6,41.87Z"/><path class="cls-5" d="M22.71,39.43h-1a.07.07,0,0,0-.05,0L19,46.85a0,0,0,0,0,0,0l0,0h1s0,0,0,0l.73-2.08h2.83l.72,2.08a.05.05,0,0,0,.05,0h1a.05.05,0,0,0,0,0s0,0,0,0l-2.66-7.38A.07.07,0,0,0,22.71,39.43Zm.6,4.45H21.13l1.1-3.07Z"/><path class="cls-5" d="M29.57,43.7a1.92,1.92,0,0,0,1-.54,2.12,2.12,0,0,0,.65-1.53,2,2,0,0,0-.58-1.44,2.12,2.12,0,0,0-1.73-.55H26.75a0,0,0,0,0-.05,0v7.18a0,0,0,0,0,.05.05h.89a.06.06,0,0,0,.06-.05v-3h.87l2,3,0,0h1a.05.05,0,0,0,0,0,0,0,0,0,0,0,0Zm.61-2.06A1.21,1.21,0,0,1,28.8,43H27.7V40.5h1.1c.64,0,.81,0,1,.19h0A1.13,1.13,0,0,1,30.18,41.64Z"/><path class="cls-5" d="M37.84,40.44v-.75a.06.06,0,0,0-.06,0H32.11a0,0,0,0,0,0,0v.75a.06.06,0,0,0,0,.06h2.34v6.37a0,0,0,0,0,0,.05h.89a.06.06,0,0,0,.06-.05V40.5h2.33A.06.06,0,0,0,37.84,40.44Z"/><path class="cls-5" d="M41,39.43H40a.07.07,0,0,0-.05,0l-2.67,7.38a0,0,0,0,0,0,0l0,0h1s0,0,0,0l.73-2.08h2.82l.73,2.08a.05.05,0,0,0,0,0h1a.05.05,0,0,0,0,0s0,0,0,0L41,39.47A.07.07,0,0,0,41,39.43Zm.6,4.45H39.37l1.1-3.07Z"/><path class="cls-5" d="M52.16,39.64H50.93a.05.05,0,0,0,0,0l-2.26,5.74a2.38,2.38,0,0,0-.08.26c0-.06,0-.14-.09-.26l-2.18-5.74a.05.05,0,0,0-.05,0H45a0,0,0,0,0-.05,0v7.18a0,0,0,0,0,.05.05h.82a0,0,0,0,0,0-.05V41.13c0,.14.09.26.17.47l2,5.29a.06.06,0,0,0,.06,0h.81a.05.05,0,0,0,0,0l2.12-5.4c.08-.2.13-.33.17-.46v5.84a0,0,0,0,0,.05.05h.89a.06.06,0,0,0,.06-.05V39.69A.06.06,0,0,0,52.16,39.64Z"/><path class="cls-5" d="M58.77,46.06H55.59V43.64h2.54a.06.06,0,0,0,.06,0v-.75a.06.06,0,0,0-.06-.06H55.59V40.5h3.09a.06.06,0,0,0,0-.06v-.75a0,0,0,0,0,0,0h-4a0,0,0,0,0,0,0v7.18a0,0,0,0,0,0,.05h4.13a.06.06,0,0,0,.06-.05v-.75A.06.06,0,0,0,58.77,46.06Z"/><path class="cls-5" d="M66.49,39.64H65.6a.06.06,0,0,0-.06,0v5.8l0-.09,0-.09a1,1,0,0,0-.1-.18l-3.55-5.47,0,0H60.61a0,0,0,0,0,0,0v7.18a0,0,0,0,0,0,.05h.89a.06.06,0,0,0,.06-.05V40.94h0a.54.54,0,0,0,0,.11.21.21,0,0,1,0,.06c.05.09.09.17.13.23L65.41,47a.05.05,0,0,0,0,0h1a.06.06,0,0,0,.05-.06V39.69A0,0,0,0,0,66.49,39.64Z"/><path class="cls-5" d="M73.55,39.64H67.87a0,0,0,0,0-.05,0v.75a.06.06,0,0,0,.05.06h2.34v6.37a0,0,0,0,0,.05.05h.89a.06.06,0,0,0,.06-.05V40.5h2.34a.06.06,0,0,0,0-.06v-.75A0,0,0,0,0,73.55,39.64Z"/><path class="cls-5" d="M77.9,39.51a3.78,3.78,0,1,0,3.65,3.77A3.6,3.6,0,0,0,77.9,39.51Zm2.57,3.77A2.59,2.59,0,1,1,77.9,40.4,2.75,2.75,0,0,1,80.47,43.28Z"/><path class="cls-5" d="M88.56,39.64H86.17a.06.06,0,0,0-.06,0v7.18a.06.06,0,0,0,.06.05h2.38a3.17,3.17,0,0,0,2.69-1.06,4,4,0,0,0,1-2.61A3.52,3.52,0,0,0,88.56,39.64Zm2.61,3.6a3.4,3.4,0,0,1-.86,2.19,2.4,2.4,0,0,1-1.9.63h-1.3V40.5h1.3A2.69,2.69,0,0,1,91.17,43.24Z"/><path class="cls-5" d="M98.13,46.06H95V43.64h2.54a.06.06,0,0,0,.06,0v-.75a.06.06,0,0,0-.06-.06H95V40.5H98a.06.06,0,0,0,.06-.06v-.75s0,0-.06,0H94a0,0,0,0,0,0,0v7.18a0,0,0,0,0,0,.05h4.13a.06.06,0,0,0,.06-.05v-.75A.06.06,0,0,0,98.13,46.06Z"/><path class="cls-5" d="M4.35,58.94h-3V56.85H3.71a.21.21,0,0,0,.21-.22v-.75a.21.21,0,0,0-.21-.22H1.33V53.71H4.25a.22.22,0,0,0,.22-.22v-.75a.22.22,0,0,0-.22-.22h-4a.22.22,0,0,0-.22.22v7.17a.22.22,0,0,0,.22.22H4.35a.21.21,0,0,0,.21-.22v-.75A.21.21,0,0,0,4.35,58.94Z"/><path class="cls-5" d="M12.06,52.52h-.89a.22.22,0,0,0-.22.22v5.15L7.53,52.62a.22.22,0,0,0-.18-.1H6.18a.21.21,0,0,0-.21.22v7.17a.21.21,0,0,0,.21.22h.9a.21.21,0,0,0,.21-.22V54.59l3.56,5.5a.2.2,0,0,0,.18.1h1a.21.21,0,0,0,.22-.21V52.74A.22.22,0,0,0,12.06,52.52Z"/><path class="cls-5" d="M20.05,56.49h-.89a.22.22,0,0,0-.22.22v2.21A4.19,4.19,0,0,1,18,59a2.75,2.75,0,0,1-2.9-2.78,2.72,2.72,0,0,1,.65-1.77,2.41,2.41,0,0,1,2.05-.84,4,4,0,0,1,1.46.26l.07,0,.3.16a.21.21,0,0,0,.17,0,.2.2,0,0,0,.13-.12l.34-.74a.21.21,0,0,0-.09-.28,3.89,3.89,0,0,0-.92-.4,7.11,7.11,0,0,0-1.54-.17,3.83,3.83,0,0,0-4,3.91,4,4,0,0,0,4,4A6.86,6.86,0,0,0,19.59,60l.54-.18a.2.2,0,0,0,.14-.2V56.71A.22.22,0,0,0,20.05,56.49Z"/><path class="cls-5" d="M26.48,58.94h-3V56.85h2.38a.21.21,0,0,0,.21-.22v-.75a.21.21,0,0,0-.21-.22H23.46V53.71h2.92a.22.22,0,0,0,.22-.22v-.75a.22.22,0,0,0-.22-.22h-4a.22.22,0,0,0-.22.22v7.17a.22.22,0,0,0,.22.22h4.13a.22.22,0,0,0,.22-.22v-.75A.22.22,0,0,0,26.48,58.94Z"/><path class="cls-5" d="M34.19,52.52H33.3a.21.21,0,0,0-.21.22v5.15l-3.43-5.27a.22.22,0,0,0-.18-.1H28.32a.22.22,0,0,0-.22.22v7.17a.22.22,0,0,0,.22.22h.89a.21.21,0,0,0,.21-.22V54.59L33,60.09a.2.2,0,0,0,.18.1h1a.21.21,0,0,0,.22-.21V52.74A.22.22,0,0,0,34.19,52.52Z"/><path class="cls-5" d="M42.68,52.52h-.89a.21.21,0,0,0-.21.22V55.6h-3.8V52.74a.21.21,0,0,0-.21-.22h-.9a.21.21,0,0,0-.21.22v7.17a.21.21,0,0,0,.21.22h.9a.21.21,0,0,0,.21-.22V56.85h3.8v3.06a.21.21,0,0,0,.21.22h.89a.22.22,0,0,0,.22-.22V52.74A.22.22,0,0,0,42.68,52.52Z"/><path class="cls-5" d="M47.9,52.46a.21.21,0,0,0-.2-.15h-1a.21.21,0,0,0-.2.15l-2.68,7.38a.22.22,0,0,0,.21.29h1a.22.22,0,0,0,.21-.15l.69-2h2.59l.69,2a.21.21,0,0,0,.2.15h1a.24.24,0,0,0,.18-.09.21.21,0,0,0,0-.2Zm.17,4.3H46.35l.87-2.42Z"/><path class="cls-5" d="M54.82,56.84a2,2,0,0,0,.89-.52,2.28,2.28,0,0,0,.69-1.65,2.2,2.2,0,0,0-.63-1.56,2.3,2.3,0,0,0-1.85-.59H51.74a.22.22,0,0,0-.22.22v7.17a.22.22,0,0,0,.22.22h.89a.22.22,0,0,0,.22-.22V57.05h.62l1.91,3a.23.23,0,0,0,.19.1h1a.22.22,0,0,0,.19-.12.22.22,0,0,0,0-.22ZM55,54.68c0,.81-.39,1.19-1.22,1.19h-.94V53.71h.94c.63,0,.75,0,.91.15A1,1,0,0,1,55,54.68Z"/><rect class="cls-5" x="57.98" y="52.52" width="1.33" height="7.61" rx="0.22"/><path class="cls-5" d="M64.3,52.46a.21.21,0,0,0-.2-.15h-1a.21.21,0,0,0-.2.15l-2.67,7.38a.21.21,0,0,0,0,.2.24.24,0,0,0,.18.09h1a.21.21,0,0,0,.2-.15l.69-2h2.59l.69,2a.22.22,0,0,0,.21.15h1a.22.22,0,0,0,.21-.29Zm.18,4.3H62.76l.86-2.42Z"/><path class="cls-5" d="M77.75,56.34a3.82,3.82,0,1,0-7.64,0,3.92,3.92,0,0,0,2.46,3.75,3.62,3.62,0,0,0,.78.18l.1.12a7.57,7.57,0,0,0,1.24,1.28,8.67,8.67,0,0,0,1.46.91.18.18,0,0,0,.1,0,.25.25,0,0,0,.18-.08l.5-.69a.19.19,0,0,0,0-.18.23.23,0,0,0-.12-.15,4.63,4.63,0,0,1-1.23-.68,7.24,7.24,0,0,1-.56-.49l0-.05-.08-.09A3.82,3.82,0,0,0,77.75,56.34Zm-1.4,0a2.44,2.44,0,1,1-2.41-2.71A2.58,2.58,0,0,1,76.35,56.32Z"/><path class="cls-5" d="M84.79,52.52H83.9a.21.21,0,0,0-.21.22v4.44c0,.89-.08,1.07-.36,1.38a1.91,1.91,0,0,1-2.68,0c-.28-.31-.35-.49-.35-1.38V52.74a.22.22,0,0,0-.22-.22h-.89a.22.22,0,0,0-.22.22v4.71a2.5,2.5,0,0,0,.92,2.17,3.26,3.26,0,0,0,2.11.71,3.21,3.21,0,0,0,2.11-.71,2.46,2.46,0,0,0,.9-2.17V52.74A.22.22,0,0,0,84.79,52.52Z"/><rect class="cls-5" x="86.87" y="52.52" width="1.33" height="7.61" rx="0.22"/><path class="cls-5" d="M88.93,50.64H88a.21.21,0,0,0-.17.08l-1,1.29a.22.22,0,0,0,.17.35h.75a.26.26,0,0,0,.16-.07L89.08,51a.23.23,0,0,0,0-.24A.23.23,0,0,0,88.93,50.64Z"/><path class="cls-5" d="M97.63,52.52H96.4a.22.22,0,0,0-.2.14L94,58.23l-2.12-5.57a.22.22,0,0,0-.2-.14H90.46a.22.22,0,0,0-.22.22v7.17a.22.22,0,0,0,.22.22h.81a.22.22,0,0,0,.22-.22V55.09L93.33,60a.22.22,0,0,0,.2.14h.82a.22.22,0,0,0,.2-.14l2-5v4.94a.22.22,0,0,0,.22.22h.89a.22.22,0,0,0,.22-.22V52.74A.22.22,0,0,0,97.63,52.52Z"/><rect class="cls-5" x="99.89" y="52.52" width="1.33" height="7.61" rx="0.22"/><path class="cls-5" d="M107.87,52.64a4.38,4.38,0,0,0-1.42-.25,3.94,3.94,0,0,0,.09,7.88,4.17,4.17,0,0,0,1-.13,4.35,4.35,0,0,0,1-.36.23.23,0,0,0,.12-.27l-.25-.69a.22.22,0,0,0-.12-.13.25.25,0,0,0-.17,0,3.81,3.81,0,0,1-1.57.32A2.5,2.5,0,0,1,104,56.24a2.39,2.39,0,0,1,2.39-2.6,2.65,2.65,0,0,1,1.63.5.21.21,0,0,0,.17,0,.22.22,0,0,0,.14-.09l.44-.68a.22.22,0,0,0,0-.3A3.64,3.64,0,0,0,107.87,52.64Z"/><path class="cls-5" d="M115.57,59.84l-2.67-7.38a.21.21,0,0,0-.2-.15h-1a.21.21,0,0,0-.2.15l-2.68,7.38a.22.22,0,0,0,.21.29h1a.21.21,0,0,0,.2-.15l.69-2h2.59l.69,2a.21.21,0,0,0,.2.15h1a.22.22,0,0,0,.21-.29Zm-2.5-3.08h-1.71l.86-2.42Z"/></g></g></svg>