<?xml version="1.0" encoding="UTF-8"?>
<svg id="Layer_1" data-name="Layer 1" xmlns="http://www.w3.org/2000/svg" viewBox="0 0 354.63 409.49">
  <defs>
    <style>
      .cls-1 {
        fill: #d1d3d4;
      }

      .cls-2, .cls-3 {
        fill: #231f20;
      }

      .cls-4 {
        stroke: #abadb0;
        stroke-linecap: round;
        stroke-linejoin: round;
        stroke-width: 6.72px;
      }

      .cls-4, .cls-5 {
        fill: none;
      }

      .cls-6 {
        fill: #fff;
      }

      .cls-3 {
        stroke: #231f20;
        stroke-width: 3.06px;
      }

      .cls-3, .cls-5, .cls-7 {
        stroke-miterlimit: 10;
      }

      .cls-5 {
        stroke-width: .97px;
      }

      .cls-5, .cls-7 {
        stroke: #fff;
      }

      .cls-7 {
        fill: #ae2c25;
        stroke-width: 1.18px;
      }

      .cls-8 {
        fill: #3e3e3f;
      }

      .cls-9 {
        fill: #a7a9ac;
      }
    </style>
  </defs>
  <polygon class="cls-7" points="354.04 306.78 177.31 408.81 .59 306.78 .59 102.71 177.31 .68 354.04 102.71 354.04 306.78"/>
  <g>
    <path class="cls-6" d="M340.25,122.04c-1.02,0-1.78-.27-2.3-.81-.52-.54-.78-1.42-.78-2.64v-1.93h-3.69v-1.34h9.86v3.27c0,1.21-.25,2.09-.74,2.63-.49.54-1.28.82-2.35.82ZM340.25,120.66c.72,0,1.22-.17,1.5-.49s.42-.85.42-1.57v-1.93h-3.86v1.93c0,.35.03.65.09.91.06.26.17.47.32.65.15.17.35.3.6.38.25.08.56.12.94.12Z"/>
    <path class="cls-6" d="M338.41,131.58c-.91,0-1.69-.07-2.33-.22s-1.17-.39-1.58-.71c-.41-.32-.71-.75-.91-1.26-.19-.52-.29-1.14-.29-1.88s.1-1.35.29-1.87c.19-.52.5-.94.91-1.27.42-.33.95-.57,1.59-.72.64-.15,1.42-.23,2.32-.23s1.67.07,2.31.22c.64.15,1.17.39,1.58.72.41.33.71.75.91,1.27.19.52.29,1.14.29,1.88s-.1,1.36-.29,1.88c-.19.52-.5.94-.91,1.26-.41.32-.94.56-1.58.71-.64.15-1.41.22-2.31.22ZM338.41,130.18c.75,0,1.38-.05,1.87-.15.5-.1.89-.25,1.18-.46s.49-.49.61-.83c.12-.34.18-.75.18-1.24s-.06-.89-.18-1.23c-.12-.34-.32-.61-.61-.83-.29-.22-.68-.37-1.18-.47s-1.12-.15-1.87-.15-1.38.05-1.87.15c-.5.1-.89.25-1.18.47-.29.21-.5.49-.62.83-.12.34-.18.75-.18,1.23s.06.89.18,1.23c.12.34.32.61.62.83.29.21.69.37,1.18.47.49.1,1.12.15,1.87.15Z"/>
    <path class="cls-6" d="M340.53,140.16c-.76,0-1.37-.16-1.81-.49-.45-.33-.72-.81-.83-1.44l-4.4,2.58v-1.6l4.15-2.22v-1.98h-4.15v-1.34h9.86v3.34c0,1.09-.23,1.89-.69,2.4s-1.17.77-2.12.77ZM340.47,138.76c.62,0,1.06-.14,1.31-.42.25-.28.38-.73.38-1.35v-2h-3.47v1.95c0,.63.13,1.09.4,1.39s.72.44,1.37.44Z"/>
    <path class="cls-6" d="M342.08,145.53h-8.6v-1.37h8.6v-2.93l1.26.04v7.16l-1.26.03v-2.93Z"/>
    <path class="cls-6" d="M338.41,157.39c-.91,0-1.69-.07-2.33-.22s-1.17-.39-1.58-.71c-.41-.32-.71-.75-.91-1.26-.19-.52-.29-1.14-.29-1.88s.1-1.35.29-1.87c.19-.52.5-.94.91-1.27.42-.33.95-.57,1.59-.72.64-.15,1.42-.23,2.32-.23s1.67.07,2.31.22c.64.15,1.17.39,1.58.72.41.33.71.75.91,1.27.19.52.29,1.14.29,1.88s-.1,1.36-.29,1.88c-.19.52-.5.94-.91,1.26-.41.32-.94.56-1.58.71-.64.15-1.41.22-2.31.22ZM338.41,155.99c.75,0,1.38-.05,1.87-.15.5-.1.89-.25,1.18-.46s.49-.49.61-.83c.12-.34.18-.75.18-1.24s-.06-.89-.18-1.23c-.12-.34-.32-.61-.61-.83-.29-.22-.68-.37-1.18-.47s-1.12-.15-1.87-.15-1.38.05-1.87.15c-.5.1-.89.25-1.18.47-.29.21-.5.49-.62.83-.12.34-.18.75-.18,1.23s.06.89.18,1.23c.12.34.32.61.62.83.29.21.69.37,1.18.47.49.1,1.12.15,1.87.15Z"/>
    <path class="cls-6" d="M336.3,169.05c-.93,0-1.66-.29-2.19-.86-.54-.57-.8-1.41-.8-2.5,0-.57.07-1.1.2-1.58.14-.48.32-.92.55-1.31l1.22.21c-.25.4-.43.82-.56,1.25s-.19.9-.19,1.41c0,.7.15,1.22.45,1.57.3.34.71.51,1.24.51.37,0,.66-.12.88-.36s.41-.54.56-.9.3-.75.44-1.18c.14-.42.32-.82.53-1.18s.48-.66.81-.9.77-.36,1.31-.36c.39,0,.75.06,1.08.19.34.13.63.32.88.59s.44.6.59,1.01c.14.41.21.89.21,1.45,0,.48-.04.95-.13,1.39-.09.45-.22.85-.39,1.21l-1.17-.18c.15-.39.26-.78.35-1.16.08-.38.12-.77.12-1.2,0-.37-.04-.68-.12-.94s-.19-.47-.32-.62c-.14-.16-.29-.27-.47-.34-.17-.07-.36-.11-.55-.11-.36,0-.64.12-.85.36-.21.24-.38.54-.53.9s-.28.75-.42,1.18-.31.82-.53,1.18-.5.66-.84.9-.8.36-1.36.36Z"/>
    <path class="cls-6" d="M340.25,177.57c-1.02,0-1.78-.27-2.3-.81-.52-.54-.78-1.42-.78-2.64v-1.93h-3.69v-1.34h9.86v3.27c0,1.21-.25,2.09-.74,2.63-.49.54-1.28.82-2.35.82ZM340.25,176.19c.72,0,1.22-.17,1.5-.49s.42-.85.42-1.57v-1.93h-3.86v1.93c0,.35.03.65.09.91.06.26.17.47.32.65.15.17.35.3.6.38.25.08.56.12.94.12Z"/>
    <path class="cls-6" d="M335.84,184.5v-4.34l-2.35-.79v-1.45l9.86,3.63v1.6l-9.86,3.64v-1.51l2.35-.79ZM341.33,182.01l-4.32-1.46v3.56l4.32-1.43,1.02-.3v-.04l-1.02-.33Z"/>
    <path class="cls-6" d="M341.84,194c.12-.25.22-.56.3-.93.07-.36.11-.74.11-1.14,0-.52-.06-.96-.19-1.33-.13-.37-.34-.68-.62-.92-.29-.24-.67-.42-1.15-.53s-1.07-.17-1.78-.17c-.75,0-1.38.06-1.89.17-.51.11-.92.29-1.22.54-.31.25-.53.56-.66.93-.13.38-.2.83-.2,1.35,0,.4.04.78.12,1.12.08.34.2.66.35.95l-1.13.17c-.16-.31-.29-.67-.41-1.1-.11-.43-.17-.86-.17-1.3,0-1.46.42-2.54,1.26-3.22.84-.68,2.15-1.02,3.95-1.02,1.69,0,2.95.35,3.77,1.04s1.24,1.78,1.24,3.27c0,.41-.05.83-.14,1.26-.09.42-.2.77-.32,1.04l-1.21-.17Z"/>
    <path class="cls-6" d="M334.7,202.3l-1.22-.04v-6.28h9.86v6.06l-1.24.04v-4.76h-2.93v4.07h-1.13v-4.07h-3.34v4.98Z"/>
    <path class="cls-6" d="M342.08,211.39h-8.6v-1.37h8.6v-2.93l1.26.04v7.16l-1.26.03v-2.93Z"/>
    <path class="cls-6" d="M334.7,222.13l-1.22-.04v-6.28h9.86v6.06l-1.24.04v-4.76h-2.93v4.07h-1.13v-4.07h-3.34v4.98Z"/>
    <path class="cls-6" d="M335.84,229.54v-4.34l-2.35-.79v-1.45l9.86,3.63v1.6l-9.86,3.64v-1.51l2.35-.79ZM341.33,227.06l-4.32-1.46v3.56l4.32-1.43,1.02-.3v-.04l-1.02-.33Z"/>
    <path class="cls-6" d="M343.34,234.88l-6.97,2.83-.99.38v.04l.99.37,6.97,2.83v1.51h-9.86v-1.22h6.52l1.06.03v-.04s-.99-.38-.99-.38l-6.6-2.67v-.95l6.55-2.65,1-.38v-.03s-1.08.01-1.08.01h-6.47v-1.2h9.86v1.52Z"/>
    <path class="cls-6" d="M344.15,249.44v.97h-13v-.97h13Z"/>
    <path class="cls-6" d="M342.06,258.33h-3.02v3.97h-1.2v-3.97h-4.36v-1.35h9.86v6.06l-1.27.03v-4.73Z"/>
    <path class="cls-6" d="M334.7,271.12l-1.22-.04v-6.28h9.86v6.06l-1.24.04v-4.76h-2.93v4.07h-1.13v-4.07h-3.34v4.98Z"/>
    <path class="cls-6" d="M337.03,280.28c-1.3,0-2.24-.32-2.84-.97-.6-.65-.89-1.57-.89-2.77s.3-2.13.89-2.78c.6-.65,1.54-.98,2.84-.98h6.31v1.34h-6.3c-.87,0-1.5.2-1.89.59-.39.39-.58,1-.58,1.83s.2,1.43.59,1.82c.39.39,1.02.58,1.88.58h6.3v1.34h-6.31Z"/>
    <path class="cls-6" d="M340.25,289.36c-1.02,0-1.78-.27-2.3-.81-.52-.54-.78-1.42-.78-2.64v-1.93h-3.69v-1.34h9.86v3.27c0,1.21-.25,2.09-.74,2.63-.49.54-1.28.82-2.35.82ZM340.25,287.98c.72,0,1.22-.17,1.5-.49s.42-.85.42-1.57v-1.93h-3.86v1.93c0,.35.03.65.09.91.06.26.17.47.32.65.15.17.35.3.6.38.25.08.56.12.94.12Z"/>
  </g>
  <polygon class="cls-3" points="324.43 289.68 177.31 374.62 30.2 289.68 30.2 119.81 177.31 34.87 324.43 119.81 324.43 289.68"/>
  <polygon class="cls-5" points="322.06 288.31 177.31 371.88 32.57 288.31 32.57 121.18 177.31 37.61 322.06 121.18 322.06 288.31"/>
  <g>
    <path class="cls-6" d="M59.69,273c0,2.77-.64,4.49-1.9,5.16-1.27.67-3.34.18-6.21-1.47l-4.55-2.63v10.05l-3.16-1.82v-26.82l7.71,4.45c2.85,1.65,4.91,3.51,6.19,5.6,1.28,2.09,1.92,4.58,1.92,7.49ZM56.44,271.12c0-1.95-.39-3.54-1.16-4.75-.77-1.21-2.01-2.3-3.7-3.28l-4.55-2.63v10.51l4.55,2.63c.83.48,1.54.81,2.15.99.61.19,1.12.19,1.52.02.4-.17.7-.54.9-1.11.2-.57.29-1.36.29-2.39Z"/>
    <path class="cls-6" d="M79.39,283.62c0,2.07-.39,3.5-1.16,4.26-.77.77-1.9.87-3.39.29l6.07,15.49-3.78-2.18-5.23-14.32-4.68-2.7v11.3l-3.16-1.82v-26.82l7.87,4.54c2.56,1.48,4.44,3.19,5.65,5.14,1.21,1.95,1.81,4.22,1.81,6.82ZM76.11,281.87c0-1.69-.33-3.08-.99-4.15-.66-1.07-1.72-2.03-3.19-2.88l-4.71-2.72v9.44l4.58,2.65c1.49.86,2.58,1.12,3.27.8.69-.33,1.04-1.37,1.04-3.14Z"/>
    <path class="cls-6" d="M102.36,302.64c0,2.48-.18,4.49-.53,6.04-.35,1.55-.91,2.66-1.67,3.34s-1.75.93-2.97.75-2.69-.77-4.43-1.77c-1.71-.99-3.18-2.1-4.4-3.33-1.22-1.23-2.21-2.63-2.99-4.21-.77-1.58-1.34-3.35-1.7-5.31-.36-1.96-.54-4.17-.54-6.63s.17-4.45.53-5.99c.35-1.54.91-2.64,1.69-3.32.77-.67,1.77-.92,2.99-.74,1.22.18,2.69.77,4.43,1.77,1.73,1,3.21,2.12,4.43,3.34,1.22,1.23,2.21,2.62,2.97,4.18.76,1.56,1.32,3.31,1.67,5.26.35,1.94.53,4.14.53,6.6ZM99.05,300.73c0-2.05-.11-3.81-.34-5.29-.23-1.48-.59-2.75-1.08-3.83s-1.15-2-1.95-2.79c-.81-.79-1.78-1.51-2.91-2.16s-2.1-1.05-2.9-1.19c-.79-.14-1.45.04-1.95.54-.51.49-.87,1.35-1.1,2.57-.23,1.22-.34,2.85-.34,4.9s.11,3.81.34,5.29c.23,1.48.59,2.76,1.1,3.85.51,1.09,1.16,2.03,1.95,2.81.79.78,1.76,1.5,2.9,2.15s2.1,1.05,2.9,1.19c.79.14,1.45-.05,1.95-.55.51-.51.87-1.37,1.1-2.58s.34-2.85.34-4.9Z"/>
    <path class="cls-6" d="M117.76,315.9c0,3.27-.72,5.26-2.17,5.97-1.45.72-3.46.33-6.04-1.16-.99-.57-1.87-1.21-2.65-1.92-.77-.71-1.45-1.46-2.03-2.24l.25-3.11c.5.72,1.07,1.38,1.73,2,.66.62,1.42,1.18,2.29,1.68,1.71.99,3.04,1.25,3.98.8.94-.46,1.41-1.76,1.41-3.91v-17.74l3.22,1.86v17.77Z"/>
    <path class="cls-6" d="M138.67,333.69l-.09,3.27-14.8-8.55v-26.82l14.28,8.24.09,3.42-11.21-6.47v7.98l9.6,5.54v3.08l-9.6-5.54v9.08l11.74,6.78Z"/>
    <path class="cls-6" d="M156.77,324.72c-.6-.68-1.33-1.37-2.18-2.07-.86-.7-1.75-1.31-2.68-1.85-1.22-.7-2.27-1.14-3.14-1.3-.88-.16-1.6-.01-2.17.45-.57.46-.99,1.26-1.25,2.41-.27,1.14-.4,2.68-.4,4.61,0,2.05.13,3.85.4,5.38.27,1.54.69,2.89,1.27,4.06.58,1.17,1.31,2.19,2.2,3.06.89.87,1.95,1.66,3.19,2.38.95.55,1.83.94,2.63,1.18.81.24,1.55.35,2.23.34l.4,3.31c-.72.01-1.59-.12-2.6-.39s-2.03-.71-3.07-1.31c-3.45-1.99-5.98-4.59-7.59-7.8-1.61-3.21-2.42-7.25-2.42-12.14,0-4.6.82-7.55,2.45-8.85s4.2-.94,7.71,1.09c.97.56,1.96,1.25,2.96,2.08,1,.83,1.82,1.59,2.46,2.3l-.4,3.06Z"/>
    <path class="cls-6" d="M169.11,331.2v23.39l-3.22-1.86v-23.39l-6.91-3.99.09-3.38,16.88,9.75.06,3.47-6.91-3.99Z"/>
    <path class="cls-6" d="M198.5,314.82l3.25-1.88v26.82l-3.25,1.88v-26.82Z"/>
    <path class="cls-6" d="M222.17,305.23c-.6.01-1.33.16-2.18.46-.86.29-1.75.71-2.68,1.24-1.22.7-2.27,1.48-3.14,2.33-.88.85-1.6,1.84-2.17,2.95-.57,1.11-.99,2.4-1.25,3.85-.27,1.46-.4,3.15-.4,5.08,0,2.05.13,3.69.4,4.92.27,1.23.69,2.09,1.27,2.59.58.5,1.31.67,2.2.52.89-.15,1.95-.59,3.19-1.31.95-.55,1.83-1.17,2.63-1.86.81-.69,1.55-1.44,2.23-2.24l.4,2.84c-.72.85-1.59,1.72-2.6,2.61-1.01.89-2.03,1.64-3.07,2.24-3.45,1.99-5.98,2.31-7.59.97-1.61-1.35-2.42-4.46-2.42-9.35,0-4.6.82-8.49,2.45-11.68,1.63-3.18,4.2-5.79,7.71-7.81.97-.56,1.96-1,2.96-1.33,1-.33,1.82-.51,2.46-.55l-.4,3.52Z"/>
    <path class="cls-6" d="M240.11,311.22l-10.22,5.9-1.86,7.47-3.41,1.97,8.55-31.76,3.78-2.18,8.58,21.87-3.56,2.06-1.86-5.33ZM234.25,299.65l-3.44,13.75,8.39-4.85-3.38-9.82-.71-2.38-.09.05-.77,3.24Z"/>
    <path class="cls-6" d="M264.41,284.42c0,2.07-.39,3.94-1.16,5.61-.77,1.66-1.9,3.07-3.39,4.21l6.07,8.48-3.78,2.18-5.23-8.28-4.68,2.7v11.3l-3.16,1.82v-26.82l7.87-4.54c2.56-1.48,4.44-1.94,5.65-1.39,1.21.55,1.81,2.13,1.81,4.73ZM261.12,286.46c0-1.69-.33-2.69-.99-3-.66-.31-1.72-.04-3.19.81l-4.71,2.72v9.44l4.58-2.65c1.49-.86,2.58-1.85,3.27-2.98.69-1.13,1.04-2.57,1.04-4.34Z"/>
    <path class="cls-6" d="M286.52,281.17c0,3.53-.76,6.55-2.29,9.05-1.53,2.5-3.71,4.57-6.53,6.2-2.83,1.63-5.01,2.08-6.55,1.35-1.54-.73-2.31-2.86-2.31-6.39v-17.17l3.16-1.82v17.13c0,2.36.47,3.8,1.39,4.33.93.52,2.36.23,4.31-.89,1.94-1.12,3.37-2.48,4.29-4.09.92-1.6,1.38-3.57,1.38-5.91v-17.13l3.16-1.82v17.17Z"/>
    <path class="cls-6" d="M305.29,272.33c0,2.53-.68,4.91-2.03,7.14-1.35,2.24-3.32,4.1-5.9,5.59-1.34.78-2.58,1.31-3.72,1.59-1.14.29-2.17.39-3.1.3l.5-3.61c.95.12,1.94.06,2.96-.19,1.02-.24,2.13-.71,3.33-1.4,1.65-.95,2.88-2.07,3.69-3.34.81-1.28,1.21-2.63,1.21-4.06,0-1-.28-1.64-.85-1.9-.57-.27-1.28-.37-2.12-.29-.85.07-1.77.21-2.77.4-1,.2-1.93.25-2.77.17-.85-.08-1.55-.41-2.12-.99-.57-.58-.85-1.61-.85-3.08,0-1.05.15-2.12.45-3.21.3-1.09.76-2.16,1.39-3.2.63-1.04,1.42-2.03,2.38-2.97s2.1-1.79,3.42-2.55c1.14-.66,2.23-1.17,3.28-1.54,1.05-.37,2-.56,2.85-.57l-.43,3.43c-.93.13-1.84.34-2.73.63-.89.29-1.83.72-2.82,1.29-.87.5-1.61,1.03-2.21,1.6-.61.57-1.1,1.14-1.47,1.73-.37.58-.64,1.16-.81,1.73-.17.57-.25,1.12-.25,1.65,0,.98.28,1.58.85,1.82.57.23,1.27.3,2.12.21.85-.1,1.77-.25,2.77-.46,1-.21,1.93-.26,2.77-.17.85.1,1.55.45,2.12,1.06.57.61.85,1.68.85,3.21Z"/>
  </g>
  <polygon class="cls-2" points="177.33 130.17 243.27 168.24 177.39 206.4 111.41 168.21 177.33 130.17"/>
  <rect class="cls-2" x="171.57" y="203.18" width="11.42" height="76.14"/>
  <polygon class="cls-8" points="182.99 279.32 243.23 244.43 243.22 168.29 182.99 203.18 182.99 279.32"/>
  <polygon class="cls-8" points="111.36 244.39 111.36 168.25 171.42 203.26 171.57 279.32 111.36 244.39"/>
  <polyline class="cls-4" points="210.02 187.45 182.99 203.18 182.99 279.32 243.23 244.43 243.22 168.29 177.28 130.22 111.36 168.25 111.36 244.39 171.57 279.32 171.57 203.18 144.28 187.32"/>
  <polygon class="cls-6" points="132.81 115.89 128.8 115.58 132.34 117.49 131.36 123.78 133.93 117.96 137.94 118.27 134.4 116.36 135.38 110.08 132.81 115.89"/>
  <polygon class="cls-6" points="256.36 176.8 253.38 179.49 257.2 178.24 261.07 183.29 258.64 177.41 261.62 174.73 257.81 175.97 253.93 170.92 256.36 176.8"/>
  <polygon class="cls-6" points="172.39 75.71 168.24 77.76 172.86 77.57 175.58 84.37 174.72 77.1 178.87 75.05 174.25 75.24 171.53 68.44 172.39 75.71"/>
  <polygon class="cls-6" points="239.08 123.34 233.54 124.99 239.27 125.73 241.2 134.68 241.66 125.54 247.2 123.89 241.47 123.15 239.54 114.2 239.08 123.34"/>
  <polygon class="cls-6" points="54.89 167.19 49.35 168.84 55.08 169.58 57.01 178.53 57.47 169.39 63.01 167.74 57.28 167 55.35 158.05 54.89 167.19"/>
  <polygon class="cls-6" points="86.47 206.49 83.57 204.6 85.46 207.51 82.12 211.87 86.47 208.52 89.38 210.41 87.49 207.51 90.83 203.15 86.47 206.49"/>
  <polygon class="cls-6" points="300.96 229.97 296.31 230.33 300.71 231.89 300.69 239.28 302.62 232.15 307.27 231.8 302.88 230.23 302.9 222.84 300.96 229.97"/>
  <circle class="cls-1" cx="89.69" cy="139.46" r="1.99"/>
  <circle class="cls-1" cx="116.93" cy="135.17" r="1.99"/>
  <circle class="cls-1" cx="98.04" cy="161.16" r="1.99"/>
  <circle class="cls-1" cx="105.72" cy="107.11" r="1.99"/>
  <circle class="cls-1" cx="118.92" cy="85.14" r="1.99"/>
  <circle class="cls-1" cx="166.72" cy="55.36" r="1.99"/>
  <circle class="cls-1" cx="189.62" cy="63.95" r="1.99"/>
  <circle class="cls-1" cx="160.36" cy="111.4" r="1.99"/>
  <circle class="cls-1" cx="183.26" cy="119.99" r="1.99"/>
  <circle class="cls-1" cx="206.99" cy="107.11" r="1.99"/>
  <circle class="cls-1" cx="198.5" cy="87.13" r="1.99"/>
  <circle class="cls-1" cx="223.03" cy="113.14" r="1.99"/>
  <circle class="cls-1" cx="238.21" cy="89.62" r="1.99"/>
  <circle class="cls-1" cx="216.96" cy="135.17" r="1.99"/>
  <circle class="cls-1" cx="286.52" cy="185.38" r="1.99"/>
  <circle class="cls-1" cx="258.44" cy="107.11" r="1.99"/>
  <circle class="cls-1" cx="256.46" cy="152.89" r="1.99"/>
  <circle class="cls-1" cx="268.83" cy="130.79" r="1.99"/>
  <circle class="cls-1" cx="50.41" cy="123.96" r="1.99"/>
  <circle class="cls-9" cx="306.33" cy="204.77" r="2.74"/>
  <circle class="cls-9" cx="294.98" cy="121.65" r="2.74"/>
  <circle class="cls-9" cx="144.69" cy="137.39" r="2.74"/>
  <circle class="cls-9" cx="143.81" cy="85.14" r="2.74"/>
  <circle class="cls-9" cx="82.73" cy="108.77" r="2.74"/>
  <circle class="cls-9" cx="176.29" cy="98.2" r="2.74"/>
  <circle class="cls-9" cx="218.05" cy="81.03" r="4.11"/>
  <circle class="cls-9" cx="50.41" cy="149.02" r="2.74"/>
  <circle class="cls-1" cx="277.68" cy="163.14" r="1.99"/>
  <circle class="cls-1" cx="308.31" cy="141.45" r="1.99"/>
  <circle class="cls-1" cx="256.68" cy="196.33" r="1.99"/>
  <circle class="cls-1" cx="275.69" cy="204.77" r="1.99"/>
  <circle class="cls-9" cx="243.11" cy="175.09" r="2.74"/>
  <circle class="cls-9" cx="307.93" cy="174.77" r="2.74"/>
  <circle class="cls-9" cx="260.43" cy="226.7" r="2.74"/>
  <circle class="cls-9" cx="296.31" cy="156.86" r="2.74"/>
  <circle class="cls-9" cx="63.11" cy="222.84" r="2.74"/>
  <circle class="cls-1" cx="43.14" cy="210.01" r="1.99"/>
  <circle class="cls-1" cx="54.46" cy="193.15" r="1.99"/>
  <circle class="cls-1" cx="66.6" cy="191.17" r="1.99"/>
  <circle class="cls-1" cx="49.79" cy="239.26" r="1.99"/>
  <circle class="cls-1" cx="288.02" cy="220.99" r="1.99"/>
  <circle class="cls-9" cx="38.29" cy="177.11" r="2.74"/>
  <circle class="cls-1" cx="81.25" cy="236.86" r="1.99"/>
  <circle class="cls-1" cx="99.49" cy="230.76" r="1.99"/>
  <circle class="cls-1" cx="101.47" cy="198.32" r="1.99"/>
  <circle class="cls-9" cx="74.07" cy="166.9" r="2.74"/>
  <circle class="cls-9" cx="67.22" cy="133.68" r="4.11"/>
</svg>