<svg xmlns="http://www.w3.org/2000/svg" viewBox="0 0 206.14 206.14"><defs><style>.cls-1{fill:#f13a1c;}.cls-2{fill:#fb4629;}.cls-3{fill:#cdfdff;}.cls-4{fill:#f8fbfc;}.cls-5{fill:#f2f1f1;}.cls-6{fill:#393939;}.cls-7{fill:#feb501;}.cls-8{fill:#050203;}.cls-9{fill:#f8b608;}.cls-10{fill:#b6b5b5;}.cls-11{fill:#fc4527;}.cls-12{fill:#090707;}.cls-13{fill:#004aad;stroke:#004aad;stroke-miterlimit:10;}.cls-14{fill:#fbfafa;}.cls-15{fill:#fcfcfc;}</style></defs><g id="Camada_2" data-name="Camada 2"><g id="Camada_1-2" data-name="Camada 1"><circle cx="103.07" cy="103.07" r="103.07"/><path class="cls-1" d="M74.89,72.63c0,.29-.3.41-.48.58-1.9,1.73-3.79,3.47-5.7,5.19-1,.94-1.94,2-2.92,3-.84.84-1.47,1.86-2.39,2.63a6.48,6.48,0,0,0-.82,1c-.17.21-.31.47-.63.48,0-.18.15-.29.25-.41,1.23-1.51,2.5-3,3.85-4.38a106.86,106.86,0,0,1,8.55-7.93C74.69,72.75,74.8,72.7,74.89,72.63Z"/><path class="cls-1" d="M86.09,64.85c-.07.5-.57.5-.87.72-1.06.79-2.26,1.34-3.34,2.11-.61.44-1.26.86-1.91,1.26a2.44,2.44,0,0,0-.43.35,4.52,4.52,0,0,1-1.42,1,2.76,2.76,0,0,0-.61.47c-.13.11-.26.19-.43.07A24.71,24.71,0,0,1,79.48,69c1.9-1.4,3.91-2.63,5.92-3.85A1.81,1.81,0,0,1,86.09,64.85Z"/><path class="cls-1" d="M54.81,95.91a.29.29,0,0,1,0,.33,17.47,17.47,0,0,0-1,2c-.48,1-1.29,1.9-1.43,3.08a1.19,1.19,0,0,1-.46.85c-.33.23,0,.77-.56,1-.34.11-.36.62-.47,1a1.66,1.66,0,0,1-.42.71.48.48,0,0,1-.11.09,3.76,3.76,0,0,1,.5-1.38c1.15-2.46,2.41-4.86,3.73-7.24A.9.9,0,0,1,54.81,95.91Z"/><path class="cls-1" d="M95.5,60.18a3,3,0,0,1-1.37.8,8,8,0,0,0-2.52,1.3c-.2.17-.44.15-.66.22a13,13,0,0,0-1.86.94l-2.48,1.28a.24.24,0,0,1-.26,0,13.14,13.14,0,0,1,2.24-1.29c2.12-1.1,4.23-2.21,6.45-3.1A.84.84,0,0,1,95.5,60.18Z"/><path class="cls-1" d="M59.77,88.37a1.69,1.69,0,0,1-.62,1.2,12.65,12.65,0,0,0-1.53,2.33c-.21.36-.46.7-.7,1a4.67,4.67,0,0,0-.42.72c-.16.36-.2.8-.69,1-.15,0-.23.34-.33.52s-.15.3-.36.26a5,5,0,0,1,.76-1.31c1.2-1.87,2.38-3.74,3.69-5.52A1.21,1.21,0,0,1,59.77,88.37Z"/><path class="cls-1" d="M102,57.76c-.5.5-1.23.51-1.83.79-.89.4-1.87.59-2.72,1a5.05,5.05,0,0,1-1.87.56,11.68,11.68,0,0,1,2.12-.91c1.17-.48,2.35-.93,3.56-1.32A1.73,1.73,0,0,1,102,57.76Z"/><path class="cls-1" d="M107.74,56.08a.92.92,0,0,1-.64.38c-.9.19-1.76.51-2.64.76-.58.16-1.14.55-1.8.3a2.71,2.71,0,0,1,.91-.34l3.49-1A1.44,1.44,0,0,1,107.74,56.08Z"/><path class="cls-1" d="M61.76,85.78s.06.1,0,.13a9.81,9.81,0,0,1-1.9,2.36A1,1,0,0,1,60,88C60.57,87.26,61.11,86.47,61.76,85.78Z"/><path class="cls-1" d="M111.36,55.26c-.2.37-.6.28-.92.39a10.7,10.7,0,0,0-1.34.29c-.13.07-.27,0-.37-.12A10,10,0,0,1,111.36,55.26Z"/><path class="cls-1" d="M76.64,71.19a4,4,0,0,1-1.32,1.3s-.12,0-.19,0A6.75,6.75,0,0,1,76.64,71.19Z"/><path class="cls-1" d="M108.64,55.85c-.23.24-.45.55-.83.21A1.3,1.3,0,0,1,108.64,55.85Z"/><path class="cls-1" d="M102.6,57.55c-.17.21-.35.39-.65.21A.84.84,0,0,1,102.6,57.55Z"/><circle class="cls-2" cx="102.89" cy="102.76" r="86.31"/><ellipse class="cls-3" cx="110.39" cy="95.18" rx="75.67" ry="77.58" transform="translate(-35.31 99.27) rotate(-42.37)"/><path class="cls-4" d="M158.24,37.36a1.53,1.53,0,0,1,.59.48,1.1,1.1,0,0,0,1.34.25,40.13,40.13,0,0,1,4.26-1.42,52.14,52.14,0,0,1,7.22-1.45,24.77,24.77,0,0,1,3.22-.22h.49c.58.06.77.27.77.85a16.22,16.22,0,0,1-.47,3.26,52.28,52.28,0,0,1-3.75,11.24,1.2,1.2,0,0,0,.16,1.54,1.41,1.41,0,0,1,.18.29.41.41,0,0,1-.56.07.54.54,0,0,0-.77.25c-.13.22-.36.38-.36.66-.53.54-.82,1.29-1.47,1.73-.13.14-.35.23-.33.48l-1.56,1.43a.64.64,0,0,0-.62.56l-1.67,1.52c-.25,0-.37.16-.52.3-1.52,1.38-3,2.75-4.54,4.14-.15.13-.35.24-.34.49l-.21.19a1.31,1.31,0,0,0-.93.85l-.63.58a.48.48,0,0,0-.52.46c-1.1,1-2.23,2-3.31,3s-2.31,1.88-3.3,3a1,1,0,0,1-.34.24,3.18,3.18,0,0,0-.62.45c-1.13.84-1.87,2.09-3.09,2.83a.35.35,0,0,0-.13.16,3.22,3.22,0,0,1-.7.77c-.9,1-2.07,1.59-2.88,2.63a.91.91,0,0,1-.32.27,6,6,0,0,0-1.42,1.14c-1.39,1.25-2.77,2.52-4.15,3.78a4.18,4.18,0,0,0-1.27,1.53c-.07.14-.16.28-.23.43-.53,1.1-.34,2.34-.69,3.49-.24.8-.13,1.67-.31,2.5a11.11,11.11,0,0,0-.28,1.3c-.1.92-.22,1.85-.38,2.77s-.42,2-.6,3c-.14.76-.24,1.52-.34,2.29-.16,1.2-.61,2.35-.73,3.56a1.79,1.79,0,0,1-.37.89,13.94,13.94,0,0,1-1.46,1.6c-2.81,2.72-5.85,5.2-8.56,8-.57.59-1.21,1.11-1.81,1.67a3.91,3.91,0,0,1-.86.6.91.91,0,0,1-1-.05,4.65,4.65,0,0,1-1.29-1.36,1.28,1.28,0,0,1,0-1.62,6.66,6.66,0,0,1,1-1.22c.48-.41.91-.88,1.41-1.27a1.5,1.5,0,0,0,.6-1.65c-.22-1.26-.4-2.53-.5-3.8,0-.54,0-1.08-.14-1.61-.19-1-.26-2-.4-3a5.77,5.77,0,0,1-.14-1.25,2.11,2.11,0,0,0-.76-2,.6.6,0,0,0-.14-.58c-.94-1-1.87-2-2.8-3.06-.17-.19-.34-.23-.53,0l-.36.33-8.06,7.34c-.62.56-.87.57-1.42,0a13.06,13.06,0,0,1-1.94-2.31c-.49-.86-.49-1.17.22-1.83l5.19-4.75,2.75-2.51c.36-.34.36-.36,0-.73-.53-.59-1.08-1.17-1.61-1.76a.62.62,0,0,0-.61-.25A2.22,2.22,0,0,0,107,87.48a12.16,12.16,0,0,1-1.23-.24c-1.23-.4-2.52-.47-3.77-.78a14,14,0,0,0-1.55-.37,38,38,0,0,1-4.25-.85,1.82,1.82,0,0,0-1.87.48,23.13,23.13,0,0,1-2.57,2.16.85.85,0,0,1-1.3-.1A10.44,10.44,0,0,1,89,85.38a.77.77,0,0,1,.14-.92c.47-.43.83-.95,1.29-1.38q5.19-4.76,10.4-9.48a4.45,4.45,0,0,1,2.43-1.15c.51-.08,1,0,1.54-.06l4.66-.45c1.84-.18,3.67-.36,5.51-.52a30,30,0,0,1,3.14-.16,22.67,22.67,0,0,0,4-.39A3.56,3.56,0,0,0,124,70c11.34-10.24,22.47-20.73,34-30.8.56-.58.59-.74.24-1.42A.29.29,0,0,1,158.24,37.36ZM108.09,75.29c-1.32,0-2.62.23-3.93.26a2.32,2.32,0,0,0-1.62.68l-7.29,6.63c-.09.08-.26.15-.19.32s.17.15.28.17l.35.07q5.88,1.1,11.71,2.36a.91.91,0,0,0,1-.23c.34-.33.7-.63,1-1l10.87-9.9c.12-.1.33-.18.26-.37s-.32-.13-.49-.13H120l-8.83.79a26.19,26.19,0,0,0-3.06.3Zm23.17,14.57c-.14.11-.3.22-.44.34l-9,8.23a3.59,3.59,0,0,0-.32.36l-.5.39a1,1,0,0,0-.42,1.08c.12,1,.21,2,.33,3,.33,3,.68,6,1,9,0,.2,0,.43.21.59a2.13,2.13,0,0,0,.6-.56,22.91,22.91,0,0,0,1.72-1.55c1.71-1.56,3.41-3.14,5.12-4.71a2.41,2.41,0,0,0,.87-1.44c.07-.46.15-.92.23-1.38q1.28-7.12,2.56-14.25a1.43,1.43,0,0,0,0-.93Zm-2.74-12.43.1.09a21.23,21.23,0,0,1,1.52,1.62c.87,1,.87,1,0,2a3.92,3.92,0,0,0-1,.87c-.15.11-.3.22-.44.34L116.45,93.59c-.37.33-.38.36,0,.72l2.76,3c.36.4.42.69,1,0a4.68,4.68,0,0,1,.56-.53c4.77-4.3,9.53-8.63,14.31-12.92,5.65-5.08,11.24-10.22,16.86-15.34l15.17-13.86c.48-.44.48-.44.1-.86L158,43.73l-.24-.26c-.16-.19-.34-.24-.53,0l-.31.29c-11,10-22,20-33,30.13l-.13.12a1.8,1.8,0,0,1-.19.2l-9,8.25-4.51,4.12c-.4.37-.4.39,0,.78q1.45,1.59,2.91,3.15c.32.35.33.34.77,0,0,0,.06,0,.06,0a.37.37,0,0,0,0-.11l.72-.67a8.86,8.86,0,0,0,2.07-1.89l.64-.58c.18,0,.28-.14.4-.25L120,84.85c.11-.11.26-.2.28-.38,2.35-2.13,4.69-4.27,7-6.4a5.72,5.72,0,0,1,.61-.46.08.08,0,0,0,.09-.06A.52.52,0,0,1,128.52,77.43Zm40.17-24.71a1.59,1.59,0,0,0,.39-.6c.37-.76.74-1.52,1.08-2.29a49.53,49.53,0,0,0,3.16-10.1c0-.21.09-.41.12-.62.05-.41,0-.47-.4-.42l-.83.13a51.35,51.35,0,0,0-12.39,3c-.83.32-.85.35-.25,1l8.76,9.6A.76.76,0,0,0,168.69,52.72Zm-51.76,38h0L128,80.59a3,3,0,0,0,.37-.34.29.29,0,0,0,0-.43.25.25,0,0,0-.38,0l-.31.28L106.28,99.61c-.33.3-.65.61-1,.9s-.29.37-.08.59.36,0,.51-.13Z"/><path class="cls-5" d="M89.12,194.05a13.24,13.24,0,0,0-.23,2.08c-.21,1.58-.37,3.17-.57,4.75-.06.53-.12.57-.59.56s-.66-.11-.6-.68c.34-2.91.67-5.81,1-8.72.06-.52.13-.56.68-.49h.07c1,.05,1-.09,1.34,1.2.45,1.75.92,3.49,1.36,5.24.17.65.29,1.31.42,2,.2,0,.24-.08.29-.18,1.06-2.08,2.12-4.17,3.19-6.25l.07-.12c.52-1.13.31-1,1.64-.91.46,0,.56.16.51.64q-.31,2.79-.65,5.58c-.11.95-.21,1.91-.32,2.86a1.93,1.93,0,0,1-.06.42c-.12.44-.25.51-.78.4s-.46-.09-.4-.62c.24-2.05.49-4.09.73-6.14,0-.28.05-.55.07-.83.19-.19.15-.38,0-.62-.15.15-.24.27-.22.44l-1.91,3.72c-.52,1-1,2-1.58,3-.12.23-.23.48-.51.55a.66.66,0,0,1-.82-.55c-.47-1.78-.94-3.57-1.37-5.36-.14-.59-.4-1.14-.52-1.73.18-.34,0-.62-.18-1C89.16,193.61,89,193.81,89.12,194.05Z"/><path class="cls-5" d="M116.85,14.08a1.54,1.54,0,0,1-1.77-1c-.41-1-1-2-1.4-3a.92.92,0,0,0-.89-.64c-.63,0-1.25-.14-1.88-.21s-.57,0-.63.47c-.12,1-.23,2-.34,3,0,.22,0,.56-.28.57a1.63,1.63,0,0,1-1-.21c-.19-.14-.08-.39-.05-.6.18-1.53.37-3.06.55-4.6.14-1.3.27-2.61.4-3.91.06-.61.13-.69.74-.62,1.39.15,2.79.31,4.18.49a4.05,4.05,0,0,1,2,.74,2.44,2.44,0,0,1,1,2.48,2.47,2.47,0,0,1-1.68,2.22l-.27.07c-.72.18-.77.11-.36.92l1.54,3A1.23,1.23,0,0,1,116.85,14.08Zm-1.1-8.48a2,2,0,0,0-1.17-.6c-1.09-.17-2.18-.31-3.27-.47-.28,0-.45,0-.48.35-.11,1-.23,2-.35,2.94,0,.26.07.38.35.39.94,0,1.87.19,2.8.3A4.19,4.19,0,0,0,115,8.4,1.88,1.88,0,0,0,115.75,5.6Z"/><path class="cls-5" d="M7.23,130.14c-.5-1-.46-1.33.24-2s1.5-1.55,2.28-2.3a1.05,1.05,0,0,0,.32-1.19,15.19,15.19,0,0,1-.46-1.91c-.06-.36-.21-.41-.52-.33l-2.85.74c-.25.07-.52.18-.72,0a1.08,1.08,0,0,1-.22-.93c0-.27.32-.3.55-.36L9.34,121l4.78-1.14c.74-.17.74-.16.9.53.31,1.32.64,2.64.94,4a4.14,4.14,0,0,1,.1,1.53,2.52,2.52,0,0,1-1.79,2.29,2.67,2.67,0,0,1-3-.67,4.6,4.6,0,0,1-.45-.54c-.18-.27-.33-.29-.55,0-.7.78-1.42,1.55-2.13,2.34A5.83,5.83,0,0,1,7.23,130.14Zm4.56-3.8a1.84,1.84,0,0,0,2.2.48,1.6,1.6,0,0,0,.94-1.78,27.92,27.92,0,0,0-.74-3.5c0-.19-.15-.35-.39-.29-1,.24-2,.47-2.93.72-.27.07-.36.26-.26.54.32.93.49,1.9.74,2.85A2.41,2.41,0,0,0,11.79,126.34Z"/><path class="cls-5" d="M185.74,63.8c1-.53,1.86-1,2.74-1.47,1.31-.68,2.63-1.35,3.94-2,.55-.27.7-.21.92.31s.12.5-.29.72l-3.37,1.74-4.38,2.24c-.59.3-.63.27-1-.32a1.53,1.53,0,0,1,.14-1.7c1.33-2.21,2.63-4.43,4-6.64a3.48,3.48,0,0,0,.38-.85c-.11,0-.19,0-.24,0-2.09,1.27-4.31,2.27-6.45,3.43-.44.23-.62.17-.86-.25s-.18-.55.17-.76.91-.48,1.37-.72l6.51-3.32c.55-.29.61-.25.89.31a1.45,1.45,0,0,1-.07,1.57c-1.3,2.11-2.55,4.25-3.82,6.39A4.35,4.35,0,0,0,185.74,63.8Z"/><path class="cls-5" d="M12.92,110.49a5.61,5.61,0,0,1,.57,6.25,3.57,3.57,0,0,1-1.3,1.26,6.25,6.25,0,0,1-5.61.42,3.75,3.75,0,0,1-2-1.83,5.69,5.69,0,0,1-.38-4.43,4.24,4.24,0,0,1,3.09-2.81,6.77,6.77,0,0,1,3.13-.22A4,4,0,0,1,12.92,110.49Zm-.88,6a3.71,3.71,0,0,0,.4-4.64,3,3,0,0,0-1.92-1.31,5.47,5.47,0,0,0-3.43.36,3.1,3.1,0,0,0-2,3.43,3.19,3.19,0,0,0,3.24,3.21,5.72,5.72,0,0,0,2.93-.54A3.82,3.82,0,0,0,12,116.47Z"/><path class="cls-5" d="M126.9,14.57a3.93,3.93,0,0,1-2.15,1,5.64,5.64,0,0,1-4.31-1.09,4,4,0,0,1-1.63-3.21,7,7,0,0,1,1-3.89,4,4,0,0,1,3.51-2,5.9,5.9,0,0,1,3.41.89,3.82,3.82,0,0,1,1.82,2.48A6.16,6.16,0,0,1,126.9,14.57Zm-.28-6.83A3.84,3.84,0,0,0,124,6.53a3,3,0,0,0-3.11,1.7,5.82,5.82,0,0,0-.64,3.33,2.75,2.75,0,0,0,.21.89,3.57,3.57,0,0,0,3.53,2.05,2.91,2.91,0,0,0,2.45-1.29,5.63,5.63,0,0,0,1-3.74A2.72,2.72,0,0,0,126.62,7.74Z"/><path class="cls-5" d="M21.08,139.49a6.08,6.08,0,0,1,1.49,3,4,4,0,0,1-1,3.53,6.11,6.11,0,0,1-4.22,2.1,4.22,4.22,0,0,1-3.78-1.61,5.83,5.83,0,0,1-1.34-3.34,4,4,0,0,1,1.15-3.14,6.48,6.48,0,0,1,4.15-2A3.89,3.89,0,0,1,21.08,139.49Zm-.9,6.12a3.14,3.14,0,0,0,1.12-3.54c-.63-2-2.15-3.2-4.51-2.47a6.68,6.68,0,0,0-1.65.76,3.38,3.38,0,0,0-1.42,4.22,3.27,3.27,0,0,0,3,2.3A5.68,5.68,0,0,0,20.18,145.61Z"/><path class="cls-5" d="M143.67,17.52a.53.53,0,0,1-.59,0c-.48-.19-1-.39-1.43-.6-1-.44-2-.88-2.94-1.33-.29-.13-.48-.12-.62.2-.32.77-.67,1.54-1,2.33-.19.46-.15.52.34.72l4.39,1.88c.17.08.35.14.51.23a.53.53,0,0,1,.3.74c-.14.37-.34.47-.71.31-1-.41-1.93-.84-2.9-1.26l-3.35-1.44c-.48-.2-.49-.22-.27-.73q1.74-4,3.5-8c.26-.58.29-.58.89-.32l5.41,2.35c.15.07.3.12.45.2s.44.33.26.68-.3.5-.7.35c-.76-.29-1.51-.62-2.26-1l-2.49-1.13c-.39-.17-.5-.16-.67.21-.32.67-.63,1.36-.91,2.05-.18.42-.14.48.31.67l3.93,1.7a4.68,4.68,0,0,1,.45.2A.57.57,0,0,1,143.67,17.52Z"/><path class="cls-5" d="M69.36,195.4a4.47,4.47,0,0,0,.46.19l4.72,1.6a2.26,2.26,0,0,1,.39.15c.23.13.44.31.3.62s-.28.5-.63.41a5.16,5.16,0,0,1-.67-.2c-1.84-.63-3.67-1.28-5.52-1.88-.8-.25-.85-.26-.55-1.12l1.46-4.26c.41-1.22.83-2.44,1.25-3.65.21-.6.28-.66.85-.47q3,1,5.92,2c.56.19.68.64.29,1-.23.22-.48.13-.72,0l-2.93-1c-.6-.2-1.19-.42-1.78-.65-.23-.09-.43-.1-.54.15a16.86,16.86,0,0,0-.88,2.44c-.1.33.18.37.4.44l4.13,1.39a3.21,3.21,0,0,1,.33.12.57.57,0,0,1,.37.73c-.1.33-.33.44-.72.31-1.4-.46-2.79-.95-4.19-1.42l-.39-.15a.33.33,0,0,0-.49.24c-.29.84-.6,1.67-.9,2.51A.46.46,0,0,0,69.36,195.4Z"/><path class="cls-5" d="M58,181.39c-.17.21-.36.19-.6,0-.8-.52-1.63-1-2.43-1.54-.64-.43-1.33-.79-1.94-1.27-.33-.26-.43-.23-.68.13-.41.6-.8,1.21-1.19,1.83-.26.41-.24.5.2.77,1.18.76,2.38,1.5,3.57,2.24.14.09.28.17.41.27.3.25.37.46.18.72s-.39.48-.82.2l-3.83-2.48c-.52-.35-.53-.36-.87.15s-.85,1.29-1.26,1.94c-.28.42-.26.51.17.78l4.21,2.67.3.17a.61.61,0,0,1-.07,1.11c-.24.11-.39-.05-.57-.16l-5-3.18c-.16-.11-.32-.2-.48-.3-.57-.35-.59-.42-.24-1q1.51-2.37,3-4.74c.56-.86,1.11-1.74,1.66-2.6.26-.4.32-.41.72-.16l5.35,3.38C58.39,180.7,58.43,181,58,181.39Z"/><path class="cls-5" d="M28.22,152a7.72,7.72,0,0,1,1.35,2.21,2.68,2.68,0,0,1-.14,2.49c-.11.19-.22.45-.53.35s-.7-.63-.62-.91a2.29,2.29,0,0,1,.16-.31,1.93,1.93,0,0,0,0-1.51,5.07,5.07,0,0,0-1.31-1.89A1.56,1.56,0,0,0,26,152a1.31,1.31,0,0,0-1.28,1.47,3.61,3.61,0,0,0,.24,1c.28.77.55,1.54.82,2.32a5.75,5.75,0,0,1,.27,1.23,2.54,2.54,0,0,1-3.25,2.61A3.6,3.6,0,0,1,21.6,160a7.64,7.64,0,0,1-2.05-2.9,3.53,3.53,0,0,1-.25-1.79,2.7,2.7,0,0,1,.3-1c.23-.43.43-.56.67-.44.46.22.71.64.52,1-.7,1.31-.06,2.35.64,3.37a3.11,3.11,0,0,0,1.05,1,1.54,1.54,0,0,0,1.72,0,1.36,1.36,0,0,0,.56-1.54,17.13,17.13,0,0,0-.79-2.32,7.71,7.71,0,0,1-.48-1.83A2.38,2.38,0,0,1,26,150.76a2.62,2.62,0,0,1,1.53.64C27.79,151.58,28,151.81,28.22,152Z"/><path class="cls-5" d="M193.55,107.79a4.07,4.07,0,0,1,1.3-.69c.11,0,.28,0,.3.09a4.54,4.54,0,0,1,.14,1c0,.27-.27.3-.45.38a2,2,0,0,0-1.12,1.11,4.93,4.93,0,0,0-.26,3.17,1.42,1.42,0,0,0,1.44,1.2,1.24,1.24,0,0,0,1.2-.58,6.69,6.69,0,0,0,.72-1.67,14.55,14.55,0,0,1,1-2.6A2.24,2.24,0,0,1,200,108a2.27,2.27,0,0,1,2,1.28,1.15,1.15,0,0,1,.12.25,6.05,6.05,0,0,1-.43,4.89,2.86,2.86,0,0,1-1.34,1.09c-.31.16-.47.06-.58-.28a.82.82,0,0,1,.55-1.19,1.16,1.16,0,0,0,.62-.63,4.18,4.18,0,0,0,.3-3.14,1.19,1.19,0,0,0-1.1-.93,1.25,1.25,0,0,0-1.31.62,5.49,5.49,0,0,0-.55,1.21c-.23.66-.45,1.33-.69,2a7.24,7.24,0,0,1-.49,1,2.25,2.25,0,0,1-2.34,1.21,2.36,2.36,0,0,1-2.2-1.59,6.41,6.41,0,0,1,.55-5.48A3.65,3.65,0,0,1,193.55,107.79Z"/><path class="cls-5" d="M193.64,104.42a4.82,4.82,0,0,1-1-3.77c0-.18.07-.36.11-.55a3.28,3.28,0,0,1,2.9-2.66,7,7,0,0,1,.91-.09l5.48-.12c.55,0,.55,0,.57.53,0,.69-.24.86-.86.86-1.66,0-3.33,0-5,.06a5.84,5.84,0,0,0-1.25.14,2.12,2.12,0,0,0-1.7,1.68,3.94,3.94,0,0,0-.1.9,2.47,2.47,0,0,0,2.66,2.77c1.88,0,3.75,0,5.62-.09.68,0,.75,0,.74.74s0,.61-.64.62c-1.84,0-3.69.07-5.54.09a3.93,3.93,0,0,1-2.35-.62A4.65,4.65,0,0,1,193.64,104.42Z"/><path class="cls-5" d="M82.06,190.46a.7.7,0,0,1,.77-.16c.9.21.9.19,1,1.1q.7,4.57,1.43,9.16c0,.37,0,.46-.39.44-.69,0-.91-.24-1-.91s-.17-1.21-.23-1.81a.7.7,0,0,0-.63-.71c-1.14-.25-2.28-.52-3.41-.81a.59.59,0,0,0-.72.27c-.37.54-.73,1.08-1.11,1.62s-.64.64-1.31.39c-.29-.1-.37-.24-.18-.51l.93-1.32c1.43-2,2.85-4.05,4.28-6.08Zm1.31,6.13c-.12-1.74-.41-3.33-.62-5-.32.19-.39.45-.54.66-.72,1-1.44,2.07-2.15,3.11-.2.29-.17.4.18.48C81.24,196.05,82.24,196.26,83.37,196.59Z"/><path class="cls-5" d="M106.24,8.42a3.31,3.31,0,0,1-1.54.72,16.18,16.18,0,0,1-2.87.09c-.19,0-.38,0-.57,0-.41,0-.46.08-.46.52,0,.92,0,1.83,0,2.74,0,.22.09.54-.2.62a1.39,1.39,0,0,1-1-.07c-.24-.13-.17-.41-.17-.64l0-3.66c0-1.62,0-3.23,0-4.85,0-.68,0-.7.71-.7,1.29,0,2.58-.09,3.86,0a4,4,0,0,1,1.81.53A2.31,2.31,0,0,1,107,5.19,3.22,3.22,0,0,1,106.24,8.42Zm-1-3.71a2.33,2.33,0,0,0-1.3-.4c-.86,0-1.73,0-2.59-.08-.37,0-.5.18-.51.52,0,1,0,2,0,2.94,0,.46,0,.48.49.48h1.89A11.57,11.57,0,0,0,104.51,8C105.89,7.82,106.15,5.67,105.22,4.71Z"/><path class="cls-5" d="M36.18,176.77c-.38-.3-.38-.68-.14-1.14s.49-1.17.78-1.73a.54.54,0,0,0-.1-.69L34,170.53a.52.52,0,0,0-.69-.08l-1.84.88a1.06,1.06,0,0,1-1.38-.63c-.07-.24.13-.28.27-.34.69-.29,1.39-.57,2.08-.87l5.93-2.56.65-.26c.82-.3,1.08-.21,1.59.51.21.31.09.57,0,.86-.57,1.34-1.13,2.68-1.69,4l-1.84,4.48s0,.09,0,.13C36.74,177.28,36.68,177.3,36.18,176.77Zm1.22-4.35a42.66,42.66,0,0,0,1.92-4.65c-1.45.79-3,1.27-4.52,2.09Z"/><path class="cls-5" d="M8.12,106.7a3.12,3.12,0,0,1-.76-1.83,25,25,0,0,1-.07-2.74c0-.11,0-.23,0-.35,0-.3-.13-.46-.47-.45-.91,0-1.83.06-2.74.1-.25,0-.54.1-.65-.22a1.23,1.23,0,0,1,0-1c.12-.22.37-.16.58-.16,1.47,0,3,0,4.42,0s2.85,0,4.28-.06c.5,0,.55,0,.56.46,0,1.24,0,2.48,0,3.72a4.76,4.76,0,0,1-.12,1.19,2.64,2.64,0,0,1-1.93,2.19A3,3,0,0,1,8.12,106.7Zm3.57-.85a2,2,0,0,0,.54-1.33c0-.91,0-1.82,0-2.74,0-.35-.17-.48-.52-.48-1,0-2,0-2.94,0-.39,0-.47.09-.47.52,0,.8,0,1.59.05,2.39a3.28,3.28,0,0,0,.14.82A2,2,0,0,0,11.69,105.85Z"/><path class="cls-5" d="M28.29,160.26l3-2.53c.43-.36.43-.38.77,0,.9,1,1.8,2,2.62,3.12a5.27,5.27,0,0,1,.37.59,2.75,2.75,0,0,1-.74,3.75,2.87,2.87,0,0,1-3.84-.12,27.65,27.65,0,0,1-2.1-2.36c-.4-.46-.4-.48-.87-.09l-2,1.69c-.47.41-.52.4-.9,0s-.45-.61,0-1ZM30.05,163l0,0c.3.32.59.66.9,1a1.73,1.73,0,0,0,2.52.14,1.68,1.68,0,0,0,.44-2.51,29,29,0,0,0-1.83-2.31.33.33,0,0,0-.54-.06l-2.41,2a.37.37,0,0,0,0,.6Z"/><path class="cls-5" d="M153.72,17.18a4,4,0,0,1,1.05,2.37c0,.27.06.62-.29.7-.58.13-1-.13-1-.61a3.44,3.44,0,0,0-3.12-3,2.69,2.69,0,0,0-2.12.55,5.08,5.08,0,0,0-2.08,4,3.36,3.36,0,0,0,4.67,3.05l.19-.09a.76.76,0,0,1,1.15.48c.09.23,0,.35-.2.46a4.2,4.2,0,0,1-1.57.58,5.28,5.28,0,0,1-5.17-2.69,4.22,4.22,0,0,1-.14-3.54,6.34,6.34,0,0,1,2.5-3.39,4.11,4.11,0,0,1,3.31-.47A6.3,6.3,0,0,1,153.72,17.18Z"/><path class="cls-5" d="M199.56,79.52a5.57,5.57,0,0,1,.73,5.15,3.05,3.05,0,0,1-.94,1.3c-.28.23-.41.21-.63-.08-.36-.48-.38-.77,0-1.18a3.07,3.07,0,0,0,.51-3.35,2.94,2.94,0,0,0-2.57-2.11,4.94,4.94,0,0,0-4.45,1.57,3.4,3.4,0,0,0,1.47,5.23c.58.19.67.38.48.92s-.27.5-.74.33a4.38,4.38,0,0,1-2.36-2A5.33,5.33,0,0,1,190.4,82a3.83,3.83,0,0,1,1.33-2.63A6.33,6.33,0,0,1,197.4,78,4.06,4.06,0,0,1,199.56,79.52Z"/><path class="cls-5" d="M41.42,173.58a4.45,4.45,0,0,1,5.82-.69,4.87,4.87,0,0,1,2.39,3.16,3.18,3.18,0,0,1,0,1.19c-.09.46-.24.53-.68.37-.66-.25-.67-.25-.62-1a2.51,2.51,0,0,0-.12-.9c-.45-1.6-2.91-3.32-5-1.89a5,5,0,0,0-2.33,3.6A3.37,3.37,0,0,0,45.05,181l.34-.09c.52-.13.7,0,.84.45s0,.58-.5.75a4.46,4.46,0,0,1-3-.11,5.56,5.56,0,0,1-2.19-1.61,4.23,4.23,0,0,1-.49-5A6.34,6.34,0,0,1,41.42,173.58Z"/><path class="cls-5" d="M194.21,62.82a1,1,0,0,1,.14.13c.54,1,.53,1-.31,1.8-1.88,1.73-3.75,3.47-5.68,5.15-.09.07-.21.12-.2.24s.14.14.23.14c2.62-.16,5.25,0,7.87,0h.56a.5.5,0,0,1,.51.31c.08.29.41.55.26.84s-.55.17-.83.16c-3,0-6-.1-9.07-.16-.38,0-.75,0-.89-.48s-.24-.89.22-1.32c2.11-2,4.19-4,6.29-5.94Z"/><path class="cls-5" d="M163.51,23.68c.26.21.14.4,0,.6-.3.39-.44.46-.74.25-.6-.41-1.18-.85-1.76-1.27l-.28-.21c-.36-.24-.41-.23-.67.14l-4.17,5.91c-.11.15-.21.31-.33.45-.34.39-.36.39-.81.1s-.55-.47-.18-1l4.3-6.08c.4-.55.4-.55-.18-1l-1.77-1.26a.5.5,0,0,1-.27-.53c.09-.49.44-.67.86-.4.59.38,1.15.81,1.73,1.21l4,2.8Z"/><path class="cls-5" d="M19.47,136.22a.56.56,0,0,1-.93-.13c-.23-.51-.39-1.05-.58-1.58l-.37-1c-.08-.22-.22-.27-.44-.18-2.35.93-4.77,1.68-7.14,2.54l-.13.05c-.24.06-.5.31-.71,0a1.27,1.27,0,0,1-.3-.91c0-.25.24-.31.45-.38l3-1,4.38-1.5c.32-.11.38-.28.26-.59-.28-.7-.52-1.4-.78-2.11a.69.69,0,0,1,0-.67.68.68,0,0,1,.66-.32c.25,0,.31.25.38.45q1,2.88,2,5.77c.12.35.23.71.34,1.06A.47.47,0,0,1,19.47,136.22Z"/><path class="cls-5" d="M62.54,193.71s-.11.08-.17.08a1.38,1.38,0,0,1-.85-.44c-.18-.17,0-.4.07-.58q1.33-2.94,2.69-5.87c.17-.39.35-.77.51-1.16s.18-.47-.28-.67-1.08-.45-1.61-.69a4.6,4.6,0,0,1-.63-.31.73.73,0,0,1,0-1,.39.39,0,0,1,.4,0l.65.27,5.56,2.53.38.18c.55.28.59.48.22,1-.2.26-.4.23-.67.1-.67-.33-1.35-.64-2-1-.48-.23-.5-.24-.73.24-.58,1.22-1.13,2.46-1.7,3.69-.48,1.05-1,2.09-1.43,3.13A1.62,1.62,0,0,1,62.54,193.71Z"/><path class="cls-5" d="M192.09,92.91A2.39,2.39,0,0,1,192,92c0-.28.34-.28.57-.31,2.53-.31,5.06-.62,7.6-.9.59-.07.53-.15.47-.59-.11-.74-.2-1.49-.29-2.23,0-.29,0-.57.31-.71s.74,0,.8.53c.19,1.49.36,3,.54,4.47.1.86.22,1.71.31,2.57,0,.48,0,.51-.47.57s-.56,0-.62-.42c-.11-.79-.19-1.58-.29-2.37-.06-.57-.07-.58-.64-.51l-7.52,1C192.56,93.06,192.32,93.14,192.09,92.91Z"/><path class="cls-5" d="M133.29,17.28a2.82,2.82,0,0,1-.37.25,3.18,3.18,0,0,1-3.09-.25,2.73,2.73,0,0,1-1.3-2.57c0-.29.14-.43.43-.41l.5,0c.29,0,.42.16.43.44a4,4,0,0,0,0,.49,1.56,1.56,0,0,0,1.29,1.39,1.47,1.47,0,0,0,1.58-.78,7.39,7.39,0,0,0,.58-1.43c.49-1.44,1-2.88,1.45-4.33.15-.44.12-.49-.35-.63-.26-.09-.54-.16-.8-.26-.43-.17-.53-.35-.42-.66a.59.59,0,0,1,.83-.39c.36.1.71.23,1.07.35l.6.2c.85.27.85.27.57,1.1-.62,1.84-1.23,3.68-1.86,5.52A4.16,4.16,0,0,1,133.29,17.28Z"/><path class="cls-5" d="M179.5,55.31l2-1.25,5.58-3.39c.19-.11.39-.34.62-.15a1.51,1.51,0,0,1,.5.9c0,.2-.21.27-.37.37l-4.8,2.92c-.92.56-1.82,1.14-2.74,1.69-.38.23-.53.21-.72-.07C179.27,55.84,179.25,55.52,179.5,55.31Z"/><path class="cls-5" d="M198.23,74.64l-.56.18-7.51,2.3-.4.13c-.24.09-.49.31-.72.12a1.27,1.27,0,0,1-.36-1c0-.3.27-.34.49-.41l2.62-.79c1.92-.59,3.85-1.17,5.77-1.77.24-.07.46-.14.6.13a1.23,1.23,0,0,1,.19.93S198.29,74.58,198.23,74.64Z"/><path class="cls-6" d="M89.12,194.05c-.1-.24,0-.44.11-.76.22.39.36.67.18,1Z"/><path class="cls-6" d="M96.12,194.63c0-.17.07-.29.22-.44.12.24.16.43,0,.62Z"/><path class="cls-1" d="M31.36,149.88c.27,0,.2.19.22.33A.35.35,0,0,1,31.36,149.88Z"/><path class="cls-1" d="M26.91,142.32c.24,0,.23.1.14.26A.26.26,0,0,1,26.91,142.32Z"/><path class="cls-7" d="M91.33,173.67A7.63,7.63,0,0,1,88,175.5a9.07,9.07,0,0,1-1.16.2l-.77,0A6.26,6.26,0,0,1,82,174.23a.67.67,0,0,0-.78-.07c-.43.19-.85.41-1.28.57A6.66,6.66,0,0,1,71,170.2c-.14-.58-.2-.61-.77-.36a7.87,7.87,0,0,1-10.84-5.34,1.27,1.27,0,0,0-.58-.83,7.68,7.68,0,0,1-2.52-2.79c-.44-.77-.87-1.56-1.36-2.3a7.06,7.06,0,0,1-1.25-3.75c0-.58-.14-.66-.73-.71a13.17,13.17,0,0,1-2.49-.39,10.78,10.78,0,0,1-6.11-4.36,11.11,11.11,0,0,1-2.21-5.77c0-.39,0-.79,0-1.19a.6.6,0,0,0-.52-.7,2.73,2.73,0,0,1-.91-.51,8.21,8.21,0,0,1-2.17-2.38,7.7,7.7,0,0,1-1.36-4.51,8.55,8.55,0,0,1,1.24-4.48c.24-.37.2-.45-.23-.57a5,5,0,0,1-.91-.35,7.25,7.25,0,0,1-2.73-2.37,7.17,7.17,0,0,1-1.26-3.08,7.3,7.3,0,0,1,1.41-5.64.67.67,0,0,0,.08-.78c-.11-.21-.22-.41-.32-.63a8.44,8.44,0,0,1-.9-3.65,8.14,8.14,0,0,1,1.77-5.09,11.14,11.14,0,0,1,1.52-1.55,3.9,3.9,0,0,0,1-1.31,9.21,9.21,0,0,1,1-1.61c.41-.53.41-.53,0-1A10.76,10.76,0,0,1,36.15,97a10.07,10.07,0,0,1,1.56-7.59c.42-.69,1.09-1.16,1.51-1.84a13.12,13.12,0,0,1,3.27-2,11.58,11.58,0,0,1,3.28-.7,8.87,8.87,0,0,1,5.43,1.31c.61.38,1.19.83,1.77,1.25a4.92,4.92,0,0,1,1.33,1.44,19.59,19.59,0,0,1,1.38,2.6c.21.56.34.6.88.28a3.1,3.1,0,0,1,1.27-.53c.26.23.4,0,.55-.14l0,0a.27.27,0,0,0,.27-.06l0,0a.2.2,0,0,0,.23,0h0c.14.12.23,0,.31-.07h0c.2.13.3,0,.43-.13a.15.15,0,0,1,.18,0c.21.25.36.12.51-.07h0a1.57,1.57,0,0,0,1.72-.23.11.11,0,0,1,.15,0c.19.26.36.16.53,0h0a.2.2,0,0,0,.22,0h0a.17.17,0,0,0,.21,0h0a.15.15,0,0,0,.21,0h0a.15.15,0,0,0,.21,0h0a.17.17,0,0,0,.21,0h0a.15.15,0,0,0,.21,0h0a.15.15,0,0,0,.21,0h0a.14.14,0,0,0,.21,0h0a.14.14,0,0,0,.21,0h0a.16.16,0,0,0,.21,0h0a.18.18,0,0,0,.21,0h0a.18.18,0,0,0,.22,0,.14.14,0,0,1,.17,0c.22.18.42.38.71.12h0c.45.49.48.49,1,.22h0a3.57,3.57,0,0,0,1.87.77s.06-.06.09-.09v0c.16.32.49.42.76.59a13.18,13.18,0,0,1,2.42,1.37,10.34,10.34,0,0,0,1,.89A15.48,15.48,0,0,1,75.58,97a5.87,5.87,0,0,0,.75.9l0,0v0c-.08.22-.15.44.22.4l.13.24a.27.27,0,0,0,.07.24l0,0a.33.33,0,0,0,.13.38h0v0a.25.25,0,0,0,.06.26l0,0a.46.46,0,0,0,.33.64l.08.14a1.56,1.56,0,0,0,.34,1.31.49.49,0,0,1,.09.39c-.13.16-.08.29.06.41l0,0v0a.37.37,0,0,0-.15.3c0,.55,0,1-.69,1.26-.18,0-.15.25,0,.39h0a1.91,1.91,0,0,0-.52.54c-.14.21-.28,0-.41,0l0,0a.27.27,0,0,0-.07-.27l0,0a.88.88,0,0,0-.55-1.15,7,7,0,0,0-1.63-.42c-.63,0-1.26,0-1.89-.11a2.17,2.17,0,0,0-1,.06,9.6,9.6,0,0,1-2.19.4,14.86,14.86,0,0,0-2.2.37c-.48.16-1,.28-1.45.46a7.08,7.08,0,0,0-1.4.49c-.21.14-.51.18-.72.38a.21.21,0,0,1-.26.05c-.53-.28-.88.06-1.23.37a1.69,1.69,0,0,1-.74.52,8.46,8.46,0,0,0-2.34.9c-.4.23-.67.6-1.05.8a13.68,13.68,0,0,0-2.5,1.91,7.1,7.1,0,0,0-1.78,2.22c-.11.2-.2.43-.06.59.29.36.44.83.83,1.1a2.4,2.4,0,0,1,.83.93,1.7,1.7,0,0,0,.51.56c.48.37.92.78,1.38,1.17s.42.67.69,1a2.35,2.35,0,0,1,.72,1.53,1.61,1.61,0,0,0,.31.85,2.77,2.77,0,0,1,.3,2,1.78,1.78,0,0,1-.58,1.09,8.12,8.12,0,0,1-1.46.95,1.87,1.87,0,0,0-1.06,1.31,1.35,1.35,0,0,1-.51.87c-.27.23-.52.47-.78.71a.8.8,0,0,1-.62.28c-.11,0-.27,0-.33.06-.54.54-1.31.71-1.85,1.25s-1.41,1.31-2.13,1.95-1.34,1.4-2.13,2a7.92,7.92,0,0,0-2,2c-.1.15-.3.22-.44.34a2.85,2.85,0,0,0-1.11,1.47.7.7,0,0,1-.4.58c-.16.07-.35.23-.2.45s.28.5.63.48a.48.48,0,0,1,.28.28c-.08.25.09.39.24.54a13.94,13.94,0,0,0,1.21,1.34c.21.17.47.37.51.65a1.7,1.7,0,0,0,.57.94c.31.35.63.69,1,1,.12.14.28.26.29.47a1.78,1.78,0,0,0,.65,1.2c.42.44.83.89,1.24,1.35a2,2,0,0,0,.82.63.79.79,0,0,1,.54.6.94.94,0,0,0,.59.73,1.82,1.82,0,0,1,.41.27,11.78,11.78,0,0,1,2.1,1.58c.71.9,1.52,1.72,2.31,2.56a11.82,11.82,0,0,1,2,2.73A4,4,0,0,0,59.88,156a2.08,2.08,0,0,1,.61.67c.15.21.23.46.37.68a2.87,2.87,0,0,0,1.23,1.21c.49.21.79-.32,1.21-.4l.07,0a7.41,7.41,0,0,0,2-1.31c.26-.27.43-.6.7-.86a20.24,20.24,0,0,1,2.2-1.74,7.64,7.64,0,0,0,1.85-1.87c.35-.55.59-1.3,1.48-1.29.14,0,.29-.22.44-.34a3.07,3.07,0,0,1,.88-.67.8.8,0,0,0,.34-.34c.31-.43.75-.78.83-1.36,0-.13.2-.25.32-.36l4.2-3.84a1.58,1.58,0,0,1,.65-.4,1.19,1.19,0,0,0,.87-.84,1.18,1.18,0,0,1,.37-.66,5.21,5.21,0,0,0,1.44-2.12,1.71,1.71,0,0,0,.29-1.13.83.83,0,0,1,.6-.92,2,2,0,0,1,1.58,0,2.94,2.94,0,0,0,1,.43.47.47,0,0,1,.37.54,1,1,0,0,0,.57,1c.73.36,1,1.05,1.45,1.64a.62.62,0,0,1,.14.31,8.35,8.35,0,0,0,.71,2.55,2.34,2.34,0,0,1,.22,1.56,2.82,2.82,0,0,0-.16,1.31c.21,1.48-.27,2.91-.28,4.38,0,.3,0,.46.33.46A3.52,3.52,0,0,0,91.42,151q.39-.45.81-.87a17.77,17.77,0,0,0,2.39-2.36,2.06,2.06,0,0,1,.79-.76,1.27,1.27,0,0,0,.61-.66,2.78,2.78,0,0,1,.82-1.2.88.88,0,0,0,.24-.34,8.35,8.35,0,0,1,1.1-2,26.55,26.55,0,0,0,2.42-6,34.83,34.83,0,0,0,.58-3.66,9.21,9.21,0,0,0,.07-1.82c-.11-1,.07-2.05-.11-3.07a.25.25,0,0,1,.15-.29.26.26,0,0,1,.31.11,7.75,7.75,0,0,1,1.63,2.09c.1.28.26.56.64.56l.12.23v.24a.17.17,0,0,0,0,.12l.08.18a.17.17,0,0,0,0,.12v0a.32.32,0,0,0,.11.29h0c-.06.07-.15.15-.09.24a4.87,4.87,0,0,0,.61,1.12l0,0c-.33.44-.1.76.22,1.06l0,.06a.18.18,0,0,0,0,.21v0a.57.57,0,0,0,.11.81h0c-.29.34-.13.63.12.89l0,0,0,0a1.13,1.13,0,0,0,.05,1.29h0c-.2.17-.13.34,0,.5h0a.18.18,0,0,0,0,.2.16.16,0,0,1,0,.2.18.18,0,0,0,0,.2.17.17,0,0,1,0,.2.2.2,0,0,0,0,.2.41.41,0,0,1,0,.4A1.33,1.33,0,0,0,105,141h0c-.24.17-.24.37-.07.6a2,2,0,0,0,.84.6,2.76,2.76,0,0,1,1.56,1.33,3.33,3.33,0,0,0,.48.6c.19.23.36.48.55.71.41.49.5,1.17,1,1.58l0,.05a1,1,0,0,0,.34,1.22h0c-.23.29-.11.51.13.7h0a6.4,6.4,0,0,0-.15,2.39s.06.07.09.1h0a.2.2,0,0,0,0,.21.19.19,0,0,1-.06.25c-.21.2-.41.41-.19.73h0a2.06,2.06,0,0,0-.52.89,5,5,0,0,1-1,1.8c-.25.26-.39.58-.65.82a.25.25,0,0,0,0,.37h0a.21.21,0,0,0,0,.24,2.34,2.34,0,0,1,.56.73.27.27,0,0,0,0,.32c.23.39.46.8.7,1.19a18.52,18.52,0,0,1,1.84,4,1.22,1.22,0,0,0,.4.54l0,0c-.27.49,0,.83.3,1.17l0,.05a.25.25,0,0,0,.06.26l0,0c-.21.21-.08.37.09.52h0a1,1,0,0,0,.2,1.25l0,0a1.16,1.16,0,0,0,.14,1.42.13.13,0,0,1,0,.18,1.44,1.44,0,0,0,0,1.5.17.17,0,0,1,0,.21.56.56,0,0,0-.09.88h0a.48.48,0,0,1-.13.34.17.17,0,0,0,0,.1.09.09,0,0,1,0,.12l0,0c-.53.29-.5.77-.42,1.26A4,4,0,0,1,107.7,175c-.51.07-1,.19-1.5.29a2.66,2.66,0,0,0-.47-.11,16.1,16.1,0,0,1-3.84-.8,22.29,22.29,0,0,1-7.11-4c-.35-.29-.69-.61-1.11-1a24.28,24.28,0,0,1-.86,2.32A10.44,10.44,0,0,1,91.33,173.67Z"/><path class="cls-8" d="M39.22,87.6c-.42.68-1.09,1.15-1.51,1.84A10.07,10.07,0,0,0,36.15,97a10.76,10.76,0,0,0,2.73,5.15c.45.49.45.49,0,1a9.21,9.21,0,0,0-1,1.61,3.9,3.9,0,0,1-1,1.31,11.14,11.14,0,0,0-1.52,1.55,8.14,8.14,0,0,0-1.77,5.09,8.44,8.44,0,0,0,.9,3.65c.1.22.21.42.32.63a.67.67,0,0,1-.08.78,7.3,7.3,0,0,0-1.41,5.64,7.17,7.17,0,0,0,1.26,3.08,7.25,7.25,0,0,0,2.73,2.37,5,5,0,0,0,.91.35c.43.12.47.2.23.57a8.55,8.55,0,0,0-1.24,4.48,7.7,7.7,0,0,0,1.36,4.51,8.21,8.21,0,0,0,2.17,2.38,2.73,2.73,0,0,0,.91.51.6.6,0,0,1,.52.7c0,.4,0,.8,0,1.19a11.11,11.11,0,0,0,2.21,5.77,10.78,10.78,0,0,0,6.11,4.36,13.17,13.17,0,0,0,2.49.39c.59,0,.71.13.73.71A7.06,7.06,0,0,0,55,158.58c.49.74.92,1.53,1.36,2.3a7.68,7.68,0,0,0,2.52,2.79,1.27,1.27,0,0,1,.58.83,7.87,7.87,0,0,0,10.84,5.34c.57-.25.63-.22.77.36a6.66,6.66,0,0,0,8.87,4.53c.43-.16.85-.38,1.28-.57a.67.67,0,0,1,.78.07,6.26,6.26,0,0,0,4.09,1.43l.77,0a.21.21,0,0,1,0,.31,8.3,8.3,0,0,1-4.46,2.07,6.38,6.38,0,0,1-4.49-1,1.94,1.94,0,0,0-2.22-.13,6.48,6.48,0,0,1-7.08-.81A6,6,0,0,1,66.39,173c0-.09,0-.18-.08-.27-.2-.62-.3-.66-.9-.43a7.77,7.77,0,0,1-8.61-1.6,7.3,7.3,0,0,1-2-3.26,3.09,3.09,0,0,0-.91-1.45A14.59,14.59,0,0,1,51,162.45c-.31-.55-.63-1.1-1-1.63a7.43,7.43,0,0,1-1.16-3.71c0-.57,0-.56-.63-.61a11.28,11.28,0,0,1-9.68-6.38,9.92,9.92,0,0,1-1.14-4.67,1.3,1.3,0,0,0-.94-1.45,1.49,1.49,0,0,1-.49-.28c-2.05-1.86-3.5-4-3.53-6.92a8.82,8.82,0,0,1,1.16-4.51c.3-.55.29-.56-.33-.73a6.73,6.73,0,0,1-2.76-1.76,7.1,7.1,0,0,1-.86-9.19,1.37,1.37,0,0,0,.08-1.6,8,8,0,0,1,.84-9,10.13,10.13,0,0,1,1.56-1.51,3.32,3.32,0,0,0,.86-1.1,8.53,8.53,0,0,1,1.19-1.9c.3-.36.3-.46,0-.76a10.61,10.61,0,0,1-2.7-4.63,9.3,9.3,0,0,1,.59-6.77c0-.11.08-.22.13-.33a.19.19,0,0,0,.08-.21.44.44,0,0,0,.2-.33l.14-.23a.33.33,0,0,0,.17-.27c.25-.3.51-.6.75-.91a10.15,10.15,0,0,1,2.15-2l.73-.42A7.65,7.65,0,0,1,39.22,87.6Z"/><path class="cls-8" d="M91.33,173.67a10.44,10.44,0,0,0,1.48-1.95,24.28,24.28,0,0,0,.86-2.32c.42.37.76.69,1.11,1a22.29,22.29,0,0,0,7.11,4,16.1,16.1,0,0,0,3.84.8,2.66,2.66,0,0,1,.47.11,4.41,4.41,0,0,1-3.39,2.22,9.07,9.07,0,0,1-3.48-.1,21.91,21.91,0,0,1-7.63-3.26A.65.65,0,0,1,91.33,173.67Z"/><path class="cls-9" d="M111.09,172.37c-.08-.49-.11-1,.42-1.26v0a.07.07,0,0,1,0,.1l0,.47-.07.07C111.29,171.94,111.27,172.2,111.09,172.37Z"/><path class="cls-1" d="M32.67,92.27l-.14.23C32.44,92.34,32.48,92.26,32.67,92.27Z"/><path class="cls-1" d="M32.33,92.83a.19.19,0,0,1-.08.21A.21.21,0,0,1,32.33,92.83Z"/><path class="cls-10" d="M77.75,99.92a46.45,46.45,0,0,0,6.75-.74A70.55,70.55,0,0,0,92.57,97a80,80,0,0,0,13.19-6.18,10.71,10.71,0,0,0,2.9-1.95.62.62,0,0,1,.61.25c.53.59,1.08,1.17,1.61,1.76.33.37.33.39,0,.73l-2.75,2.51-5.19,4.75c-.71.66-.71,1-.22,1.83a13.06,13.06,0,0,0,1.94,2.31c.55.59.8.58,1.42,0l8.06-7.34.36-.33c.19-.19.36-.15.53,0,.93,1,1.86,2,2.8,3.06a.6.6,0,0,1,.14.58,16.82,16.82,0,0,0-2.92,3.49,50.51,50.51,0,0,0-3.39,5.41,61.27,61.27,0,0,0-4.11,9.39c-.82,2.46-1.63,4.94-2.3,7.45a39,39,0,0,0-1.1,4.93,1.34,1.34,0,0,1-.26.71c-.47-.68-.92-1.38-1.42-2s-1.14-1.46-1.72-2.18c-.18-.22-.41-.41-.73-.23a3.54,3.54,0,0,1-.24-1.07A27.89,27.89,0,0,0,91,110.74a30,30,0,0,0-7-4.6.9.9,0,0,0-1.1,0,.11.11,0,0,1-.17,0c-.16-.19.2-.38,0-.58a37.42,37.42,0,0,0-4.31-1.27.62.62,0,0,1-.48-.25,1.43,1.43,0,0,0,.17-1.52v0l0,0a.31.31,0,0,0-.06-.41.49.49,0,0,0-.09-.39,1.86,1.86,0,0,0-.34-1.31l-.08-.14.11-.1Z"/><path class="cls-5" d="M164.91,58.89c0,.25-.19.36-.34.5L160,63.53c-.15.13-.28.33-.53.29,0-.25.19-.36.34-.49,1.51-1.39,3-2.76,4.54-4.14C164.54,59.05,164.66,58.86,164.91,58.89Z"/><path class="cls-5" d="M137,84.21c0,.06.09.16.07.18-.44.46-.63,1.17-1.34,1.35A4.18,4.18,0,0,1,137,84.21Z"/><path class="cls-10" d="M117.23,87.21a33.83,33.83,0,0,1,3-2.74c0,.18-.17.27-.28.38L117.63,87C117.51,87.07,117.41,87.2,117.23,87.21Z"/><path class="cls-10" d="M114.52,89.68a16.81,16.81,0,0,1,2.07-1.89A8.86,8.86,0,0,1,114.52,89.68Z"/><path class="cls-5" d="M159.3,64a1.25,1.25,0,0,1-.93.85A1.31,1.31,0,0,1,159.3,64Z"/><path class="cls-5" d="M167.2,56.81a.64.64,0,0,1-.62.56A.64.64,0,0,1,167.2,56.81Z"/><path class="cls-5" d="M157.74,65.44a.47.47,0,0,1-.52.46A.48.48,0,0,1,157.74,65.44Z"/><path class="cls-5" d="M169.09,54.9c.17.35,0,.45-.33.48C168.74,55.13,169,55,169.09,54.9Z"/><path class="cls-10" d="M127.89,77.61a.56.56,0,0,1,0-.08l0,0A.08.08,0,0,1,127.89,77.61Z"/><path class="cls-10" d="M123.91,73.85c0,.1,0,.14-.13.12Z"/><path class="cls-10" d="M113.69,90.46l.11-.11a.37.37,0,0,1,0,.11S113.71,90.46,113.69,90.46Z"/><path class="cls-5" d="M36.53,83.39c.23.22.25.42-.07.59A.8.8,0,0,1,36.53,83.39Z"/><path class="cls-5" d="M36.46,84c.14.13.07.22,0,.32A.33.33,0,0,1,36.46,84Z"/><path class="cls-11" d="M111.52,171.25l.3.29-.25.18C111.56,171.57,111.54,171.41,111.52,171.25Z"/><path class="cls-12" d="M77.87,104.05a.62.62,0,0,0,.48.25,37.42,37.42,0,0,1,4.31,1.27c.2.2-.16.39,0,.58a.11.11,0,0,0,.17,0,.9.9,0,0,1,1.1,0,30,30,0,0,1,7,4.6,27.89,27.89,0,0,1,8.79,14.18A3.54,3.54,0,0,0,100,126a34.55,34.55,0,0,1,.43,4,25,25,0,0,1-1.91,10.26,33.27,33.27,0,0,1-3.05,5.43c-.35.37-.5,0-.69-.19a8.12,8.12,0,0,1-.56-1.24c0-.09-.11-.15-.2-.1s-.1.26,0,.41a11.42,11.42,0,0,1,.3,1.48,1.32,1.32,0,0,1-.51,1.53c-1.4,1.35-2.86,2.64-4.32,3.93a1.18,1.18,0,0,1-.21.18c-.21.12-.3,0-.33-.2a.68.68,0,0,1,0-.27,13.94,13.94,0,0,0,.53-2.47,11.32,11.32,0,0,0-.42-5.07A15.64,15.64,0,0,0,85,137.41a.81.81,0,0,0-.69-.27l-1.61.1c-.89,0-.89,0-1.07.86A10.72,10.72,0,0,1,78.25,144l-7.59,6.92c-.12.1-.2.26-.43.25a1.36,1.36,0,0,1-.22-.63c-.08-.37-.16-.73-.25-1.1-.42-1.68-.85-3.36-1.26-5-.13-.52-.08-.56.43-.66.87-.16,1.74-.34,2.62-.46a4.79,4.79,0,0,0,3-1.77c.31-.36.34-.5,0-.86a29.1,29.1,0,0,0-2.37-2.6c-.37-.35-.44-.34-.82,0L68,141.17a2.56,2.56,0,0,0-.75,2.88c.72,2.35,1.43,4.71,2.19,7a1,1,0,0,1-.29,1.23c-2,1.78-4,3.59-5.93,5.39-.46.42-.49.41-.89,0-1.32-1.47-2.63-2.94-3.95-4.4L44.49,138c-.16-.17-.28-.38-.51-.46a.48.48,0,0,0-.28-.28c-.3-.52-.3-.53.12-.92L57.38,124a10,10,0,0,1,1.73-1.32c.49-.29.55-.42.41-1s-.36-1.16-.52-1.75a10.52,10.52,0,0,0-1.69-3.52A20.51,20.51,0,0,0,54,112.92c-.49-.41-.52-.48,0-.93.88-.83,1.58-1.9,2.78-2.38a.19.19,0,0,0,.09-.16c0-.33.3-.47.51-.64a19.91,19.91,0,0,1,3.76-2.45,25.35,25.35,0,0,1,9.68-2.67,43.32,43.32,0,0,1,4.56.11.57.57,0,0,1,.59.4c.06.15.06.33.18.45l0,0a.24.24,0,0,0,.07.27l0,0a1.15,1.15,0,0,0,.38,1,4,4,0,0,0,.55-1.47h0A.88.88,0,0,1,77.87,104.05ZM90.82,148.4c-.12.09-.17.25,0,.33s.21-.09.24-.21a.76.76,0,0,0,0-.26v-.33c0-.32.24-.63.16-1A10,10,0,0,0,90,140.74l.21-.17a8.32,8.32,0,0,1,1.79,2.7c.29.6.52,1.23.78,1.84v0c-.11.09-.07.21-.06.31s0,.26.17.26.15-.19.13-.31a.28.28,0,0,0-.17-.27l0,0a15.38,15.38,0,0,0-1.49-4.58,18.61,18.61,0,0,0-2.85-4c.37-.18.53.06.71.18a40.54,40.54,0,0,1,5,3.91c.5.46.65.45,1-.15a12.78,12.78,0,0,0,1.43-3.2,5.89,5.89,0,0,0,.25-1.38.88.88,0,0,0-.36-.79,20.1,20.1,0,0,0-3.33-2.22c-.14-.07-.35-.1-.4-.38,1.13,0,2.22.27,3.32.33a7.37,7.37,0,0,0-.85-.76c-.32-.24-.64-.46-1-.73a3.5,3.5,0,0,1,1,0,5.61,5.61,0,0,0,2,0,2,2,0,0,0,1.74-2.18c0-.14,0-.28,0-.42a24.87,24.87,0,0,0-5.18-13.09A30.59,30.59,0,0,0,89.44,111,32.31,32.31,0,0,0,84,107.49a.47.47,0,0,0-.62.06c-.13.11-.24.23-.36.34l-3.21,3c-.08.08-.16.2-.29.12s-.1-.24,0-.37.11-.2.17-.31a27.33,27.33,0,0,0,1.5-3.25c.2-.53.15-.66-.38-.82-.69-.22-1.4-.4-2.09-.62a.5.5,0,0,0-.71.36A26.39,26.39,0,0,1,76,109.7c-.06.11-.07.29-.3.25a9.49,9.49,0,0,1,0-1.51,22.4,22.4,0,0,0-.53-2.83c-.14-.63-.18-.65-.84-.71a23.75,23.75,0,0,0-2.53,0A23.17,23.17,0,0,0,60,108.39c-.44.27-.85.58-1.28.88a.43.43,0,0,0-.11.7c.3.39.57.8.85,1.21A20.46,20.46,0,0,1,61.05,114a1.06,1.06,0,0,1,.13,1l-.54-.51a27.87,27.87,0,0,0-3.14-2.71c-1-.75-1.12-.73-1.92.27-.23.29-.21.5.06.71l.26.24a15.37,15.37,0,0,1,3.79,5.27c.11.27.26.36.54.24a15.2,15.2,0,0,1,3.37-.94,1,1,0,0,0,.89-1,7.38,7.38,0,0,0-.33-2.64c-.14-.55-.34-1.08-.5-1.64a2.27,2.27,0,0,1,.86.88l.69,1a37.2,37.2,0,0,0-.6-4.63c1,1.32,1.41,2.74,2.28,3.92.22-.15.12-.29.11-.43-.07-.46-.11-.93-.19-1.39a.7.7,0,0,1,.43-.79,4.43,4.43,0,0,1,.45-.2,33.18,33.18,0,0,1,3.44-1c.56-.16.59-.14.59.46a10.76,10.76,0,0,1-1.37,5.17,12.24,12.24,0,0,1-1.52,2.17c.06.07.09.12.12.13l2.49.74a.55.55,0,0,0,.57-.18l.84-.76c1.31-1.17,2.58-2.39,3.84-3.61a1.5,1.5,0,0,1,.84-.51,29.76,29.76,0,0,1-2.44,3.37,3,3,0,0,0,1.4-.54,32.41,32.41,0,0,1,9.12-3.59c.14,0,.28-.08.4.06-.11.24-.36.28-.55.39-.63.36-1.28.69-1.91,1a47.57,47.57,0,0,0-5.71,3.85,1.64,1.64,0,0,0-.66,1.53.36.36,0,0,0,.48.36,2.67,2.67,0,0,0,.4-.13,14.37,14.37,0,0,1,5.57-1,2.94,2.94,0,0,1,1.27.22A15,15,0,0,0,81.63,121a9.76,9.76,0,0,1,4.64-.76c1.89.11,3.93.79,4.48,1.52a5.51,5.51,0,0,0-2.13.21,17.54,17.54,0,0,0-4.22,1.5.65.65,0,0,0-.2,0c-.07,0-.21,0-.14.18s.11.06.18.05a.3.3,0,0,0,.3-.14c.84,0,1.68-.05,2.51-.14a1.48,1.48,0,0,1,1.36.54,17.67,17.67,0,0,1,2.77,4.13c0,.11.14.2.08.32s-.24.12-.37.1l-.28-.06a24.16,24.16,0,0,0-7.2-.33c-.16,0-.34,0-.45.21a9.27,9.27,0,0,1,1,1.74,15.14,15.14,0,0,1,.61,1.71.66.66,0,0,0,.59.5,14.41,14.41,0,0,1,5,2.07c.15.09.36.15.46.37a2.58,2.58,0,0,1-.94-.16,19.94,19.94,0,0,0-4.2-.78c-.4,0-.44,0-.41.43s.07.93.11,1.4c0,.19,0,.38.2.49a6.78,6.78,0,0,1,1.65,1.6,14.19,14.19,0,0,1,3.78,9.08c0,.37-.21.75,0,1.1A.8.8,0,0,0,90.82,148.4ZM80.75,129.94s.12,0,.14,0a16.37,16.37,0,0,1,1.48,2.3c.06.14.11.31.31.33,0,0,.1-.06.1-.1a1.3,1.3,0,0,0,0-.34A10.53,10.53,0,0,0,81,127a42.56,42.56,0,0,0-3.69-4.25A15.31,15.31,0,0,0,65.15,118a16.82,16.82,0,0,0-4.6,1c-.49.16-.51.22-.37.71.2.7.41,1.4.62,2.09.06.2,0,.43.3.6a4.47,4.47,0,0,0,1.66-1.81.75.75,0,0,1,.59-.52c3.21-.64,6.26-.32,8.86,1.81a33.93,33.93,0,0,1,8.07,9.65c.1.18.14.41.35.52.25-.18.12-.42.13-.64,0-.48-.25-1,0-1.43ZM58.19,142.86c.06.07.1.1.11.14s0,.23,0,.35a21.61,21.61,0,0,0,3,10.86c.36.63.75,1.24,1.16,1.84.24.36.33.34.67.07l.21-.19,4.1-3.75.46-.43a.73.73,0,0,0,.17-.83c-.64-2-1.26-4-1.88-6a10.27,10.27,0,0,1-.31-1.44,3.15,3.15,0,0,1,.88-2.79c1.26-1.25,2.61-2.42,4-3.6A1.89,1.89,0,0,1,73,137c1,1,1.9,1.95,2.76,3a1.65,1.65,0,0,1-.17,2.17c-.61.58-1.25,1.14-1.87,1.71a1.93,1.93,0,0,1-.81.4c-.79.21-1.61.32-2.41.46-.57.1-.6.15-.32.67s.72,1.32,1.09,2c.23.41.3.42.7.14a30.27,30.27,0,0,0,6.37-6,9.94,9.94,0,0,0,2.07-4,8.8,8.8,0,0,0-2-7.8c-1.19-1.37-2.42-2.69-3.63-4a11.64,11.64,0,0,0-1.79-1.58,11.76,11.76,0,0,0-14.51.71c-1.55,1.43-3.12,2.84-4.68,4.27l-4.34,4a4,4,0,0,0-1,1.39,4.1,4.1,0,0,0,.19,3.34c.22.48.33.49.66.07L51.54,135c.28-.34.31-.35.58-.06.78.85,1.54,1.71,2.32,2.56a.59.59,0,0,1,.16.69,6.69,6.69,0,0,0-.35,2.84,18.84,18.84,0,0,0,1.4,5.57s.07,0,.19.13A16,16,0,0,1,58.19,142.86Zm-1.3-17.05c-.15,0-.17-.07-.19-.06a11,11,0,0,0-2.64,2.12.17.17,0,0,0,0,.29c.12.09.22,0,.31-.06Z"/><path class="cls-9" d="M94.21,144.3a8.12,8.12,0,0,0,.56,1.24c0,.23,0,.5.29.55s.35-.14.4-.36a33.27,33.27,0,0,0,3.05-5.43A25,25,0,0,0,100.42,130a34.55,34.55,0,0,0-.43-4c.32-.18.55,0,.73.23.58.72,1.17,1.43,1.72,2.18s1,1.37,1.42,2v.35c-.38,0-.54-.28-.64-.56a7.75,7.75,0,0,0-1.63-2.09.26.26,0,0,0-.31-.11.25.25,0,0,0-.15.29c.18,1,0,2,.11,3.07a9.21,9.21,0,0,1-.07,1.82,34.83,34.83,0,0,1-.58,3.66,26.55,26.55,0,0,1-2.42,6,8.35,8.35,0,0,0-1.1,2,.88.88,0,0,1-.24.34,2.78,2.78,0,0,0-.82,1.2,1.27,1.27,0,0,1-.61.66,2.06,2.06,0,0,0-.79.76,17.77,17.77,0,0,1-2.39,2.36q-.42.42-.81.87a3.52,3.52,0,0,1-2.67,1.15c-.32,0-.33-.16-.33-.46,0-1.47.49-2.9.28-4.38a2.82,2.82,0,0,1,.16-1.31,2.34,2.34,0,0,0-.22-1.56,8.35,8.35,0,0,1-.71-2.55.62.62,0,0,0-.14-.31c-.43-.59-.72-1.28-1.45-1.64a1,1,0,0,1-.57-1,.47.47,0,0,0-.37-.54,2.94,2.94,0,0,1-1-.43,2,2,0,0,0-1.58,0,.83.83,0,0,0-.6.92,1.71,1.71,0,0,1-.29,1.13,5.21,5.21,0,0,1-1.44,2.12,1.18,1.18,0,0,0-.37.66,1.19,1.19,0,0,1-.87.84,1.58,1.58,0,0,0-.65.4L74.39,148c-.12.11-.31.23-.32.36-.08.58-.52.93-.83,1.36a.8.8,0,0,1-.34.34,3.07,3.07,0,0,0-.88.67c-.15.12-.3.34-.44.34-.89,0-1.13.74-1.48,1.29a7.64,7.64,0,0,1-1.85,1.87,20.24,20.24,0,0,0-2.2,1.74c-.27.26-.44.59-.7.86a7.41,7.41,0,0,1-2,1.31l-.07,0c-.42.08-.72.61-1.21.4a2.87,2.87,0,0,1-1.23-1.21c-.14-.22-.22-.47-.37-.68a2.08,2.08,0,0,0-.61-.67,4,4,0,0,1-1.46-1.75,11.82,11.82,0,0,0-2-2.73c-.79-.84-1.6-1.66-2.31-2.56a11.78,11.78,0,0,0-2.1-1.58,1.82,1.82,0,0,0-.41-.27.94.94,0,0,1-.59-.73.79.79,0,0,0-.54-.6,2,2,0,0,1-.82-.63c-.41-.46-.82-.91-1.24-1.35a1.78,1.78,0,0,1-.65-1.2c0-.21-.17-.33-.29-.47-.32-.35-.64-.69-1-1a1.7,1.7,0,0,1-.57-.94c0-.28-.3-.48-.51-.65a13.94,13.94,0,0,1-1.21-1.34c-.15-.15-.32-.29-.24-.54.23.08.35.29.51.46l13.89,15.23c1.32,1.46,2.63,2.93,3.95,4.4.4.45.43.46.89,0,2-1.8,3.94-3.61,5.93-5.39a1,1,0,0,0,.29-1.23c-.76-2.33-1.47-4.69-2.19-7a2.56,2.56,0,0,1,.75-2.88L71.43,138c.38-.34.45-.35.82,0a29.1,29.1,0,0,1,2.37,2.6c.3.36.27.5,0,.86a4.79,4.79,0,0,1-3,1.77c-.88.12-1.75.3-2.62.46-.51.1-.56.14-.43.66.41,1.68.84,3.36,1.26,5,.09.37.17.73.25,1.1a1.36,1.36,0,0,0,.22.63c.23,0,.31-.15.43-.25L78.25,144a10.72,10.72,0,0,0,3.35-5.89c.18-.82.18-.82,1.07-.86l1.61-.1a.81.81,0,0,1,.69.27,15.64,15.64,0,0,1,4.09,6.31,11.32,11.32,0,0,1,.42,5.07,13.94,13.94,0,0,1-.53,2.47.68.68,0,0,0,0,.27c0,.19.12.32.33.2a1.18,1.18,0,0,0,.21-.18c1.46-1.29,2.92-2.58,4.32-3.93a1.32,1.32,0,0,0,.51-1.53,11.42,11.42,0,0,0-.3-1.48Z"/><path class="cls-9" d="M76.13,104.65c-.12-.12-.12-.3-.18-.45a.57.57,0,0,0-.59-.4,43.32,43.32,0,0,0-4.56-.11,25.35,25.35,0,0,0-9.68,2.67,19.91,19.91,0,0,0-3.76,2.45c-.21.17-.48.31-.51.64a.19.19,0,0,1-.09.16c-1.2.48-1.9,1.55-2.78,2.38-.48.45-.45.52,0,.93a20.51,20.51,0,0,1,3.29,3.55A10.52,10.52,0,0,1,59,120c.16.59.36,1.17.52,1.75s.08.68-.41,1A10,10,0,0,0,57.38,124L43.82,136.38c-.42.39-.42.4-.12.92-.35,0-.48-.27-.63-.48s0-.38.2-.45a.7.7,0,0,0,.4-.58,2.85,2.85,0,0,1,1.11-1.47c.14-.12.34-.19.44-.34a7.92,7.92,0,0,1,2-2c.79-.59,1.4-1.35,2.13-2s1.45-1.27,2.13-1.95,1.31-.71,1.85-1.25c.06-.07.22-.07.33-.06a.8.8,0,0,0,.62-.28c.26-.24.51-.48.78-.71a1.35,1.35,0,0,0,.51-.87,1.87,1.87,0,0,1,1.06-1.31,8.12,8.12,0,0,0,1.46-.95,1.78,1.78,0,0,0,.58-1.09,2.77,2.77,0,0,0-.3-2,1.61,1.61,0,0,1-.31-.85,2.35,2.35,0,0,0-.72-1.53c-.27-.31-.37-.71-.69-1s-.9-.8-1.38-1.17a1.7,1.7,0,0,1-.51-.56,2.4,2.4,0,0,0-.83-.93c-.39-.27-.54-.74-.83-1.1-.14-.16-.05-.39.06-.59a7.1,7.1,0,0,1,1.78-2.22,13.68,13.68,0,0,1,2.5-1.91c.38-.2.65-.57,1.05-.8a8.46,8.46,0,0,1,2.34-.9,1.69,1.69,0,0,0,.74-.52c.35-.31.7-.65,1.23-.37a.21.21,0,0,0,.26-.05c.21-.2.51-.24.72-.38a7.08,7.08,0,0,1,1.4-.49c.48-.18,1-.3,1.45-.46a14.86,14.86,0,0,1,2.2-.37A9.6,9.6,0,0,0,71,103a2.17,2.17,0,0,1,1-.06c.63.06,1.26.08,1.89.11a7,7,0,0,1,1.63.42A.88.88,0,0,1,76.13,104.65Z"/><path class="cls-5" d="M59.56,90.58a1.32,1.32,0,0,1,.62-.29c1-.1,1.89-.31,2.84-.33a25.08,25.08,0,0,1,3,.23,24.28,24.28,0,0,1,2.9.89,1.43,1.43,0,0,1,1,.74c-.33,0-.55-.35-.9-.3v0a5.21,5.21,0,0,0-2-.68h0a1.78,1.78,0,0,0-1-.22h0a.85.85,0,0,0-.71-.12.14.14,0,0,0-.17,0,.17.17,0,0,0-.22,0h0a.15.15,0,0,0-.21,0h0a.15.15,0,0,0-.21,0h0a.16.16,0,0,0-.21,0h0a.15.15,0,0,0-.21,0h0a.15.15,0,0,0-.21,0h0a.15.15,0,0,0-.21,0h0a.15.15,0,0,0-.21,0h0a.15.15,0,0,0-.21,0h0a.15.15,0,0,0-.21,0h0a.17.17,0,0,0-.21,0h0a.18.18,0,0,0-.22,0h0a.58.58,0,0,0-.53,0,.11.11,0,0,0-.15,0,4.77,4.77,0,0,0-1.72.23h0a.52.52,0,0,0-.51.07.15.15,0,0,0-.18,0l-.1-.09Z"/><path class="cls-9" d="M69,91.52c.35,0,.57.3.9.3h0a14.59,14.59,0,0,1,3.14,2.07l.22.2A19.25,19.25,0,0,0,75,95.79l.19.23a10.33,10.33,0,0,0,1.06,1.49l.15.25,0,.12a5.87,5.87,0,0,1-.75-.9,15.48,15.48,0,0,0-2.44-2.61,10.34,10.34,0,0,1-1-.89,13.18,13.18,0,0,0-2.42-1.37C69.48,91.94,69.15,91.84,69,91.52Z"/><path class="cls-9" d="M105,141a1.09,1.09,0,0,0,.7.88,4.73,4.73,0,0,1,2.14,1.84,13,13,0,0,1,1.38,2.18.92.92,0,0,1,.14.52c-.5-.41-.59-1.09-1-1.58-.19-.23-.36-.48-.55-.71a3.33,3.33,0,0,1-.48-.6,2.76,2.76,0,0,0-1.56-1.33,2,2,0,0,1-.84-.6C104.77,141.39,104.77,141.19,105,141Z"/><path class="cls-9" d="M108,156.94a21.28,21.28,0,0,1,1.68,2.79,23.45,23.45,0,0,1,1.22,2.88,1.27,1.27,0,0,1,0,.34,1.22,1.22,0,0,1-.4-.54,18.52,18.52,0,0,0-1.84-4c-.24-.39-.47-.8-.7-1.19A.27.27,0,0,1,108,156.94Z"/><path class="cls-9" d="M109.55,152.09a6.77,6.77,0,0,1-1.56,3.13l-.61.75a.25.25,0,0,1,0-.37c.26-.24.4-.56.65-.82a5,5,0,0,0,1-1.8A2.06,2.06,0,0,1,109.55,152.09Z"/><path class="cls-5" d="M76.33,97.88l0-.12c.26,0,.32.21.43.4a17.5,17.5,0,0,0,.94,1.76l-.21.18-.44-.54,0,0a.23.23,0,0,0-.06-.26v0h0a.38.38,0,0,0-.13-.38l0,0a.2.2,0,0,0-.07-.24l-.13-.24a.62.62,0,0,0-.22-.4v0Z"/><path class="cls-9" d="M109.88,148.41a4.89,4.89,0,0,1-.06,2.49s-.09-.07-.09-.1A6.4,6.4,0,0,1,109.88,148.41Z"/><path class="cls-9" d="M77.87,104.05a.88.88,0,0,0-.68.43c-.14-.14-.17-.34,0-.39.65-.21.69-.71.69-1.26a.37.37,0,0,1,.15-.3A1.43,1.43,0,0,1,77.87,104.05Z"/><path class="cls-9" d="M77.18,104.48a4,4,0,0,1-.55,1.47,1.15,1.15,0,0,1-.38-1c.13.08.27.24.41,0A1.91,1.91,0,0,1,77.18,104.48Z"/><path class="cls-9" d="M67,90.82a5.21,5.21,0,0,1,2,.68s-.07.09-.09.09A3.57,3.57,0,0,1,67,90.82Z"/><path class="cls-9" d="M60.36,90.61a4.77,4.77,0,0,1,1.72-.23A1.57,1.57,0,0,1,60.36,90.61Z"/><path class="cls-9" d="M105.23,139.64A2.47,2.47,0,0,1,105,141,1.33,1.33,0,0,1,105.23,139.64Z"/><path class="cls-9" d="M111.83,167.92a3.61,3.61,0,0,1,0,1.5A1.44,1.44,0,0,1,111.83,167.92Z"/><path class="cls-9" d="M111.69,166.32a3.78,3.78,0,0,1,.14,1.42A1.16,1.16,0,0,1,111.69,166.32Z"/><path class="cls-9" d="M105.24,136.45a2.69,2.69,0,0,1,.05,1.29A1.13,1.13,0,0,1,105.24,136.45Z"/><path class="cls-9" d="M77.51,100.34a1.86,1.86,0,0,1,.34,1.31A1.56,1.56,0,0,1,77.51,100.34Z"/><path class="cls-9" d="M111.46,165a2.43,2.43,0,0,1,.2,1.25A1,1,0,0,1,111.46,165Z"/><path class="cls-9" d="M104.19,132c.18.45.54.83.52,1.36a4.87,4.87,0,0,1-.61-1.12C104,132.17,104.13,132.09,104.19,132Z"/><path class="cls-9" d="M109.41,146.49a2.9,2.9,0,0,1,.34,1.22A1,1,0,0,1,109.41,146.49Z"/><path class="cls-9" d="M104.73,133.42a2.18,2.18,0,0,1,.22,1.06C104.63,134.18,104.4,133.86,104.73,133.42Z"/><path class="cls-9" d="M111,163a2.67,2.67,0,0,1,.3,1.17C110.94,163.82,110.68,163.48,111,163Z"/><path class="cls-9" d="M66,90.59a1.78,1.78,0,0,1,1,.22C66.51,91.08,66.48,91.08,66,90.59Z"/><path class="cls-9" d="M111.81,169.63a1.3,1.3,0,0,1-.08.87h0A.56.56,0,0,1,111.81,169.63Z"/><path class="cls-9" d="M105.12,135.55a1.31,1.31,0,0,1,.12.89C105,136.18,104.83,135.89,105.12,135.55Z"/><path class="cls-9" d="M105,134.73a.93.93,0,0,1,.11.81A.57.57,0,0,1,105,134.73Z"/><path class="cls-9" d="M109.75,147.71a.77.77,0,0,1,.13.7C109.64,148.22,109.52,148,109.75,147.71Z"/><path class="cls-9" d="M109.74,151.36a.81.81,0,0,1-.19.73C109.33,151.77,109.53,151.56,109.74,151.36Z"/><path class="cls-9" d="M65.33,90.46a.85.85,0,0,1,.71.12C65.75,90.84,65.55,90.64,65.33,90.46Z"/><path class="cls-9" d="M77.1,99.56l.44.54-.11.1A.46.46,0,0,1,77.1,99.56Z"/><path class="cls-9" d="M59.84,90.69a.52.52,0,0,1,.51-.07C60.2,90.81,60.05,90.94,59.84,90.69Z"/><path class="cls-9" d="M76.37,98a.62.62,0,0,1,.22.4C76.22,98.39,76.29,98.17,76.37,98Z"/><path class="cls-9" d="M57.83,91.23a.66.66,0,0,1,.55-.14C58.23,91.25,58.09,91.46,57.83,91.23Z"/><path class="cls-9" d="M111.37,164.51a.52.52,0,0,1,.09.52C111.29,164.88,111.16,164.72,111.37,164.51Z"/><path class="cls-9" d="M62.23,90.38a.58.58,0,0,1,.53,0C62.59,90.54,62.42,90.64,62.23,90.38Z"/><path class="cls-10" d="M104.11,131.31c.09.15.25.29.07.48a.33.33,0,0,1-.1-.06v0s0-.09,0-.12l-.08-.18a.46.46,0,0,0,.07-.07Z"/><path class="cls-9" d="M77.94,102a.31.31,0,0,1,.06.41C77.86,102.33,77.81,102.2,77.94,102Z"/><path class="cls-9" d="M105.29,137.74a.5.5,0,0,1,0,.5C105.16,138.08,105.09,137.91,105.29,137.74Z"/><path class="cls-9" d="M59.56,90.63l.1.09c-.13.1-.23.26-.43.13Z"/><path class="cls-9" d="M76.83,98.85a.38.38,0,0,1,.13.38A.33.33,0,0,1,76.83,98.85Z"/><path class="cls-10" d="M104,131a.26.26,0,0,1,.12.28h0a.09.09,0,0,0-.08,0Z"/><path class="cls-9" d="M104.08,131.73a.33.33,0,0,0,.1.06.26.26,0,0,1,0,.23A.32.32,0,0,1,104.08,131.73Z"/><path class="cls-9" d="M58.93,90.92a.26.26,0,0,1,.31-.07C59.16,91,59.07,91,58.93,90.92Z"/><path class="cls-9" d="M63.35,90.36a.15.15,0,0,1,.21,0A.15.15,0,0,1,63.35,90.36Z"/><path class="cls-9" d="M111.28,164.21a.23.23,0,0,1,.06.26A.25.25,0,0,1,111.28,164.21Z"/><path class="cls-9" d="M76.23,105a.24.24,0,0,1-.07-.27A.27.27,0,0,1,76.23,105Z"/><path class="cls-9" d="M63.55,90.37a.15.15,0,0,1,.21,0A.17.17,0,0,1,63.55,90.37Z"/><path class="cls-9" d="M63.15,90.35a.15.15,0,0,1,.21,0A.15.15,0,0,1,63.15,90.35Z"/><polygon class="cls-11" points="111.72 170.5 111.73 170.5 111.75 170.51 111.72 170.51 111.72 170.5"/><path class="cls-11" d="M111.59,170.85a.07.07,0,0,1,0,.1A.17.17,0,0,1,111.59,170.85Z"/><polygon class="cls-11" points="111.53 171.07 111.55 171.11 111.52 171.15 111.51 171.11 111.53 171.07"/><path class="cls-9" d="M63,90.35a.17.17,0,0,1,.21,0A.17.17,0,0,1,63,90.35Z"/><path class="cls-9" d="M76.72,98.59a.2.2,0,0,1,.07.24A.27.27,0,0,1,76.72,98.59Z"/><path class="cls-9" d="M64.54,90.41a.15.15,0,0,1,.21,0A.16.16,0,0,1,64.54,90.41Z"/><path class="cls-9" d="M64.74,90.43a.15.15,0,0,1,.21,0A.18.18,0,0,1,64.74,90.43Z"/><path class="cls-9" d="M64.94,90.44a.17.17,0,0,1,.22,0A.18.18,0,0,1,64.94,90.44Z"/><path class="cls-9" d="M58.72,91a.18.18,0,0,1,.23,0A.2.2,0,0,1,58.72,91Z"/><path class="cls-9" d="M58.42,91.06a.25.25,0,0,1,.27-.06A.27.27,0,0,1,58.42,91.06Z"/><path class="cls-9" d="M104.07,131.57c.06,0,0,.08,0,.12A.17.17,0,0,1,104.07,131.57Z"/><path class="cls-9" d="M63.75,90.38a.15.15,0,0,1,.21,0A.15.15,0,0,1,63.75,90.38Z"/><path class="cls-9" d="M104,131.27a.09.09,0,0,1,.08,0,.46.46,0,0,1-.07.07A.17.17,0,0,1,104,131.27Z"/><path class="cls-9" d="M109.81,150.9a.15.15,0,0,1,0,.21A.2.2,0,0,1,109.81,150.9Z"/><path class="cls-9" d="M62.75,90.35a.18.18,0,0,1,.22,0A.2.2,0,0,1,62.75,90.35Z"/><path class="cls-9" d="M77,99.28a.23.23,0,0,1,.06.26A.25.25,0,0,1,77,99.28Z"/><path class="cls-9" d="M107.38,156a.23.23,0,0,1,0,.24A.21.21,0,0,1,107.38,156Z"/><path class="cls-9" d="M64,90.38a.15.15,0,0,1,.21,0A.15.15,0,0,1,64,90.38Z"/><path class="cls-9" d="M105.3,138.24a.14.14,0,0,1,0,.2A.18.18,0,0,1,105.3,138.24Z"/><path class="cls-9" d="M64.15,90.38a.15.15,0,0,1,.21,0A.14.14,0,0,1,64.15,90.38Z"/><path class="cls-9" d="M105.28,138.64a.14.14,0,0,1,0,.2A.18.18,0,0,1,105.28,138.64Z"/><path class="cls-9" d="M105.27,139a.15.15,0,0,1,0,.2A.2.2,0,0,1,105.27,139Z"/><path class="cls-9" d="M64.35,90.39a.16.16,0,0,1,.21,0A.14.14,0,0,1,64.35,90.39Z"/><path class="cls-9" d="M105,134.54a.16.16,0,0,1,0,.21A.18.18,0,0,1,105,134.54Z"/><path class="cls-5" d="M73.07,93.9a14.59,14.59,0,0,0-3.14-2.07,1.29,1.29,0,0,1,1.17.3c.66.45,1.26,1,1.88,1.52C73,93.7,73,93.82,73.07,93.9Z"/><path class="cls-5" d="M75,95.79a19.25,19.25,0,0,1-1.69-1.69c.56,0,.83.56,1.32.75.25.1.39.49.43.82C75.05,95.71,75,95.75,75,95.79Z"/><path class="cls-5" d="M76.23,97.51A10.33,10.33,0,0,1,75.17,96,1.83,1.83,0,0,1,76.23,97.51Z"/><path class="cls-4" d="M154.37,62.17c.77-.6,1.42-1.35,2.22-1.92.48-.36.77-.32,1.18.14a.76.76,0,0,1-.05,1.17c-.8.75-1.61,1.48-2.43,2.21-.41.36-.69.34-1.09-.05s-.49-.72-.12-1.17a1.87,1.87,0,0,0,.2-.29Q154.37,62.25,154.37,62.17Z"/><path class="cls-13" d="M129.2,82a.46.46,0,0,1,.14.66,2.4,2.4,0,0,1-1.7,1.51c-.22,0-.4.12-.42.39a.65.65,0,0,1-.27.4c-1.54,1.26-2.81,2.81-4.31,4.12-1.35,1.2-2.66,2.45-4,3.64a3.39,3.39,0,0,0-.75,1.17.56.56,0,0,0,.12.65c.28.31.55.63.85.93a1.11,1.11,0,0,0,1.53.06,28.75,28.75,0,0,0,3.14-2.69c1-.93,2-1.7,3-2.58.63-.57.65-1,.1-1.67l-.24-.26a1.06,1.06,0,0,1,0-1.72c.54-.5.85-1.25,1.61-1.51.67-1,1.77-1.6,2.48-2.57a1,1,0,0,1,.42-.35,6.41,6.41,0,0,0,2.28-1.92,1.38,1.38,0,0,1,.29-.3,6.63,6.63,0,0,0,2-1.78,2.18,2.18,0,0,1,.75-.63,2.48,2.48,0,0,0,.93-.83,2.91,2.91,0,0,1,1.08-1,2.55,2.55,0,0,0,.55-.43l4.52-4.12a2.81,2.81,0,0,0,.56-.63,2.1,2.1,0,0,1,.76-.72,4.28,4.28,0,0,0,1.44-1.3,1.24,1.24,0,0,1,.4-.39,9.32,9.32,0,0,0,1.68-1.46c.5-.45.89-1.13,1.72-1.19a.77.77,0,0,1,.74.23c.24.29.51.56.76.84a.53.53,0,0,0,.62.15,5.31,5.31,0,0,0,2.25-1.51c.22-.22.13-.93-.15-1.29s-.38-.41-.57-.63a.9.9,0,0,1,.06-1.46c.59-.5,1-1.17,1.59-1.67a4.23,4.23,0,0,1,1.64-.76.71.71,0,0,1,.82.39c.51.82.84.86,1.74.4a4.26,4.26,0,0,0,.85-.61c.81-.75,1.59-1.53,2.45-2.22a21.5,21.5,0,0,1,2.64-2.12,1.15,1.15,0,0,0,.31-1.65,12.53,12.53,0,0,0-1.74-2.1c-.64-.58-1.11-1.31-1.73-1.9-1.32-1.24-2.54-2.59-3.76-3.93a2.29,2.29,0,0,0-.82-.52.79.79,0,0,0-.8,0,4.69,4.69,0,0,0-1.11.93c-.49.55-.81,1.29-1.57,1.56a.52.52,0,0,0-.21.18,10.08,10.08,0,0,1-1.93,1.93c-7.07,6.46-14.11,12.94-21.23,19.33-2,1.84-4.11,3.69-6.21,5.48-.65.56-1.27,1.13-1.86,1.74a1.9,1.9,0,0,1-.57.4,1.07,1.07,0,0,0-.54.44,5.56,5.56,0,0,1-1.15,1.22c-1.91,1.74-3.82,3.47-5.72,5.22a4.71,4.71,0,0,0-1.1,1.17,1,1,0,0,1-.3.29,8,8,0,0,0-1.33,1.21,1.2,1.2,0,0,0,0,1.82,5.41,5.41,0,0,0,.61.46,1.13,1.13,0,0,0,1.41-.15c3.8-3.1,7.28-6.55,10.94-9.8.54-.48,1.18-.83,1.71-1.34A1.35,1.35,0,0,1,128,77a1,1,0,0,0,.54.11c.18,0,.29.1.38.25a12.89,12.89,0,0,0,1.59,1.87.49.49,0,0,0,.35.2c.41,0,.46.36.52.65a.65.65,0,0,1-.34.72,1,1,0,0,0-.43.33c-.13.21-.32.12-.48,0,.86-1,.86-1,0-2a21.23,21.23,0,0,0-1.52-1.62c0-.08,0-.1-.1-.09a.52.52,0,0,0-.54.12l0,0a.56.56,0,0,0,0,.08,5.72,5.72,0,0,0-.61.46c-2.36,2.13-4.7,4.27-7,6.4a33.83,33.83,0,0,0-3,2.74l-.64.58a16.81,16.81,0,0,0-2.07,1.89l-.72.67-.11.11c-.44.35-.45.36-.77,0q-1.45-1.56-2.91-3.15c-.35-.39-.35-.41,0-.78l4.51-4.12,9-8.25a1.8,1.8,0,0,0,.19-.2c.1,0,.14,0,.13-.12,11-10.09,22-20.09,33-30.13l.31-.29c.19-.2.37-.15.53,0l.24.26,9.2,10.09c.38.42.38.42-.1.86L151.91,68.54c-5.62,5.12-11.21,10.26-16.86,15.34-4.78,4.29-9.54,8.62-14.31,12.92a4.68,4.68,0,0,0-.56.53c-.6.68-.66.39-1,0l-2.76-3c-.33-.36-.32-.39,0-.72l12.31-11.25C128.9,82.22,129.05,82.11,129.2,82Zm25.08-19.74a1.87,1.87,0,0,1-.2.29c-.37.45-.35.72.12,1.17s.68.41,1.09.05c.82-.73,1.63-1.46,2.43-2.21a.76.76,0,0,0,.05-1.17c-.41-.46-.7-.5-1.18-.14-.8.57-1.45,1.32-2.22,1.92,0,0-.05,0-.05,0A.36.36,0,0,0,154.28,62.26ZM138.61,76.64h0l-10.92,10a7.48,7.48,0,0,0-.74.75.79.79,0,0,0,.08,1.13.74.74,0,0,0,1.07.12,6.64,6.64,0,0,0,.64-.55l18.66-17L151,67.74c.45-.42.43-.8,0-1.27s-.68-.47-1.15-.06-.78.68-1.16,1Z"/><path class="cls-13" d="M121.5,98.79a1.11,1.11,0,0,1,0,.82,2.44,2.44,0,0,0,0,1,28.48,28.48,0,0,0,.36,3.33,2.54,2.54,0,0,1,0,.91,3.86,3.86,0,0,0,.14,1.39,8.39,8.39,0,0,1,.1,1.81,11.66,11.66,0,0,0,.48,2.26c.15.48.36.53.76.21.14-.11.28-.25.41-.37a36.07,36.07,0,0,1,3.06-2.45,1.06,1.06,0,0,0,.26-.33,1.64,1.64,0,0,1,.49-.49c.2-.12.49-.29.64-.1s-.15.39-.3.52c-1.58,1.46-3.18,2.91-4.77,4.37-.18.17-.44.29-.46.59a2.13,2.13,0,0,1-.6.56c-.21-.16-.19-.39-.21-.59-.32-3-.67-6-1-9-.12-1-.21-2-.33-3a1,1,0,0,1,.42-1.08Z"/><path class="cls-13" d="M128.52,77.43c.07,0,.11,0,.1.09Z"/><path class="cls-13" d="M154.37,62.17s0,.08-.09.09a.36.36,0,0,1,0-.09S154.35,62.17,154.37,62.17Z"/><path class="cls-13" d="M129.2,82a3.92,3.92,0,0,1,1-.87c.16.13.35.22.48,0a1,1,0,0,1,.43-.33.65.65,0,0,0,.34-.72c-.06-.29-.11-.62-.52-.65a.49.49,0,0,1-.35-.2,12.89,12.89,0,0,1-1.59-1.87c-.09-.15-.2-.28-.38-.25A1,1,0,0,1,128,77a1.35,1.35,0,0,0-1.38.26c-.53.51-1.17.86-1.71,1.34-3.66,3.25-7.14,6.7-10.94,9.8a1.13,1.13,0,0,1-1.41.15,5.41,5.41,0,0,1-.61-.46,1.2,1.2,0,0,1,0-1.82,8,8,0,0,1,1.33-1.21,1,1,0,0,0,.3-.29,4.71,4.71,0,0,1,1.1-1.17c1.9-1.75,3.81-3.48,5.72-5.22a5.56,5.56,0,0,0,1.15-1.22,1.07,1.07,0,0,1,.54-.44,1.9,1.9,0,0,0,.57-.4c.59-.61,1.21-1.18,1.86-1.74,2.1-1.79,4.16-3.64,6.21-5.48,7.12-6.39,14.16-12.87,21.23-19.33a10.08,10.08,0,0,0,1.93-1.93.52.52,0,0,1,.21-.18c.76-.27,1.08-1,1.57-1.56a4.69,4.69,0,0,1,1.11-.93.79.79,0,0,1,.8,0,2.29,2.29,0,0,1,.82.52c1.22,1.34,2.44,2.69,3.76,3.93.62.59,1.09,1.32,1.73,1.9a12.53,12.53,0,0,1,1.74,2.1,1.15,1.15,0,0,1-.31,1.65,21.5,21.5,0,0,0-2.64,2.12c-.86.69-1.64,1.47-2.45,2.22a4.26,4.26,0,0,1-.85.61c-.9.46-1.23.42-1.74-.4a.71.71,0,0,0-.82-.39,4.23,4.23,0,0,0-1.64.76c-.59.5-1,1.17-1.59,1.67a.9.9,0,0,0-.06,1.46c.19.22.39.41.57.63s.37,1.07.15,1.29A5.31,5.31,0,0,1,152,66.72a.53.53,0,0,1-.62-.15c-.25-.28-.52-.55-.76-.84a.77.77,0,0,0-.74-.23c-.83.06-1.22.74-1.72,1.19a9.32,9.32,0,0,1-1.68,1.46,1.24,1.24,0,0,0-.4.39,4.28,4.28,0,0,1-1.44,1.3,2.1,2.1,0,0,0-.76.72,2.81,2.81,0,0,1-.56.63l-4.52,4.12a2.55,2.55,0,0,1-.55.43,2.91,2.91,0,0,0-1.08,1,2.48,2.48,0,0,1-.93.83,2.18,2.18,0,0,0-.75.63,6.63,6.63,0,0,1-2,1.78,1.38,1.38,0,0,0-.29.3,6.41,6.41,0,0,1-2.28,1.92,1,1,0,0,0-.42.35c-.71,1-1.81,1.56-2.48,2.57-.76.26-1.07,1-1.61,1.51a1.06,1.06,0,0,0,0,1.72l.24.26c.55.66.53,1.1-.1,1.67-1,.88-2.09,1.65-3,2.58a28.75,28.75,0,0,1-3.14,2.69,1.11,1.11,0,0,1-1.53-.06c-.3-.3-.57-.62-.85-.93a.56.56,0,0,1-.12-.65,3.39,3.39,0,0,1,.75-1.17c1.35-1.19,2.66-2.44,4-3.64,1.5-1.31,2.77-2.86,4.31-4.12a.65.65,0,0,0,.27-.4c0-.27.2-.36.42-.39a2.4,2.4,0,0,0,1.7-1.51A.46.46,0,0,0,129.2,82Z"/><path class="cls-13" d="M121.5,98.79a3.59,3.59,0,0,1,.32-.36l9-8.23c.14-.12.3-.23.44-.34a1.55,1.55,0,0,1,.46,1.27,13.55,13.55,0,0,1-.43,2.9c-.33,1.4-.47,2.85-.74,4.26-.15.82-.21,1.65-.44,2.46a22.26,22.26,0,0,0-.47,3,3,3,0,0,1-.7,1.72,2.14,2.14,0,0,0-.39.82.21.21,0,0,0,.08.25c.1.06.17,0,.25-.07.23-.15.35-.45.68-.46-1.71,1.57-3.41,3.15-5.12,4.71a22.91,22.91,0,0,1-1.72,1.55c0-.3.28-.42.46-.59,1.59-1.46,3.19-2.91,4.77-4.37.15-.13.52-.25.3-.52s-.44,0-.64.1a1.64,1.64,0,0,0-.49.49,1.06,1.06,0,0,1-.26.33,36.07,36.07,0,0,0-3.06,2.45c-.13.12-.27.26-.41.37-.4.32-.61.27-.76-.21a11.66,11.66,0,0,1-.48-2.26,8.39,8.39,0,0,0-.1-1.81,3.86,3.86,0,0,1-.14-1.39,2.54,2.54,0,0,0,0-.91,28.48,28.48,0,0,1-.36-3.33,2.44,2.44,0,0,1,0-1A1.11,1.11,0,0,0,121.5,98.79Z"/><path class="cls-13" d="M108.08,75.29a26.19,26.19,0,0,1,3.06-.3L120,74.2H120c.17,0,.41-.09.49.13s-.14.27-.26.37L109.4,84.6c-.34.32-.7.62-1,1a.91.91,0,0,1-1,.23q-5.84-1.27-11.71-2.36l-.35-.07c-.11,0-.24,0-.28-.17s.1-.24.19-.32l7.29-6.63a2.32,2.32,0,0,1,1.62-.68c1.31,0,2.61-.24,3.93-.26-.49.72-1.28.7-2,.77a6.58,6.58,0,0,0-3.52.89,8.72,8.72,0,0,0-1.27,1.12,1.14,1.14,0,0,1-.16.15c-.45.39-.68,1-1.29,1.25-.08,0-.13.19-.18.29a1.89,1.89,0,0,1-.94.91.71.71,0,0,0-.37.31,5.17,5.17,0,0,1-.95,1c-.37.38-.31.69.21.79.91.18,1.8.48,2.72.66A50.12,50.12,0,0,1,106,84.61a4,4,0,0,0,1.1.13,2.48,2.48,0,0,0,1.73-.79c1-.91,2-1.82,3-2.75.44-.41.94-.75,1.35-1.21a9.46,9.46,0,0,1,1.22-1.23c.69-.53,1.29-1.15,2-1.69a5.1,5.1,0,0,0,.93-1c.27-.37.17-.6-.31-.65a4,4,0,0,0-.91,0,10.49,10.49,0,0,1-2.44.07,2.91,2.91,0,0,0-1.17.12,3.4,3.4,0,0,1-1.79.1.72.72,0,0,0-.41,0A2.83,2.83,0,0,1,108.08,75.29Z"/><path class="cls-13" d="M168.69,52.72a.76.76,0,0,1-.36-.29l-8.76-9.6c-.6-.64-.58-.67.25-1a51.35,51.35,0,0,1,12.39-3l.83-.13c.4,0,.45,0,.4.42,0,.21-.08.41-.12.62a49.53,49.53,0,0,1-3.16,10.1c-.34.77-.71,1.53-1.08,2.29A1.59,1.59,0,0,1,168.69,52.72Zm-4.16-5.52c.61.66,1.21,1.31,1.8,2a7.59,7.59,0,0,0,1.28,1.19.86.86,0,0,0,1.31-.25,12.06,12.06,0,0,0,1.24-2.65,30.56,30.56,0,0,0,1.15-3.38c.26-1.18.54-2.36.74-3.55a.56.56,0,0,0-.52-.69,6.67,6.67,0,0,0-1.61,0,37.92,37.92,0,0,0-4.23.92A31.79,31.79,0,0,0,161.63,42a1.2,1.2,0,0,0-.79.74c-.08.29.17.58.47.78a1.47,1.47,0,0,1,.52.56,5.36,5.36,0,0,0,.91,1.15Z"/><path class="cls-13" d="M129.56,106c-.33,0-.45.31-.68.46-.08,0-.15.13-.25.07a.21.21,0,0,1-.08-.25,2.14,2.14,0,0,1,.39-.82,3,3,0,0,0,.7-1.72,22.26,22.26,0,0,1,.47-3c.23-.81.29-1.64.44-2.46.27-1.41.41-2.86.74-4.26a13.55,13.55,0,0,0,.43-2.9,1.55,1.55,0,0,0-.46-1.27L133.18,88a1.43,1.43,0,0,1,0,.93q-1.28,7.13-2.56,14.25c-.08.46-.16.92-.23,1.38A2.41,2.41,0,0,1,129.56,106Z"/><path class="cls-13" d="M116.93,90.74,105.72,101c-.15.14-.27.38-.51.13s-.13-.41.08-.59.66-.6,1-.9l21.39-19.52.31-.28a.25.25,0,0,1,.38,0,.29.29,0,0,1,0,.43,3,3,0,0,1-.37.34L116.92,90.73Z"/><path class="cls-13" d="M138.61,76.64l10.08-9.2c.38-.35.77-.7,1.16-1s.75-.39,1.15.06.44.85,0,1.27L147.41,71l-18.66,17a6.64,6.64,0,0,1-.64.55.74.74,0,0,1-1.07-.12.79.79,0,0,1-.08-1.13,7.48,7.48,0,0,1,.74-.75l10.92-10Z"/><path class="cls-13" d="M108.08,75.29a2.83,2.83,0,0,0,2.2.33.72.72,0,0,1,.41,0,3.4,3.4,0,0,0,1.79-.1,2.91,2.91,0,0,1,1.17-.12,10.49,10.49,0,0,0,2.44-.07,4,4,0,0,1,.91,0c.48.05.58.28.31.65a5.1,5.1,0,0,1-.93,1c-.67.54-1.27,1.16-2,1.69A9.46,9.46,0,0,0,113.2,80c-.41.46-.91.8-1.35,1.21-1,.93-2,1.84-3,2.75a2.48,2.48,0,0,1-1.73.79,4,4,0,0,1-1.1-.13,50.12,50.12,0,0,0-5.68-1.15c-.92-.18-1.81-.48-2.72-.66-.52-.1-.58-.41-.21-.79a5.17,5.17,0,0,0,.95-1,.71.71,0,0,1,.37-.31,1.89,1.89,0,0,0,.94-.91c0-.1.1-.25.18-.29.61-.24.84-.86,1.29-1.25a1.14,1.14,0,0,0,.16-.15A8.72,8.72,0,0,1,102.56,77a6.58,6.58,0,0,1,3.52-.89c.73-.07,1.52,0,2-.77Z"/><path class="cls-13" d="M164.53,47.2l-1.79-2a5.36,5.36,0,0,1-.91-1.15,1.47,1.47,0,0,0-.52-.56c-.3-.2-.55-.49-.47-.78a1.2,1.2,0,0,1,.79-.74,31.79,31.79,0,0,1,4.06-1.26,37.92,37.92,0,0,1,4.23-.92,6.67,6.67,0,0,1,1.61,0,.56.56,0,0,1,.52.69c-.2,1.19-.48,2.37-.74,3.55a30.56,30.56,0,0,1-1.15,3.38,12.06,12.06,0,0,1-1.24,2.65.86.86,0,0,1-1.31.25,7.59,7.59,0,0,1-1.28-1.19C165.74,48.51,165.14,47.86,164.53,47.2Z"/><path class="cls-14" d="M84.4,123.49a17.54,17.54,0,0,1,4.22-1.5,5.51,5.51,0,0,1,2.13-.21c-.55-.73-2.59-1.41-4.48-1.52a9.76,9.76,0,0,0-4.64.76,15,15,0,0,1,3.27-2.24,2.94,2.94,0,0,0-1.27-.22,14.37,14.37,0,0,0-5.57,1,2.67,2.67,0,0,1-.4.13.36.36,0,0,1-.48-.36,1.64,1.64,0,0,1,.66-1.53A47.57,47.57,0,0,1,83.55,114c.63-.36,1.28-.69,1.91-1,.19-.11.44-.15.55-.39-.12-.14-.26-.09-.4-.06a32.41,32.41,0,0,0-9.12,3.59,3,3,0,0,1-1.4.54,29.76,29.76,0,0,0,2.44-3.37,1.5,1.5,0,0,0-.84.51c-1.26,1.22-2.53,2.44-3.84,3.61l-.84.76a.55.55,0,0,1-.57.18L69,117.55s-.06-.06-.12-.13a12.24,12.24,0,0,0,1.52-2.17,10.76,10.76,0,0,0,1.37-5.17c0-.6,0-.62-.59-.46a33.18,33.18,0,0,0-3.44,1,4.43,4.43,0,0,0-.45.2.7.7,0,0,0-.43.79c.08.46.12.93.19,1.39,0,.14.11.28-.11.43-.87-1.18-1.32-2.6-2.28-3.92a37.2,37.2,0,0,1,.6,4.63l-.69-1a2.27,2.27,0,0,0-.86-.88c.16.56.36,1.09.5,1.64a7.38,7.38,0,0,1,.33,2.64,1,1,0,0,1-.89,1,15.2,15.2,0,0,0-3.37.94c-.28.12-.43,0-.54-.24A15.37,15.37,0,0,0,55.9,113l-.26-.24c-.27-.21-.29-.42-.06-.71.8-1,.89-1,1.92-.27a27.87,27.87,0,0,1,3.14,2.71l.54.51a1.06,1.06,0,0,0-.13-1,20.46,20.46,0,0,0-1.57-2.82c-.28-.41-.55-.82-.85-1.21a.43.43,0,0,1,.11-.7c.43-.3.84-.61,1.28-.88a25.13,25.13,0,0,1,14.31-3.49c.66.06.7.08.84.71a22.4,22.4,0,0,1,.53,2.83,9.49,9.49,0,0,0,0,1.51c.23,0,.24-.14.3-.25a26.39,26.39,0,0,0,1.9-3.75.5.5,0,0,1,.71-.36c.69.22,1.4.4,2.09.62.53.16.58.29.38.82a27.33,27.33,0,0,1-1.5,3.25c-.06.11-.12.2-.17.31s-.13.27,0,.37.21,0,.29-.12l3.21-3c.12-.11.23-.23.36-.34a.47.47,0,0,1,.62-.06A32.31,32.31,0,0,1,89.44,111a30.59,30.59,0,0,1,4.45,4.58,24.87,24.87,0,0,1,5.18,13.09c0,.14,0,.28,0,.42a2,2,0,0,1-1.74,2.18,5.61,5.61,0,0,1-2,0,3.5,3.5,0,0,0-1,0c.38.27.7.49,1,.73a7.37,7.37,0,0,1,.85.76c-1.1-.06-2.19-.31-3.32-.33,0,.28.26.31.4.38a20.1,20.1,0,0,1,3.33,2.22.88.88,0,0,1,.36.79,5.89,5.89,0,0,1-.25,1.38,12.78,12.78,0,0,1-1.43,3.2c-.36.6-.51.61-1,.15a40.54,40.54,0,0,0-5-3.91c-.18-.12-.34-.36-.71-.18a18.61,18.61,0,0,1,2.85,4,15.38,15.38,0,0,1,1.49,4.58l-.1.05c-.26-.61-.49-1.24-.78-1.84a8.32,8.32,0,0,0-1.79-2.7.6.6,0,0,0-.53-.39c0,.12,0,.19.06.24s.17.21.26.32A10,10,0,0,1,91.17,147c-.14,0-.23-.05-.33-.12a14.19,14.19,0,0,0-3.78-9.08,6.78,6.78,0,0,0-1.65-1.6c-.19-.11-.19-.3-.2-.49,0-.47-.08-.93-.11-1.4s0-.45.41-.43a19.94,19.94,0,0,1,4.2.78,2.58,2.58,0,0,0,.94.16c-.1-.22-.31-.28-.46-.37a14.41,14.41,0,0,0-5-2.07.66.66,0,0,1-.59-.5,15.14,15.14,0,0,0-.61-1.71,9.27,9.27,0,0,0-1-1.74c.11-.23.29-.2.45-.21a24.16,24.16,0,0,1,7.2.33l.28.06c.13,0,.28.06.37-.1s0-.21-.08-.32A17.67,17.67,0,0,0,88.41,124a1.48,1.48,0,0,0-1.36-.54c-.83.09-1.67.1-2.51.14Z"/><path class="cls-15" d="M58.19,142.86a16,16,0,0,0-2.35,3.82c-.12-.08-.18-.1-.19-.13a18.84,18.84,0,0,1-1.4-5.57,6.69,6.69,0,0,1,.35-2.84.59.59,0,0,0-.16-.69c-.78-.85-1.54-1.71-2.32-2.56-.27-.29-.3-.28-.58.06l-2.33,2.91c-.33.42-.44.41-.66-.07a4.1,4.1,0,0,1-.19-3.34,4,4,0,0,1,1-1.39l4.34-4c1.56-1.43,3.13-2.84,4.68-4.27a11.76,11.76,0,0,1,14.51-.71,11.64,11.64,0,0,1,1.79,1.58c1.21,1.33,2.44,2.65,3.63,4a8.8,8.8,0,0,1,2,7.8,9.94,9.94,0,0,1-2.07,4,30.27,30.27,0,0,1-6.37,6c-.4.28-.47.27-.7-.14-.37-.65-.74-1.31-1.09-2s-.25-.57.32-.67c.8-.14,1.62-.25,2.41-.46a1.93,1.93,0,0,0,.81-.4c.62-.57,1.26-1.13,1.87-1.71a1.65,1.65,0,0,0,.17-2.17c-.86-1.05-1.8-2-2.76-3a1.89,1.89,0,0,0-2.28.06c-1.34,1.18-2.69,2.35-4,3.6a3.15,3.15,0,0,0-.88,2.79,10.27,10.27,0,0,0,.31,1.44c.62,2,1.24,4,1.88,6a.73.73,0,0,1-.17.83l-.46.43-4.1,3.75-.21.19c-.34.27-.43.29-.67-.07-.41-.6-.8-1.21-1.16-1.84a21.61,21.61,0,0,1-3-10.86c0-.12,0-.24,0-.35S58.25,142.93,58.19,142.86Zm4.49,2.19a11.08,11.08,0,0,1,.48-3,2.44,2.44,0,0,0-.21-2.27,6.68,6.68,0,0,1-.51-1.08c-.1-.22-.1-.5-.31-.65-.26.08-.29.28-.35.45a14.76,14.76,0,0,0-.72,3.21,20.32,20.32,0,0,0,1.2,8.64c.06.17.07.43.36.45a18.83,18.83,0,0,0,1.6-7.94A4.57,4.57,0,0,0,63,145.32Zm-5.79-7.4c-1,.74-1.47,4.68-.81,5.82A13.63,13.63,0,0,0,56.89,137.65ZM65,148.05a14.33,14.33,0,0,1-1.61,3.54s0,.14,0,.21A3.07,3.07,0,0,0,65,148.05Z"/><path class="cls-5" d="M80.77,130c-.26.47,0,1,0,1.43,0,.22.12.46-.13.64-.21-.11-.25-.34-.35-.52a33.93,33.93,0,0,0-8.07-9.65c-2.6-2.13-5.65-2.45-8.86-1.81a.75.75,0,0,0-.59.52,4.47,4.47,0,0,1-1.66,1.81c-.27-.17-.24-.4-.3-.6-.21-.69-.42-1.39-.62-2.09-.14-.49-.12-.55.37-.71a16.82,16.82,0,0,1,4.6-1,15.31,15.31,0,0,1,12.11,4.72A42.56,42.56,0,0,1,81,127a10.53,10.53,0,0,1,1.85,5.17,1.3,1.3,0,0,1,0,.34s-.06.06-.1.1c-.2,0-.25-.19-.31-.33a16.37,16.37,0,0,0-1.48-2.3s-.09,0-.14,0,.1,0,.07-.06-.07,0-.08,0S80.72,129.92,80.77,130Zm-7.37-8.13a25.66,25.66,0,0,1,3.91,4.09c.46.59.89,1.21,1.34,1.8.08.11.16.27.32.23s.15-.26.16-.41a3.23,3.23,0,0,0-.53-1.86,20.06,20.06,0,0,0-3.28-3.75c0,.4-.21.52-.5.38s-.83-.43-1.24-.65a1.34,1.34,0,0,0-.83-.55A1.45,1.45,0,0,0,73.4,121.82Z"/><path class="cls-6" d="M56.89,125.81l-2.51,2.29c-.09.07-.19.15-.31.06a.17.17,0,0,1,0-.29,11,11,0,0,1,2.64-2.12S56.74,125.76,56.89,125.81Z"/><path class="cls-10" d="M90.84,146.84c.1.07.19.16.33.12.08.34-.11.65-.16,1h-.12C90.63,147.59,90.86,147.21,90.84,146.84Z"/><path class="cls-1" d="M95.46,145.73c0,.22-.18.41-.4.36s-.28-.32-.29-.55C95,145.76,95.11,146.1,95.46,145.73Z"/><path class="cls-6" d="M90,140.74c-.09-.11-.18-.21-.26-.32s0-.12-.06-.24a.6.6,0,0,1,.53.39Z"/><path class="cls-6" d="M92.87,145.09a.26.26,0,0,1,.17.26c0,.12.06.3-.13.31s-.15-.15-.17-.26,0-.22.06-.31A0,0,0,0,1,92.87,145.09Z"/><path class="cls-10" d="M84.4,123.49l.14.13a.3.3,0,0,1-.3.14c-.07,0-.17,0-.18-.05s.07-.14.14-.18A.65.65,0,0,1,84.4,123.49Z"/><path class="cls-6" d="M91,148.26a.76.76,0,0,1,0,.26c0,.12-.07.32-.24.21s-.07-.24,0-.33Z"/><path class="cls-6" d="M94.21,144.3l-.24.31c-.06-.15-.13-.3,0-.41S94.18,144.21,94.21,144.3Z"/><path class="cls-10" d="M91,148.26l-.19.14a.8.8,0,0,1,.07-.46H91Z"/><path class="cls-6" d="M92.8,145.11l.1-.05,0,0a0,0,0,0,0-.07,0Z"/><path class="cls-12" d="M63,145.32a4.57,4.57,0,0,1,1.22-2.49,18.83,18.83,0,0,1-1.6,7.94c-.29,0-.3-.28-.36-.45a20.32,20.32,0,0,1-1.2-8.64,14.76,14.76,0,0,1,.72-3.21c.06-.17.09-.37.35-.45.21.15.21.43.31.65a6.68,6.68,0,0,0,.51,1.08,2.44,2.44,0,0,1,.21,2.27,11.08,11.08,0,0,0-.48,3,.87.87,0,0,0,.16.89,1.63,1.63,0,0,0,.15-.36A1.13,1.13,0,0,0,63,145.32Z"/><path class="cls-12" d="M56.89,137.65a13.63,13.63,0,0,1-.81,5.82C55.42,142.33,55.94,138.39,56.89,137.65Z"/><path class="cls-12" d="M65,148.05a3.07,3.07,0,0,1-1.6,3.75c0-.07,0-.16,0-.21A14.33,14.33,0,0,0,65,148.05Z"/><path class="cls-10" d="M63,145.32a1.13,1.13,0,0,1,0,.26,1.63,1.63,0,0,1-.15.36.87.87,0,0,1-.16-.89Z"/><path class="cls-12" d="M73.58,121.65c.41.22.81.45,1.24.65s.47,0,.5-.38a20.06,20.06,0,0,1,3.28,3.75,3.23,3.23,0,0,1,.53,1.86c0,.15.05.36-.16.41s-.24-.12-.32-.23c-.45-.59-.88-1.21-1.34-1.8a25.66,25.66,0,0,0-3.91-4.09Z"/><path class="cls-6" d="M73.58,121.65l-.18.17a1.45,1.45,0,0,1-.65-.72A1.34,1.34,0,0,1,73.58,121.65Z"/><path class="cls-12" d="M80.77,130s-.06-.07,0-.11.07,0,.08,0,0,.07-.07.06Z"/></g></g></svg>